<?xml version="1.0" encoding="utf-8" standalone="no"?>
<!DOCTYPE svg PUBLIC "-//W3C//DTD SVG 1.1//EN"
  "http://www.w3.org/Graphics/SVG/1.1/DTD/svg11.dtd">
<!-- Created with matplotlib (https://matplotlib.org/) -->
<svg height="288pt" version="1.1" viewBox="0 0 432 288" width="432pt" xmlns="http://www.w3.org/2000/svg" xmlns:xlink="http://www.w3.org/1999/xlink">
 <defs>
  <style type="text/css">
*{stroke-linecap:butt;stroke-linejoin:round;white-space:pre;}
  </style>
 </defs>
 <g id="figure_1">
  <g id="patch_1">
   <path d="M 0 288 
L 432 288 
L 432 0 
L 0 0 
z
" style="fill:#ffffff;"/>
  </g>
  <g id="axes_1">
   <g id="patch_2">
    <path d="M 54 252 
L 321.84 252 
L 321.84 34.56 
L 54 34.56 
z
" style="fill:#ffffff;"/>
   </g>
   <g id="PathCollection_1">
    <path clip-path="url(#p98a7dc3e4d)" d="M 56.705455 252 
L 59.410909 252 
L 62.116364 252 
L 64.821818 252 
L 67.527273 252 
L 70.232727 252 
L 72.938182 252 
L 75.643636 252 
L 78.349091 252 
L 81.054545 252 
L 83.76 252 
L 86.465455 252 
L 89.170909 252 
L 91.876364 252 
L 94.581818 252 
L 97.287273 252 
L 99.992727 252 
L 102.698182 252 
L 105.403636 252 
L 108.109091 252 
L 110.814545 252 
L 113.52 252 
L 116.225455 252 
L 118.930909 252 
L 121.636364 252 
L 124.341818 252 
L 127.047273 252 
L 129.752727 252 
L 132.458182 252 
L 135.163636 252 
L 135.168028 252 
L 137.869091 250.09433 
L 140.574545 248.358374 
L 141.893785 247.562449 
L 143.28 246.57517 
L 145.985455 244.759538 
L 148.639067 243.124898 
L 148.690909 243.087667 
L 151.396364 241.199235 
L 154.101818 239.459444 
L 155.366826 238.687347 
L 156.807273 237.671922 
L 159.512727 235.862977 
L 162.110185 234.249796 
L 162.218182 234.173061 
L 164.923636 232.300178 
L 167.629091 230.557573 
L 168.839577 229.812245 
L 170.334545 228.766765 
L 173.04 226.963064 
L 175.581453 225.374694 
L 175.745455 225.259144 
L 178.450909 223.39844 
L 181.156364 221.653685 
L 182.312128 220.937143 
L 183.861818 219.860293 
L 186.567273 218.060813 
L 189.052825 216.499592 
L 189.272727 216.34571 
L 191.978182 214.494802 
L 194.683636 212.748352 
L 195.784536 212.062041 
L 197.389091 210.952876 
L 200.094545 209.156867 
L 202.524274 207.62449 
L 202.8 207.432626 
L 205.505455 205.58977 
L 208.210909 203.841952 
L 209.256837 203.186939 
L 210.916364 202.044757 
L 213.621818 200.251652 
L 215.99578 198.749388 
L 216.327273 198.519805 
L 219.032727 196.683684 
L 221.738182 194.934737 
L 222.729057 194.311837 
L 224.443636 193.136104 
L 227.149091 191.345463 
L 229.46733 189.874286 
L 229.854545 189.607187 
L 232.56 187.776782 
L 235.265455 186.02689 
L 236.201214 185.436735 
L 237.970909 184.227033 
L 240.676364 182.438511 
L 242.938914 180.999184 
L 243.381818 180.694728 
L 246.087273 178.869235 
L 248.792727 177.11854 
L 249.673322 176.561633 
L 251.498182 175.317629 
L 254.203636 173.530948 
L 256.410526 172.124082 
L 256.909091 171.782397 
L 259.614545 169.961171 
L 262.32 168.209785 
L 263.145388 167.686531 
L 265.025455 166.407958 
L 267.730909 164.622889 
L 269.88216 163.24898 
L 270.436364 162.870169 
L 273.141818 161.052684 
L 275.847273 159.300697 
L 276.617422 158.811429 
L 278.552727 157.498066 
L 281.258182 155.714424 
L 283.353813 154.373878 
L 283.963636 153.958027 
L 286.669091 152.143849 
L 289.374545 150.391334 
L 290.089428 149.936327 
L 292.08 148.587992 
L 294.785455 146.805619 
L 296.825481 145.498776 
L 297.490909 145.045955 
L 300.196364 143.234721 
L 302.901818 141.48174 
L 303.56141 141.061224 
L 305.607273 139.677765 
L 308.312727 137.896529 
L 310.297162 136.623673 
L 311.018182 136.133943 
L 313.723636 134.325347 
L 316.429091 132.571951 
L 317.033374 132.186122 
L 319.134545 130.767407 
L 321.84 128.987197 
L 321.84 127.748571 
L 321.84 123.31102 
L 321.84 118.873469 
L 321.84 114.435918 
L 321.84 109.998367 
L 321.84 105.560816 
L 321.84 101.123265 
L 321.84 96.685714 
L 321.84 92.248163 
L 321.84 87.810612 
L 321.84 83.373061 
L 321.84 78.93551 
L 321.84 74.497959 
L 321.84 70.060408 
L 321.84 65.622857 
L 321.84 61.185306 
L 321.84 56.747755 
L 321.84 52.310204 
L 321.84 47.872653 
L 321.84 43.435102 
L 321.84 38.997551 
L 321.84 34.56 
L 319.134545 34.56 
L 316.429091 34.56 
L 313.723636 34.56 
L 311.018182 34.56 
L 308.312727 34.56 
L 305.607273 34.56 
L 302.901818 34.56 
L 300.196364 34.56 
L 297.490909 34.56 
L 294.785455 34.56 
L 292.08 34.56 
L 289.374545 34.56 
L 286.669091 34.56 
L 283.963636 34.56 
L 281.258182 34.56 
L 278.552727 34.56 
L 275.847273 34.56 
L 273.141818 34.56 
L 270.436364 34.56 
L 267.730909 34.56 
L 265.025455 34.56 
L 262.32 34.56 
L 259.614545 34.56 
L 256.909091 34.56 
L 254.203636 34.56 
L 251.498182 34.56 
L 248.792727 34.56 
L 246.087273 34.56 
L 243.381818 34.56 
L 240.676364 34.56 
L 237.970909 34.56 
L 235.265455 34.56 
L 232.56 34.56 
L 229.854545 34.56 
L 227.149091 34.56 
L 224.443636 34.56 
L 221.738182 34.56 
L 219.032727 34.56 
L 216.327273 34.56 
L 213.621818 34.56 
L 210.916364 34.56 
L 208.210909 34.56 
L 205.505455 34.56 
L 202.8 34.56 
L 200.094545 34.56 
L 197.389091 34.56 
L 194.683636 34.56 
L 191.978182 34.56 
L 189.272727 34.56 
L 186.567273 34.56 
L 183.861818 34.56 
L 181.156364 34.56 
L 178.450909 34.56 
L 175.745455 34.56 
L 173.04 34.56 
L 170.334545 34.56 
L 167.629091 34.56 
L 164.923636 34.56 
L 162.218182 34.56 
L 159.512727 34.56 
L 156.807273 34.56 
L 154.101818 34.56 
L 151.396364 34.56 
L 148.690909 34.56 
L 145.985455 34.56 
L 143.28 34.56 
L 140.574545 34.56 
L 137.869091 34.56 
L 135.163636 34.56 
L 132.458182 34.56 
L 129.752727 34.56 
L 127.047273 34.56 
L 124.341818 34.56 
L 121.636364 34.56 
L 118.930909 34.56 
L 116.225455 34.56 
L 113.52 34.56 
L 110.814545 34.56 
L 108.109091 34.56 
L 105.403636 34.56 
L 102.698182 34.56 
L 99.992727 34.56 
L 97.287273 34.56 
L 94.581818 34.56 
L 91.876364 34.56 
L 89.170909 34.56 
L 86.465455 34.56 
L 83.76 34.56 
L 81.054545 34.56 
L 78.349091 34.56 
L 75.643636 34.56 
L 72.938182 34.56 
L 70.232727 34.56 
L 67.527273 34.56 
L 64.821818 34.56 
L 62.116364 34.56 
L 59.410909 34.56 
L 56.705455 34.56 
L 54 34.56 
L 54 38.997551 
L 54 43.435102 
L 54 47.872653 
L 54 52.310204 
L 54 56.747755 
L 54 61.185306 
L 54 65.622857 
L 54 70.060408 
L 54 74.497959 
L 54 78.93551 
L 54 83.373061 
L 54 87.810612 
L 54 92.248163 
L 54 96.685714 
L 54 101.123265 
L 54 105.560816 
L 54 109.998367 
L 54 114.435918 
L 54 118.873469 
L 54 123.31102 
L 54 127.748571 
L 54 132.186122 
L 54 136.623673 
L 54 141.061224 
L 54 145.498776 
L 54 149.936327 
L 54 154.373878 
L 54 158.811429 
L 54 163.24898 
L 54 167.686531 
L 54 172.124082 
L 54 176.561633 
L 54 180.999184 
L 54 185.436735 
L 54 189.874286 
L 54 194.311837 
L 54 198.749388 
L 54 203.186939 
L 54 207.62449 
L 54 212.062041 
L 54 216.499592 
L 54 220.937143 
L 54 225.374694 
L 54 229.812245 
L 54 234.249796 
L 54 238.687347 
L 54 243.124898 
L 54 247.562449 
L 54 252 
z
" style="fill:#ffeee6;"/>
   </g>
   <g id="PathCollection_2">
    <path clip-path="url(#p98a7dc3e4d)" d="M 137.869091 252 
L 140.574545 252 
L 143.28 252 
L 145.985455 252 
L 148.690909 252 
L 151.396364 252 
L 154.101818 252 
L 156.807273 252 
L 159.512727 252 
L 162.218182 252 
L 164.923636 252 
L 167.629091 252 
L 169.472008 252 
L 170.334545 251.557495 
L 173.04 250.219894 
L 175.745455 248.969029 
L 178.450909 247.797507 
L 179.010727 247.562449 
L 181.156364 246.480195 
L 183.861818 245.187232 
L 186.567273 243.971384 
L 188.546905 243.124898 
L 189.272727 242.75701 
L 191.978182 241.426153 
L 194.683636 240.170196 
L 197.389091 238.983583 
L 198.084084 238.687347 
L 200.094545 237.682551 
L 202.8 236.390144 
L 205.505455 235.165354 
L 207.621552 234.249796 
L 208.210909 233.953826 
L 210.916364 232.62816 
L 213.621818 231.368398 
L 216.327273 230.170212 
L 217.157562 229.812245 
L 219.032727 228.881742 
L 221.738182 227.589835 
L 224.443636 226.358128 
L 226.696032 225.374694 
L 227.149091 225.148825 
L 229.854545 223.827279 
L 232.56 222.564568 
L 235.265455 221.357225 
L 236.231122 220.937143 
L 237.970909 220.078741 
L 240.676364 218.787276 
L 243.381818 217.550057 
L 245.770394 216.499592 
L 246.087273 216.342544 
L 248.792727 215.024346 
L 251.498182 213.759281 
L 254.203636 212.544513 
L 255.304743 212.062041 
L 256.909091 211.274159 
L 259.614545 209.983082 
L 262.32 208.74137 
L 264.84467 207.62449 
L 265.025455 207.535327 
L 267.730909 206.219903 
L 270.436364 204.952918 
L 273.141818 203.732006 
L 274.378408 203.186939 
L 275.847273 202.468399 
L 278.552727 201.177665 
L 281.258182 199.932218 
L 283.91888 198.749388 
L 283.963636 198.727404 
L 286.669091 197.414316 
L 289.374545 196.145734 
L 292.08 194.919656 
L 293.452107 194.311837 
L 294.785455 193.661737 
L 297.490909 192.371307 
L 300.196364 191.122708 
L 302.901818 189.914139 
L 302.992078 189.874286 
L 305.607273 188.607842 
L 308.312727 187.337912 
L 311.018182 186.107429 
L 312.525832 185.436735 
L 313.723636 184.854372 
L 316.429091 183.564211 
L 319.134545 182.312916 
L 321.84 181.098929 
L 321.84 180.999184 
L 321.84 176.561633 
L 321.84 172.124082 
L 321.84 167.686531 
L 321.84 163.24898 
L 321.84 158.811429 
L 321.84 154.373878 
L 321.84 149.936327 
L 321.84 145.498776 
L 321.84 141.061224 
L 321.84 136.623673 
L 321.84 132.186122 
L 321.84 128.987197 
L 319.134545 130.767407 
L 317.033374 132.186122 
L 316.429091 132.571951 
L 313.723636 134.325347 
L 311.018182 136.133943 
L 310.297162 136.623673 
L 308.312727 137.896529 
L 305.607273 139.677765 
L 303.56141 141.061224 
L 302.901818 141.48174 
L 300.196364 143.234721 
L 297.490909 145.045955 
L 296.825481 145.498776 
L 294.785455 146.805619 
L 292.08 148.587992 
L 290.089428 149.936327 
L 289.374545 150.391334 
L 286.669091 152.143849 
L 283.963636 153.958027 
L 283.353813 154.373878 
L 281.258182 155.714424 
L 278.552727 157.498066 
L 276.617422 158.811429 
L 275.847273 159.300697 
L 273.141818 161.052684 
L 270.436364 162.870169 
L 269.88216 163.24898 
L 267.730909 164.622889 
L 265.025455 166.407958 
L 263.145388 167.686531 
L 262.32 168.209785 
L 259.614545 169.961171 
L 256.909091 171.782397 
L 256.410526 172.124082 
L 254.203636 173.530948 
L 251.498182 175.317629 
L 249.673322 176.561633 
L 248.792727 177.11854 
L 246.087273 178.869235 
L 243.381818 180.694728 
L 242.938914 180.999184 
L 240.676364 182.438511 
L 237.970909 184.227033 
L 236.201214 185.436735 
L 235.265455 186.02689 
L 232.56 187.776782 
L 229.854545 189.607187 
L 229.46733 189.874286 
L 227.149091 191.345463 
L 224.443636 193.136104 
L 222.729057 194.311837 
L 221.738182 194.934737 
L 219.032727 196.683684 
L 216.327273 198.519805 
L 215.99578 198.749388 
L 213.621818 200.251652 
L 210.916364 202.044757 
L 209.256837 203.186939 
L 208.210909 203.841952 
L 205.505455 205.58977 
L 202.8 207.432626 
L 202.524274 207.62449 
L 200.094545 209.156867 
L 197.389091 210.952876 
L 195.784536 212.062041 
L 194.683636 212.748352 
L 191.978182 214.494802 
L 189.272727 216.34571 
L 189.052825 216.499592 
L 186.567273 218.060813 
L 183.861818 219.860293 
L 182.312128 220.937143 
L 181.156364 221.653685 
L 178.450909 223.39844 
L 175.745455 225.259144 
L 175.581453 225.374694 
L 173.04 226.963064 
L 170.334545 228.766765 
L 168.839577 229.812245 
L 167.629091 230.557573 
L 164.923636 232.300178 
L 162.218182 234.173061 
L 162.110185 234.249796 
L 159.512727 235.862977 
L 156.807273 237.671922 
L 155.366826 238.687347 
L 154.101818 239.459444 
L 151.396364 241.199235 
L 148.690909 243.087667 
L 148.639067 243.124898 
L 145.985455 244.759538 
L 143.28 246.57517 
L 141.893785 247.562449 
L 140.574545 248.358374 
L 137.869091 250.09433 
L 135.168028 252 
z
" style="fill:#fedecf;"/>
   </g>
   <g id="PathCollection_3">
    <path clip-path="url(#p98a7dc3e4d)" d="M 170.334545 252 
L 173.04 252 
L 175.745455 252 
L 178.450909 252 
L 181.156364 252 
L 183.861818 252 
L 186.567273 252 
L 189.272727 252 
L 191.978182 252 
L 194.683636 252 
L 195.890998 252 
L 197.389091 251.373926 
L 200.094545 250.286343 
L 202.8 249.256527 
L 205.505455 248.280414 
L 207.58637 247.562449 
L 208.210909 247.301805 
L 210.916364 246.200607 
L 213.621818 245.154007 
L 216.327273 244.158418 
L 219.032727 243.210541 
L 219.281976 243.124898 
L 221.738182 242.117328 
L 224.443636 241.055953 
L 227.149091 240.043134 
L 229.854545 239.075921 
L 230.972234 238.687347 
L 232.56 238.036073 
L 235.265455 236.961591 
L 237.970909 235.933422 
L 240.676364 234.948913 
L 242.666742 234.249796 
L 243.381818 233.956502 
L 246.087273 232.870314 
L 248.792727 231.828385 
L 251.498182 230.828317 
L 254.203636 229.867871 
L 254.362721 229.812245 
L 256.909091 228.781644 
L 259.614545 227.72731 
L 262.32 226.71317 
L 265.025455 225.737182 
L 266.05308 225.374694 
L 267.730909 224.695195 
L 270.436364 223.629622 
L 273.141818 222.602694 
L 275.847273 221.612544 
L 277.747013 220.937143 
L 278.552727 220.610653 
L 281.258182 219.53485 
L 283.963636 218.496252 
L 286.669091 217.493145 
L 289.374545 216.523913 
L 289.443261 216.499592 
L 292.08 215.442607 
L 294.785455 214.393317 
L 297.490909 213.378312 
L 300.196364 212.396098 
L 301.133701 212.062041 
L 302.901818 211.352574 
L 305.607273 210.293452 
L 308.312727 209.267483 
L 311.018182 208.273282 
L 312.827224 207.62449 
L 313.723636 207.26448 
L 316.429091 206.196287 
L 319.134545 205.160183 
L 321.84 204.154882 
L 321.84 203.186939 
L 321.84 198.749388 
L 321.84 194.311837 
L 321.84 189.874286 
L 321.84 185.436735 
L 321.84 181.098929 
L 319.134545 182.312916 
L 316.429091 183.564211 
L 313.723636 184.854372 
L 312.525832 185.436735 
L 311.018182 186.107429 
L 308.312727 187.337912 
L 305.607273 188.607842 
L 302.992078 189.874286 
L 302.901818 189.914139 
L 300.196364 191.122708 
L 297.490909 192.371307 
L 294.785455 193.661737 
L 293.452107 194.311837 
L 292.08 194.919656 
L 289.374545 196.145734 
L 286.669091 197.414316 
L 283.963636 198.727404 
L 283.91888 198.749388 
L 281.258182 199.932218 
L 278.552727 201.177665 
L 275.847273 202.468399 
L 274.378408 203.186939 
L 273.141818 203.732006 
L 270.436364 204.952918 
L 267.730909 206.219903 
L 265.025455 207.535327 
L 264.84467 207.62449 
L 262.32 208.74137 
L 259.614545 209.983082 
L 256.909091 211.274159 
L 255.304743 212.062041 
L 254.203636 212.544513 
L 251.498182 213.759281 
L 248.792727 215.024346 
L 246.087273 216.342544 
L 245.770394 216.499592 
L 243.381818 217.550057 
L 240.676364 218.787276 
L 237.970909 220.078741 
L 236.231122 220.937143 
L 235.265455 221.357225 
L 232.56 222.564568 
L 229.854545 223.827279 
L 227.149091 225.148825 
L 226.696032 225.374694 
L 224.443636 226.358128 
L 221.738182 227.589835 
L 219.032727 228.881742 
L 217.157562 229.812245 
L 216.327273 230.170212 
L 213.621818 231.368398 
L 210.916364 232.62816 
L 208.210909 233.953826 
L 207.621552 234.249796 
L 205.505455 235.165354 
L 202.8 236.390144 
L 200.094545 237.682551 
L 198.084084 238.687347 
L 197.389091 238.983583 
L 194.683636 240.170196 
L 191.978182 241.426153 
L 189.272727 242.75701 
L 188.546905 243.124898 
L 186.567273 243.971384 
L 183.861818 245.187232 
L 181.156364 246.480195 
L 179.010727 247.562449 
L 178.450909 247.797507 
L 175.745455 248.969029 
L 173.04 250.219894 
L 170.334545 251.557495 
L 169.472008 252 
z
" style="fill:#fcc2aa;"/>
   </g>
   <g id="PathCollection_4">
    <path clip-path="url(#p98a7dc3e4d)" d="M 197.389091 252 
L 200.094545 252 
L 202.8 252 
L 205.505455 252 
L 208.210909 252 
L 210.916364 252 
L 213.621818 252 
L 216.327273 252 
L 218.241391 252 
L 219.032727 251.71204 
L 221.738182 250.752199 
L 224.443636 249.836853 
L 227.149091 248.963257 
L 229.854545 248.128872 
L 231.759388 247.562449 
L 232.56 247.273282 
L 235.265455 246.318881 
L 237.970909 245.405515 
L 240.676364 244.530831 
L 243.381818 243.692643 
L 245.277343 243.124898 
L 246.087273 242.834252 
L 248.792727 241.884542 
L 251.498182 240.972904 
L 254.203636 240.0973 
L 256.909091 239.255829 
L 258.795263 238.687347 
L 259.614545 238.395002 
L 262.32 237.449379 
L 265.025455 236.539263 
L 267.730909 235.662873 
L 270.436364 234.818537 
L 272.313156 234.249796 
L 273.141818 233.955573 
L 275.847273 233.013544 
L 278.552727 232.104778 
L 281.258182 231.227706 
L 283.963636 230.38085 
L 285.831026 229.812245 
L 286.669091 229.515998 
L 289.374545 228.577151 
L 292.08 227.669591 
L 294.785455 226.791925 
L 297.490909 225.942834 
L 299.348877 225.374694 
L 300.196364 225.076299 
L 302.901818 224.140291 
L 305.607273 223.233815 
L 308.312727 222.355626 
L 311.018182 221.504539 
L 312.866711 220.937143 
L 313.723636 220.636497 
L 316.429091 219.703037 
L 319.134545 218.79754 
L 321.84 217.918886 
L 321.84 216.499592 
L 321.84 212.062041 
L 321.84 207.62449 
L 321.84 204.154882 
L 319.134545 205.160183 
L 316.429091 206.196287 
L 313.723636 207.26448 
L 312.827224 207.62449 
L 311.018182 208.273282 
L 308.312727 209.267483 
L 305.607273 210.293452 
L 302.901818 211.352574 
L 301.133701 212.062041 
L 300.196364 212.396098 
L 297.490909 213.378312 
L 294.785455 214.393317 
L 292.08 215.442607 
L 289.443261 216.499592 
L 289.374545 216.523913 
L 286.669091 217.493145 
L 283.963636 218.496252 
L 281.258182 219.53485 
L 278.552727 220.610653 
L 277.747013 220.937143 
L 275.847273 221.612544 
L 273.141818 222.602694 
L 270.436364 223.629622 
L 267.730909 224.695195 
L 266.05308 225.374694 
L 265.025455 225.737182 
L 262.32 226.71317 
L 259.614545 227.72731 
L 256.909091 228.781644 
L 254.362721 229.812245 
L 254.203636 229.867871 
L 251.498182 230.828317 
L 248.792727 231.828385 
L 246.087273 232.870314 
L 243.381818 233.956502 
L 242.666742 234.249796 
L 240.676364 234.948913 
L 237.970909 235.933422 
L 235.265455 236.961591 
L 232.56 238.036073 
L 230.972234 238.687347 
L 229.854545 239.075921 
L 227.149091 240.043134 
L 224.443636 241.055953 
L 221.738182 242.117328 
L 219.281976 243.124898 
L 219.032727 243.210541 
L 216.327273 244.158418 
L 213.621818 245.154007 
L 210.916364 246.200607 
L 208.210909 247.301805 
L 207.58637 247.562449 
L 205.505455 248.280414 
L 202.8 249.256527 
L 200.094545 250.286343 
L 197.389091 251.373926 
L 195.890998 252 
z
" style="fill:#fca588;"/>
   </g>
   <g id="PathCollection_5">
    <path clip-path="url(#p98a7dc3e4d)" d="M 219.032727 252 
L 221.738182 252 
L 224.443636 252 
L 227.149091 252 
L 229.854545 252 
L 232.56 252 
L 235.265455 252 
L 237.970909 252 
L 238.003325 252 
L 240.676364 251.138748 
L 243.381818 250.303099 
L 246.087273 249.501771 
L 248.792727 248.732876 
L 251.498182 247.994653 
L 253.129947 247.562449 
L 254.203636 247.216113 
L 256.909091 246.363857 
L 259.614545 245.544344 
L 262.32 244.755888 
L 265.025455 243.996911 
L 267.730909 243.265933 
L 268.262132 243.124898 
L 270.436364 242.431549 
L 273.141818 241.595888 
L 275.847273 240.79 
L 278.552727 240.012463 
L 281.258182 239.261936 
L 283.392736 238.687347 
L 283.963636 238.504995 
L 286.669091 237.6549 
L 289.374545 236.833383 
L 292.08 236.039152 
L 294.785455 235.270991 
L 297.490909 234.527749 
L 298.522476 234.249796 
L 300.196364 233.720196 
L 302.901818 232.884587 
L 305.607273 232.075265 
L 308.312727 231.29112 
L 311.018182 230.531099 
L 313.65607 229.812245 
L 313.723636 229.790828 
L 316.429091 228.94245 
L 319.134545 228.119421 
L 321.84 227.320724 
L 321.84 225.374694 
L 321.84 220.937143 
L 321.84 217.918886 
L 319.134545 218.79754 
L 316.429091 219.703037 
L 313.723636 220.636497 
L 312.866711 220.937143 
L 311.018182 221.504539 
L 308.312727 222.355626 
L 305.607273 223.233815 
L 302.901818 224.140291 
L 300.196364 225.076299 
L 299.348877 225.374694 
L 297.490909 225.942834 
L 294.785455 226.791925 
L 292.08 227.669591 
L 289.374545 228.577151 
L 286.669091 229.515998 
L 285.831026 229.812245 
L 283.963636 230.38085 
L 281.258182 231.227706 
L 278.552727 232.104778 
L 275.847273 233.013544 
L 273.141818 233.955573 
L 272.313156 234.249796 
L 270.436364 234.818537 
L 267.730909 235.662873 
L 265.025455 236.539263 
L 262.32 237.449379 
L 259.614545 238.395002 
L 258.795263 238.687347 
L 256.909091 239.255829 
L 254.203636 240.0973 
L 251.498182 240.972904 
L 248.792727 241.884542 
L 246.087273 242.834252 
L 245.277343 243.124898 
L 243.381818 243.692643 
L 240.676364 244.530831 
L 237.970909 245.405515 
L 235.265455 246.318881 
L 232.56 247.273282 
L 231.759388 247.562449 
L 229.854545 248.128872 
L 227.149091 248.963257 
L 224.443636 249.836853 
L 221.738182 250.752199 
L 219.032727 251.71204 
L 218.241391 252 
z
" style="fill:#fc8767;"/>
   </g>
   <g id="PathCollection_6">
    <path clip-path="url(#p98a7dc3e4d)" d="M 240.676364 252 
L 243.381818 252 
L 246.087273 252 
L 248.792727 252 
L 251.498182 252 
L 254.203636 252 
L 255.924111 252 
L 256.909091 251.707775 
L 259.614545 250.922974 
L 262.32 250.16786 
L 265.025455 249.440922 
L 267.730909 248.740745 
L 270.436364 248.066001 
L 272.519057 247.562449 
L 273.141818 247.378766 
L 275.847273 246.594753 
L 278.552727 245.838278 
L 281.258182 245.108039 
L 283.963636 244.40281 
L 286.669091 243.721436 
L 289.114367 243.124898 
L 289.374545 243.048547 
L 292.08 242.265234 
L 294.785455 241.507599 
L 297.490909 240.77451 
L 300.196364 240.064893 
L 302.901818 239.377735 
L 305.607273 238.712074 
L 305.70894 238.687347 
L 308.312727 237.934663 
L 311.018182 237.176029 
L 313.723636 236.440453 
L 316.429091 235.72699 
L 319.134545 235.034741 
L 321.84 234.362854 
L 321.84 234.249796 
L 321.84 229.812245 
L 321.84 227.320724 
L 319.134545 228.119421 
L 316.429091 228.94245 
L 313.723636 229.790828 
L 313.65607 229.812245 
L 311.018182 230.531099 
L 308.312727 231.29112 
L 305.607273 232.075265 
L 302.901818 232.884587 
L 300.196364 233.720196 
L 298.522476 234.249796 
L 297.490909 234.527749 
L 294.785455 235.270991 
L 292.08 236.039152 
L 289.374545 236.833383 
L 286.669091 237.6549 
L 283.963636 238.504995 
L 283.392736 238.687347 
L 281.258182 239.261936 
L 278.552727 240.012463 
L 275.847273 240.79 
L 273.141818 241.595888 
L 270.436364 242.431549 
L 268.262132 243.124898 
L 267.730909 243.265933 
L 265.025455 243.996911 
L 262.32 244.755888 
L 259.614545 245.544344 
L 256.909091 246.363857 
L 254.203636 247.216113 
L 253.129947 247.562449 
L 251.498182 247.994653 
L 248.792727 248.732876 
L 246.087273 249.501771 
L 243.381818 250.303099 
L 240.676364 251.138748 
L 238.003325 252 
z
" style="fill:#fb694a;"/>
   </g>
   <g id="PathCollection_7">
    <path clip-path="url(#p98a7dc3e4d)" d="M 256.909091 252 
L 259.614545 252 
L 262.32 252 
L 265.025455 252 
L 267.730909 252 
L 270.436364 252 
L 272.466031 252 
L 273.141818 251.814233 
L 275.847273 251.08387 
L 278.552727 250.379094 
L 281.258182 249.698693 
L 283.963636 249.041527 
L 286.669091 248.406521 
L 289.374545 247.792663 
L 290.409621 247.562449 
L 292.08 247.10866 
L 294.785455 246.39165 
L 297.490909 245.697816 
L 300.196364 245.026142 
L 302.901818 244.375672 
L 305.607273 243.745496 
L 308.312727 243.134756 
L 308.35688 243.124898 
L 311.018182 242.409219 
L 313.723636 241.7035 
L 316.429091 241.018951 
L 319.134545 240.354714 
L 321.84 239.70997 
L 321.84 238.687347 
L 321.84 234.362854 
L 319.134545 235.034741 
L 316.429091 235.72699 
L 313.723636 236.440453 
L 311.018182 237.176029 
L 308.312727 237.934663 
L 305.70894 238.687347 
L 305.607273 238.712074 
L 302.901818 239.377735 
L 300.196364 240.064893 
L 297.490909 240.77451 
L 294.785455 241.507599 
L 292.08 242.265234 
L 289.374545 243.048547 
L 289.114367 243.124898 
L 286.669091 243.721436 
L 283.963636 244.40281 
L 281.258182 245.108039 
L 278.552727 245.838278 
L 275.847273 246.594753 
L 273.141818 247.378766 
L 272.519057 247.562449 
L 270.436364 248.066001 
L 267.730909 248.740745 
L 265.025455 249.440922 
L 262.32 250.16786 
L 259.614545 250.922974 
L 256.909091 251.707775 
L 255.924111 252 
z
" style="fill:#f24734;"/>
   </g>
   <g id="PathCollection_8">
    <path clip-path="url(#p98a7dc3e4d)" d="M 273.141818 252 
L 275.847273 252 
L 278.552727 252 
L 281.258182 252 
L 283.963636 252 
L 286.669091 252 
L 287.915363 252 
L 289.374545 251.626356 
L 292.08 250.949516 
L 294.785455 250.294738 
L 297.490909 249.661046 
L 300.196364 249.047518 
L 302.901818 248.45328 
L 305.607273 247.877505 
L 307.120955 247.562449 
L 308.312727 247.259216 
L 311.018182 246.584147 
L 313.723636 245.929493 
L 316.429091 245.294415 
L 319.134545 244.678118 
L 321.84 244.079844 
L 321.84 243.124898 
L 321.84 239.70997 
L 319.134545 240.354714 
L 316.429091 241.018951 
L 313.723636 241.7035 
L 311.018182 242.409219 
L 308.35688 243.124898 
L 308.312727 243.134756 
L 305.607273 243.745496 
L 302.901818 244.375672 
L 300.196364 245.026142 
L 297.490909 245.697816 
L 294.785455 246.39165 
L 292.08 247.10866 
L 290.409621 247.562449 
L 289.374545 247.792663 
L 286.669091 248.406521 
L 283.963636 249.041527 
L 281.258182 249.698693 
L 278.552727 250.379094 
L 275.847273 251.08387 
L 273.141818 251.814233 
L 272.466031 252 
z
" style="fill:#de2b25;"/>
   </g>
   <g id="PathCollection_9">
    <path clip-path="url(#p98a7dc3e4d)" d="M 289.374545 252 
L 292.08 252 
L 294.785455 252 
L 297.490909 252 
L 300.196364 252 
L 302.479382 252 
L 302.901818 251.897675 
L 305.607273 251.251448 
L 308.312727 250.625128 
L 311.018182 250.017881 
L 313.723636 249.428913 
L 316.429091 248.857474 
L 319.134545 248.30285 
L 321.84 247.764361 
L 321.84 247.562449 
L 321.84 244.079844 
L 319.134545 244.678118 
L 316.429091 245.294415 
L 313.723636 245.929493 
L 311.018182 246.584147 
L 308.312727 247.259216 
L 307.120955 247.562449 
L 305.607273 247.877505 
L 302.901818 248.45328 
L 300.196364 249.047518 
L 297.490909 249.661046 
L 294.785455 250.294738 
L 292.08 250.949516 
L 289.374545 251.626356 
L 287.915363 252 
z
" style="fill:#c4161c;"/>
   </g>
   <g id="PathCollection_10">
    <path clip-path="url(#p98a7dc3e4d)" d="M 302.901818 252 
L 305.607273 252 
L 308.312727 252 
L 311.018182 252 
L 313.723636 252 
L 316.302789 252 
L 316.429091 251.970976 
L 319.134545 251.356155 
L 321.84 250.759278 
L 321.84 247.764361 
L 319.134545 248.30285 
L 316.429091 248.857474 
L 313.723636 249.428913 
L 311.018182 250.017881 
L 308.312727 250.625128 
L 305.607273 251.251448 
L 302.901818 251.897675 
L 302.479382 252 
z
" style="fill:#a81016;"/>
   </g>
   <g id="PathCollection_11">
    <path clip-path="url(#p98a7dc3e4d)" d="M 316.429091 252 
L 319.134545 252 
L 321.84 252 
L 321.84 250.759278 
L 319.134545 251.356155 
L 316.429091 251.970976 
L 316.302789 252 
z
" style="fill:#7c0510;"/>
   </g>
   <g id="matplotlib.axis_1">
    <g id="xtick_1">
     <g id="line2d_1">
      <defs>
       <path d="M 0 0 
L 0 3.5 
" id="m6370485848" style="stroke:#000000;stroke-width:0.8;"/>
      </defs>
      <g>
       <use style="stroke:#000000;stroke-width:0.8;" x="119.950553" xlink:href="#m6370485848" y="252"/>
      </g>
     </g>
     <g id="text_1">
      <!-- 50 -->
      <defs>
       <path d="M 10.796875 72.90625 
L 49.515625 72.90625 
L 49.515625 64.59375 
L 19.828125 64.59375 
L 19.828125 46.734375 
Q 21.96875 47.46875 24.109375 47.828125 
Q 26.265625 48.1875 28.421875 48.1875 
Q 40.625 48.1875 47.75 41.5 
Q 54.890625 34.8125 54.890625 23.390625 
Q 54.890625 11.625 47.5625 5.09375 
Q 40.234375 -1.421875 26.90625 -1.421875 
Q 22.3125 -1.421875 17.546875 -0.640625 
Q 12.796875 0.140625 7.71875 1.703125 
L 7.71875 11.625 
Q 12.109375 9.234375 16.796875 8.0625 
Q 21.484375 6.890625 26.703125 6.890625 
Q 35.15625 6.890625 40.078125 11.328125 
Q 45.015625 15.765625 45.015625 23.390625 
Q 45.015625 31 40.078125 35.4375 
Q 35.15625 39.890625 26.703125 39.890625 
Q 22.75 39.890625 18.8125 39.015625 
Q 14.890625 38.140625 10.796875 36.28125 
z
" id="DejaVuSans-53"/>
       <path d="M 31.78125 66.40625 
Q 24.171875 66.40625 20.328125 58.90625 
Q 16.5 51.421875 16.5 36.375 
Q 16.5 21.390625 20.328125 13.890625 
Q 24.171875 6.390625 31.78125 6.390625 
Q 39.453125 6.390625 43.28125 13.890625 
Q 47.125 21.390625 47.125 36.375 
Q 47.125 51.421875 43.28125 58.90625 
Q 39.453125 66.40625 31.78125 66.40625 
z
M 31.78125 74.21875 
Q 44.046875 74.21875 50.515625 64.515625 
Q 56.984375 54.828125 56.984375 36.375 
Q 56.984375 17.96875 50.515625 8.265625 
Q 44.046875 -1.421875 31.78125 -1.421875 
Q 19.53125 -1.421875 13.0625 8.265625 
Q 6.59375 17.96875 6.59375 36.375 
Q 6.59375 54.828125 13.0625 64.515625 
Q 19.53125 74.21875 31.78125 74.21875 
z
" id="DejaVuSans-48"/>
      </defs>
      <g transform="translate(111.679303 268.877969)scale(0.13 -0.13)">
       <use xlink:href="#DejaVuSans-53"/>
       <use x="63.623047" xlink:href="#DejaVuSans-48"/>
      </g>
     </g>
    </g>
    <g id="xtick_2">
     <g id="line2d_2">
      <g>
       <use style="stroke:#000000;stroke-width:0.8;" x="187.247035" xlink:href="#m6370485848" y="252"/>
      </g>
     </g>
     <g id="text_2">
      <!-- 100 -->
      <defs>
       <path d="M 12.40625 8.296875 
L 28.515625 8.296875 
L 28.515625 63.921875 
L 10.984375 60.40625 
L 10.984375 69.390625 
L 28.421875 72.90625 
L 38.28125 72.90625 
L 38.28125 8.296875 
L 54.390625 8.296875 
L 54.390625 0 
L 12.40625 0 
z
" id="DejaVuSans-49"/>
      </defs>
      <g transform="translate(174.84016 268.877969)scale(0.13 -0.13)">
       <use xlink:href="#DejaVuSans-49"/>
       <use x="63.623047" xlink:href="#DejaVuSans-48"/>
       <use x="127.246094" xlink:href="#DejaVuSans-48"/>
      </g>
     </g>
    </g>
    <g id="xtick_3">
     <g id="line2d_3">
      <g>
       <use style="stroke:#000000;stroke-width:0.8;" x="254.543518" xlink:href="#m6370485848" y="252"/>
      </g>
     </g>
     <g id="text_3">
      <!-- 150 -->
      <g transform="translate(242.136643 268.877969)scale(0.13 -0.13)">
       <use xlink:href="#DejaVuSans-49"/>
       <use x="63.623047" xlink:href="#DejaVuSans-53"/>
       <use x="127.246094" xlink:href="#DejaVuSans-48"/>
      </g>
     </g>
    </g>
    <g id="xtick_4">
     <g id="line2d_4">
      <g>
       <use style="stroke:#000000;stroke-width:0.8;" x="321.84" xlink:href="#m6370485848" y="252"/>
      </g>
     </g>
     <g id="text_4">
      <!-- 200 -->
      <defs>
       <path d="M 19.1875 8.296875 
L 53.609375 8.296875 
L 53.609375 0 
L 7.328125 0 
L 7.328125 8.296875 
Q 12.9375 14.109375 22.625 23.890625 
Q 32.328125 33.6875 34.8125 36.53125 
Q 39.546875 41.84375 41.421875 45.53125 
Q 43.3125 49.21875 43.3125 52.78125 
Q 43.3125 58.59375 39.234375 62.25 
Q 35.15625 65.921875 28.609375 65.921875 
Q 23.96875 65.921875 18.8125 64.3125 
Q 13.671875 62.703125 7.8125 59.421875 
L 7.8125 69.390625 
Q 13.765625 71.78125 18.9375 73 
Q 24.125 74.21875 28.421875 74.21875 
Q 39.75 74.21875 46.484375 68.546875 
Q 53.21875 62.890625 53.21875 53.421875 
Q 53.21875 48.921875 51.53125 44.890625 
Q 49.859375 40.875 45.40625 35.40625 
Q 44.1875 33.984375 37.640625 27.21875 
Q 31.109375 20.453125 19.1875 8.296875 
z
" id="DejaVuSans-50"/>
      </defs>
      <g transform="translate(309.433125 268.877969)scale(0.13 -0.13)">
       <use xlink:href="#DejaVuSans-50"/>
       <use x="63.623047" xlink:href="#DejaVuSans-48"/>
       <use x="127.246094" xlink:href="#DejaVuSans-48"/>
      </g>
     </g>
    </g>
    <g id="text_5">
     <!-- Grid Size [km] -->
     <defs>
      <path d="M 59.515625 10.40625 
L 59.515625 29.984375 
L 43.40625 29.984375 
L 43.40625 38.09375 
L 69.28125 38.09375 
L 69.28125 6.78125 
Q 63.578125 2.734375 56.6875 0.65625 
Q 49.8125 -1.421875 42 -1.421875 
Q 24.90625 -1.421875 15.25 8.5625 
Q 5.609375 18.5625 5.609375 36.375 
Q 5.609375 54.25 15.25 64.234375 
Q 24.90625 74.21875 42 74.21875 
Q 49.125 74.21875 55.546875 72.453125 
Q 61.96875 70.703125 67.390625 67.28125 
L 67.390625 56.78125 
Q 61.921875 61.421875 55.765625 63.765625 
Q 49.609375 66.109375 42.828125 66.109375 
Q 29.4375 66.109375 22.71875 58.640625 
Q 16.015625 51.171875 16.015625 36.375 
Q 16.015625 21.625 22.71875 14.15625 
Q 29.4375 6.6875 42.828125 6.6875 
Q 48.046875 6.6875 52.140625 7.59375 
Q 56.25 8.5 59.515625 10.40625 
z
" id="DejaVuSans-71"/>
      <path d="M 41.109375 46.296875 
Q 39.59375 47.171875 37.8125 47.578125 
Q 36.03125 48 33.890625 48 
Q 26.265625 48 22.1875 43.046875 
Q 18.109375 38.09375 18.109375 28.8125 
L 18.109375 0 
L 9.078125 0 
L 9.078125 54.6875 
L 18.109375 54.6875 
L 18.109375 46.1875 
Q 20.953125 51.171875 25.484375 53.578125 
Q 30.03125 56 36.53125 56 
Q 37.453125 56 38.578125 55.875 
Q 39.703125 55.765625 41.0625 55.515625 
z
" id="DejaVuSans-114"/>
      <path d="M 9.421875 54.6875 
L 18.40625 54.6875 
L 18.40625 0 
L 9.421875 0 
z
M 9.421875 75.984375 
L 18.40625 75.984375 
L 18.40625 64.59375 
L 9.421875 64.59375 
z
" id="DejaVuSans-105"/>
      <path d="M 45.40625 46.390625 
L 45.40625 75.984375 
L 54.390625 75.984375 
L 54.390625 0 
L 45.40625 0 
L 45.40625 8.203125 
Q 42.578125 3.328125 38.25 0.953125 
Q 33.9375 -1.421875 27.875 -1.421875 
Q 17.96875 -1.421875 11.734375 6.484375 
Q 5.515625 14.40625 5.515625 27.296875 
Q 5.515625 40.1875 11.734375 48.09375 
Q 17.96875 56 27.875 56 
Q 33.9375 56 38.25 53.625 
Q 42.578125 51.265625 45.40625 46.390625 
z
M 14.796875 27.296875 
Q 14.796875 17.390625 18.875 11.75 
Q 22.953125 6.109375 30.078125 6.109375 
Q 37.203125 6.109375 41.296875 11.75 
Q 45.40625 17.390625 45.40625 27.296875 
Q 45.40625 37.203125 41.296875 42.84375 
Q 37.203125 48.484375 30.078125 48.484375 
Q 22.953125 48.484375 18.875 42.84375 
Q 14.796875 37.203125 14.796875 27.296875 
z
" id="DejaVuSans-100"/>
      <path id="DejaVuSans-32"/>
      <path d="M 53.515625 70.515625 
L 53.515625 60.890625 
Q 47.90625 63.578125 42.921875 64.890625 
Q 37.9375 66.21875 33.296875 66.21875 
Q 25.25 66.21875 20.875 63.09375 
Q 16.5 59.96875 16.5 54.203125 
Q 16.5 49.359375 19.40625 46.890625 
Q 22.3125 44.4375 30.421875 42.921875 
L 36.375 41.703125 
Q 47.40625 39.59375 52.65625 34.296875 
Q 57.90625 29 57.90625 20.125 
Q 57.90625 9.515625 50.796875 4.046875 
Q 43.703125 -1.421875 29.984375 -1.421875 
Q 24.8125 -1.421875 18.96875 -0.25 
Q 13.140625 0.921875 6.890625 3.21875 
L 6.890625 13.375 
Q 12.890625 10.015625 18.65625 8.296875 
Q 24.421875 6.59375 29.984375 6.59375 
Q 38.421875 6.59375 43.015625 9.90625 
Q 47.609375 13.234375 47.609375 19.390625 
Q 47.609375 24.75 44.3125 27.78125 
Q 41.015625 30.8125 33.5 32.328125 
L 27.484375 33.5 
Q 16.453125 35.6875 11.515625 40.375 
Q 6.59375 45.0625 6.59375 53.421875 
Q 6.59375 63.09375 13.40625 68.65625 
Q 20.21875 74.21875 32.171875 74.21875 
Q 37.3125 74.21875 42.625 73.28125 
Q 47.953125 72.359375 53.515625 70.515625 
z
" id="DejaVuSans-83"/>
      <path d="M 5.515625 54.6875 
L 48.1875 54.6875 
L 48.1875 46.484375 
L 14.40625 7.171875 
L 48.1875 7.171875 
L 48.1875 0 
L 4.296875 0 
L 4.296875 8.203125 
L 38.09375 47.515625 
L 5.515625 47.515625 
z
" id="DejaVuSans-122"/>
      <path d="M 56.203125 29.59375 
L 56.203125 25.203125 
L 14.890625 25.203125 
Q 15.484375 15.921875 20.484375 11.0625 
Q 25.484375 6.203125 34.421875 6.203125 
Q 39.59375 6.203125 44.453125 7.46875 
Q 49.3125 8.734375 54.109375 11.28125 
L 54.109375 2.78125 
Q 49.265625 0.734375 44.1875 -0.34375 
Q 39.109375 -1.421875 33.890625 -1.421875 
Q 20.796875 -1.421875 13.15625 6.1875 
Q 5.515625 13.8125 5.515625 26.8125 
Q 5.515625 40.234375 12.765625 48.109375 
Q 20.015625 56 32.328125 56 
Q 43.359375 56 49.78125 48.890625 
Q 56.203125 41.796875 56.203125 29.59375 
z
M 47.21875 32.234375 
Q 47.125 39.59375 43.09375 43.984375 
Q 39.0625 48.390625 32.421875 48.390625 
Q 24.90625 48.390625 20.390625 44.140625 
Q 15.875 39.890625 15.1875 32.171875 
z
" id="DejaVuSans-101"/>
      <path d="M 8.59375 75.984375 
L 29.296875 75.984375 
L 29.296875 69 
L 17.578125 69 
L 17.578125 -6.203125 
L 29.296875 -6.203125 
L 29.296875 -13.1875 
L 8.59375 -13.1875 
z
" id="DejaVuSans-91"/>
      <path d="M 9.078125 75.984375 
L 18.109375 75.984375 
L 18.109375 31.109375 
L 44.921875 54.6875 
L 56.390625 54.6875 
L 27.390625 29.109375 
L 57.625 0 
L 45.90625 0 
L 18.109375 26.703125 
L 18.109375 0 
L 9.078125 0 
z
" id="DejaVuSans-107"/>
      <path d="M 52 44.1875 
Q 55.375 50.25 60.0625 53.125 
Q 64.75 56 71.09375 56 
Q 79.640625 56 84.28125 50.015625 
Q 88.921875 44.046875 88.921875 33.015625 
L 88.921875 0 
L 79.890625 0 
L 79.890625 32.71875 
Q 79.890625 40.578125 77.09375 44.375 
Q 74.3125 48.1875 68.609375 48.1875 
Q 61.625 48.1875 57.5625 43.546875 
Q 53.515625 38.921875 53.515625 30.90625 
L 53.515625 0 
L 44.484375 0 
L 44.484375 32.71875 
Q 44.484375 40.625 41.703125 44.40625 
Q 38.921875 48.1875 33.109375 48.1875 
Q 26.21875 48.1875 22.15625 43.53125 
Q 18.109375 38.875 18.109375 30.90625 
L 18.109375 0 
L 9.078125 0 
L 9.078125 54.6875 
L 18.109375 54.6875 
L 18.109375 46.1875 
Q 21.1875 51.21875 25.484375 53.609375 
Q 29.78125 56 35.6875 56 
Q 41.65625 56 45.828125 52.96875 
Q 50 49.953125 52 44.1875 
z
" id="DejaVuSans-109"/>
      <path d="M 30.421875 75.984375 
L 30.421875 -13.1875 
L 9.71875 -13.1875 
L 9.71875 -6.203125 
L 21.390625 -6.203125 
L 21.390625 69 
L 9.71875 69 
L 9.71875 75.984375 
z
" id="DejaVuSans-93"/>
     </defs>
     <g transform="translate(141.636953 285.459531)scale(0.13 -0.13)">
      <use xlink:href="#DejaVuSans-71"/>
      <use x="77.490234" xlink:href="#DejaVuSans-114"/>
      <use x="118.603516" xlink:href="#DejaVuSans-105"/>
      <use x="146.386719" xlink:href="#DejaVuSans-100"/>
      <use x="209.863281" xlink:href="#DejaVuSans-32"/>
      <use x="241.650391" xlink:href="#DejaVuSans-83"/>
      <use x="305.126953" xlink:href="#DejaVuSans-105"/>
      <use x="332.910156" xlink:href="#DejaVuSans-122"/>
      <use x="385.400391" xlink:href="#DejaVuSans-101"/>
      <use x="446.923828" xlink:href="#DejaVuSans-32"/>
      <use x="478.710938" xlink:href="#DejaVuSans-91"/>
      <use x="517.724609" xlink:href="#DejaVuSans-107"/>
      <use x="575.634766" xlink:href="#DejaVuSans-109"/>
      <use x="673.046875" xlink:href="#DejaVuSans-93"/>
     </g>
    </g>
   </g>
   <g id="matplotlib.axis_2">
    <g id="ytick_1">
     <g id="line2d_5">
      <defs>
       <path d="M 0 0 
L -3.5 0 
" id="me4b03b663d" style="stroke:#000000;stroke-width:0.8;"/>
      </defs>
      <g>
       <use style="stroke:#000000;stroke-width:0.8;" x="54" xlink:href="#me4b03b663d" y="252"/>
      </g>
     </g>
     <g id="text_6">
      <!-- 500 -->
      <g transform="translate(22.18625 256.938984)scale(0.13 -0.13)">
       <use xlink:href="#DejaVuSans-53"/>
       <use x="63.623047" xlink:href="#DejaVuSans-48"/>
       <use x="127.246094" xlink:href="#DejaVuSans-48"/>
      </g>
     </g>
    </g>
    <g id="ytick_2">
     <g id="line2d_6">
      <g>
       <use style="stroke:#000000;stroke-width:0.8;" x="54" xlink:href="#me4b03b663d" y="224.82"/>
      </g>
     </g>
     <g id="text_7">
      <!-- 750 -->
      <defs>
       <path d="M 8.203125 72.90625 
L 55.078125 72.90625 
L 55.078125 68.703125 
L 28.609375 0 
L 18.3125 0 
L 43.21875 64.59375 
L 8.203125 64.59375 
z
" id="DejaVuSans-55"/>
      </defs>
      <g transform="translate(22.18625 229.758984)scale(0.13 -0.13)">
       <use xlink:href="#DejaVuSans-55"/>
       <use x="63.623047" xlink:href="#DejaVuSans-53"/>
       <use x="127.246094" xlink:href="#DejaVuSans-48"/>
      </g>
     </g>
    </g>
    <g id="ytick_3">
     <g id="line2d_7">
      <g>
       <use style="stroke:#000000;stroke-width:0.8;" x="54" xlink:href="#me4b03b663d" y="197.64"/>
      </g>
     </g>
     <g id="text_8">
      <!-- 1000 -->
      <g transform="translate(13.915 202.578984)scale(0.13 -0.13)">
       <use xlink:href="#DejaVuSans-49"/>
       <use x="63.623047" xlink:href="#DejaVuSans-48"/>
       <use x="127.246094" xlink:href="#DejaVuSans-48"/>
       <use x="190.869141" xlink:href="#DejaVuSans-48"/>
      </g>
     </g>
    </g>
    <g id="ytick_4">
     <g id="line2d_8">
      <g>
       <use style="stroke:#000000;stroke-width:0.8;" x="54" xlink:href="#me4b03b663d" y="170.46"/>
      </g>
     </g>
     <g id="text_9">
      <!-- 1250 -->
      <g transform="translate(13.915 175.398984)scale(0.13 -0.13)">
       <use xlink:href="#DejaVuSans-49"/>
       <use x="63.623047" xlink:href="#DejaVuSans-50"/>
       <use x="127.246094" xlink:href="#DejaVuSans-53"/>
       <use x="190.869141" xlink:href="#DejaVuSans-48"/>
      </g>
     </g>
    </g>
    <g id="ytick_5">
     <g id="line2d_9">
      <g>
       <use style="stroke:#000000;stroke-width:0.8;" x="54" xlink:href="#me4b03b663d" y="143.28"/>
      </g>
     </g>
     <g id="text_10">
      <!-- 1500 -->
      <g transform="translate(13.915 148.218984)scale(0.13 -0.13)">
       <use xlink:href="#DejaVuSans-49"/>
       <use x="63.623047" xlink:href="#DejaVuSans-53"/>
       <use x="127.246094" xlink:href="#DejaVuSans-48"/>
       <use x="190.869141" xlink:href="#DejaVuSans-48"/>
      </g>
     </g>
    </g>
    <g id="ytick_6">
     <g id="line2d_10">
      <g>
       <use style="stroke:#000000;stroke-width:0.8;" x="54" xlink:href="#me4b03b663d" y="116.1"/>
      </g>
     </g>
     <g id="text_11">
      <!-- 1750 -->
      <g transform="translate(13.915 121.038984)scale(0.13 -0.13)">
       <use xlink:href="#DejaVuSans-49"/>
       <use x="63.623047" xlink:href="#DejaVuSans-55"/>
       <use x="127.246094" xlink:href="#DejaVuSans-53"/>
       <use x="190.869141" xlink:href="#DejaVuSans-48"/>
      </g>
     </g>
    </g>
    <g id="ytick_7">
     <g id="line2d_11">
      <g>
       <use style="stroke:#000000;stroke-width:0.8;" x="54" xlink:href="#me4b03b663d" y="88.92"/>
      </g>
     </g>
     <g id="text_12">
      <!-- 2000 -->
      <g transform="translate(13.915 93.858984)scale(0.13 -0.13)">
       <use xlink:href="#DejaVuSans-50"/>
       <use x="63.623047" xlink:href="#DejaVuSans-48"/>
       <use x="127.246094" xlink:href="#DejaVuSans-48"/>
       <use x="190.869141" xlink:href="#DejaVuSans-48"/>
      </g>
     </g>
    </g>
    <g id="ytick_8">
     <g id="line2d_12">
      <g>
       <use style="stroke:#000000;stroke-width:0.8;" x="54" xlink:href="#me4b03b663d" y="61.74"/>
      </g>
     </g>
     <g id="text_13">
      <!-- 2250 -->
      <g transform="translate(13.915 66.678984)scale(0.13 -0.13)">
       <use xlink:href="#DejaVuSans-50"/>
       <use x="63.623047" xlink:href="#DejaVuSans-50"/>
       <use x="127.246094" xlink:href="#DejaVuSans-53"/>
       <use x="190.869141" xlink:href="#DejaVuSans-48"/>
      </g>
     </g>
    </g>
    <g id="ytick_9">
     <g id="line2d_13">
      <g>
       <use style="stroke:#000000;stroke-width:0.8;" x="54" xlink:href="#me4b03b663d" y="34.56"/>
      </g>
     </g>
     <g id="text_14">
      <!-- 2500 -->
      <g transform="translate(13.915 39.498984)scale(0.13 -0.13)">
       <use xlink:href="#DejaVuSans-50"/>
       <use x="63.623047" xlink:href="#DejaVuSans-53"/>
       <use x="127.246094" xlink:href="#DejaVuSans-48"/>
       <use x="190.869141" xlink:href="#DejaVuSans-48"/>
      </g>
     </g>
    </g>
    <g id="text_15">
     <!-- Spread Parameter [km] -->
     <defs>
      <path d="M 18.109375 8.203125 
L 18.109375 -20.796875 
L 9.078125 -20.796875 
L 9.078125 54.6875 
L 18.109375 54.6875 
L 18.109375 46.390625 
Q 20.953125 51.265625 25.265625 53.625 
Q 29.59375 56 35.59375 56 
Q 45.5625 56 51.78125 48.09375 
Q 58.015625 40.1875 58.015625 27.296875 
Q 58.015625 14.40625 51.78125 6.484375 
Q 45.5625 -1.421875 35.59375 -1.421875 
Q 29.59375 -1.421875 25.265625 0.953125 
Q 20.953125 3.328125 18.109375 8.203125 
z
M 48.6875 27.296875 
Q 48.6875 37.203125 44.609375 42.84375 
Q 40.53125 48.484375 33.40625 48.484375 
Q 26.265625 48.484375 22.1875 42.84375 
Q 18.109375 37.203125 18.109375 27.296875 
Q 18.109375 17.390625 22.1875 11.75 
Q 26.265625 6.109375 33.40625 6.109375 
Q 40.53125 6.109375 44.609375 11.75 
Q 48.6875 17.390625 48.6875 27.296875 
z
" id="DejaVuSans-112"/>
      <path d="M 34.28125 27.484375 
Q 23.390625 27.484375 19.1875 25 
Q 14.984375 22.515625 14.984375 16.5 
Q 14.984375 11.71875 18.140625 8.90625 
Q 21.296875 6.109375 26.703125 6.109375 
Q 34.1875 6.109375 38.703125 11.40625 
Q 43.21875 16.703125 43.21875 25.484375 
L 43.21875 27.484375 
z
M 52.203125 31.203125 
L 52.203125 0 
L 43.21875 0 
L 43.21875 8.296875 
Q 40.140625 3.328125 35.546875 0.953125 
Q 30.953125 -1.421875 24.3125 -1.421875 
Q 15.921875 -1.421875 10.953125 3.296875 
Q 6 8.015625 6 15.921875 
Q 6 25.140625 12.171875 29.828125 
Q 18.359375 34.515625 30.609375 34.515625 
L 43.21875 34.515625 
L 43.21875 35.40625 
Q 43.21875 41.609375 39.140625 45 
Q 35.0625 48.390625 27.6875 48.390625 
Q 23 48.390625 18.546875 47.265625 
Q 14.109375 46.140625 10.015625 43.890625 
L 10.015625 52.203125 
Q 14.9375 54.109375 19.578125 55.046875 
Q 24.21875 56 28.609375 56 
Q 40.484375 56 46.34375 49.84375 
Q 52.203125 43.703125 52.203125 31.203125 
z
" id="DejaVuSans-97"/>
      <path d="M 19.671875 64.796875 
L 19.671875 37.40625 
L 32.078125 37.40625 
Q 38.96875 37.40625 42.71875 40.96875 
Q 46.484375 44.53125 46.484375 51.125 
Q 46.484375 57.671875 42.71875 61.234375 
Q 38.96875 64.796875 32.078125 64.796875 
z
M 9.8125 72.90625 
L 32.078125 72.90625 
Q 44.34375 72.90625 50.609375 67.359375 
Q 56.890625 61.8125 56.890625 51.125 
Q 56.890625 40.328125 50.609375 34.8125 
Q 44.34375 29.296875 32.078125 29.296875 
L 19.671875 29.296875 
L 19.671875 0 
L 9.8125 0 
z
" id="DejaVuSans-80"/>
      <path d="M 18.3125 70.21875 
L 18.3125 54.6875 
L 36.8125 54.6875 
L 36.8125 47.703125 
L 18.3125 47.703125 
L 18.3125 18.015625 
Q 18.3125 11.328125 20.140625 9.421875 
Q 21.96875 7.515625 27.59375 7.515625 
L 36.8125 7.515625 
L 36.8125 0 
L 27.59375 0 
Q 17.1875 0 13.234375 3.875 
Q 9.28125 7.765625 9.28125 18.015625 
L 9.28125 47.703125 
L 2.6875 47.703125 
L 2.6875 54.6875 
L 9.28125 54.6875 
L 9.28125 70.21875 
z
" id="DejaVuSans-116"/>
     </defs>
     <g transform="translate(7.211406 219.715937)rotate(-90)scale(0.13 -0.13)">
      <use xlink:href="#DejaVuSans-83"/>
      <use x="63.476562" xlink:href="#DejaVuSans-112"/>
      <use x="126.953125" xlink:href="#DejaVuSans-114"/>
      <use x="168.035156" xlink:href="#DejaVuSans-101"/>
      <use x="229.558594" xlink:href="#DejaVuSans-97"/>
      <use x="290.837891" xlink:href="#DejaVuSans-100"/>
      <use x="354.314453" xlink:href="#DejaVuSans-32"/>
      <use x="386.101562" xlink:href="#DejaVuSans-80"/>
      <use x="446.341797" xlink:href="#DejaVuSans-97"/>
      <use x="507.621094" xlink:href="#DejaVuSans-114"/>
      <use x="548.734375" xlink:href="#DejaVuSans-97"/>
      <use x="610.013672" xlink:href="#DejaVuSans-109"/>
      <use x="707.425781" xlink:href="#DejaVuSans-101"/>
      <use x="768.949219" xlink:href="#DejaVuSans-116"/>
      <use x="808.158203" xlink:href="#DejaVuSans-101"/>
      <use x="869.681641" xlink:href="#DejaVuSans-114"/>
      <use x="910.794922" xlink:href="#DejaVuSans-32"/>
      <use x="942.582031" xlink:href="#DejaVuSans-91"/>
      <use x="981.595703" xlink:href="#DejaVuSans-107"/>
      <use x="1039.505859" xlink:href="#DejaVuSans-109"/>
      <use x="1136.917969" xlink:href="#DejaVuSans-93"/>
     </g>
    </g>
   </g>
   <g id="patch_3">
    <path d="M 54 252 
L 54 34.56 
" style="fill:none;stroke:#000000;stroke-linecap:square;stroke-linejoin:miter;stroke-width:0.8;"/>
   </g>
   <g id="patch_4">
    <path d="M 321.84 252 
L 321.84 34.56 
" style="fill:none;stroke:#000000;stroke-linecap:square;stroke-linejoin:miter;stroke-width:0.8;"/>
   </g>
   <g id="patch_5">
    <path d="M 54 252 
L 321.84 252 
" style="fill:none;stroke:#000000;stroke-linecap:square;stroke-linejoin:miter;stroke-width:0.8;"/>
   </g>
   <g id="patch_6">
    <path d="M 54 34.56 
L 321.84 34.56 
" style="fill:none;stroke:#000000;stroke-linecap:square;stroke-linejoin:miter;stroke-width:0.8;"/>
   </g>
   <g id="text_16">
    <!-- Error: |M0-v0| -->
    <defs>
     <path d="M 9.8125 72.90625 
L 55.90625 72.90625 
L 55.90625 64.59375 
L 19.671875 64.59375 
L 19.671875 43.015625 
L 54.390625 43.015625 
L 54.390625 34.71875 
L 19.671875 34.71875 
L 19.671875 8.296875 
L 56.78125 8.296875 
L 56.78125 0 
L 9.8125 0 
z
" id="DejaVuSans-69"/>
     <path d="M 30.609375 48.390625 
Q 23.390625 48.390625 19.1875 42.75 
Q 14.984375 37.109375 14.984375 27.296875 
Q 14.984375 17.484375 19.15625 11.84375 
Q 23.34375 6.203125 30.609375 6.203125 
Q 37.796875 6.203125 41.984375 11.859375 
Q 46.1875 17.53125 46.1875 27.296875 
Q 46.1875 37.015625 41.984375 42.703125 
Q 37.796875 48.390625 30.609375 48.390625 
z
M 30.609375 56 
Q 42.328125 56 49.015625 48.375 
Q 55.71875 40.765625 55.71875 27.296875 
Q 55.71875 13.875 49.015625 6.21875 
Q 42.328125 -1.421875 30.609375 -1.421875 
Q 18.84375 -1.421875 12.171875 6.21875 
Q 5.515625 13.875 5.515625 27.296875 
Q 5.515625 40.765625 12.171875 48.375 
Q 18.84375 56 30.609375 56 
z
" id="DejaVuSans-111"/>
     <path d="M 11.71875 12.40625 
L 22.015625 12.40625 
L 22.015625 0 
L 11.71875 0 
z
M 11.71875 51.703125 
L 22.015625 51.703125 
L 22.015625 39.3125 
L 11.71875 39.3125 
z
" id="DejaVuSans-58"/>
     <path d="M 21 76.421875 
L 21 -23.578125 
L 12.703125 -23.578125 
L 12.703125 76.421875 
z
" id="DejaVuSans-124"/>
     <path d="M 9.8125 72.90625 
L 24.515625 72.90625 
L 43.109375 23.296875 
L 61.8125 72.90625 
L 76.515625 72.90625 
L 76.515625 0 
L 66.890625 0 
L 66.890625 64.015625 
L 48.09375 14.015625 
L 38.1875 14.015625 
L 19.390625 64.015625 
L 19.390625 0 
L 9.8125 0 
z
" id="DejaVuSans-77"/>
     <path d="M 4.890625 31.390625 
L 31.203125 31.390625 
L 31.203125 23.390625 
L 4.890625 23.390625 
z
" id="DejaVuSans-45"/>
     <path d="M 2.984375 54.6875 
L 12.5 54.6875 
L 29.59375 8.796875 
L 46.6875 54.6875 
L 56.203125 54.6875 
L 35.6875 0 
L 23.484375 0 
z
" id="DejaVuSans-118"/>
    </defs>
    <g transform="translate(134.1585 28.56)scale(0.156 -0.156)">
     <use xlink:href="#DejaVuSans-69"/>
     <use x="63.183594" xlink:href="#DejaVuSans-114"/>
     <use x="104.28125" xlink:href="#DejaVuSans-114"/>
     <use x="145.363281" xlink:href="#DejaVuSans-111"/>
     <use x="206.544922" xlink:href="#DejaVuSans-114"/>
     <use x="247.642578" xlink:href="#DejaVuSans-58"/>
     <use x="281.333984" xlink:href="#DejaVuSans-32"/>
     <use x="313.121094" xlink:href="#DejaVuSans-124"/>
     <use x="346.8125" xlink:href="#DejaVuSans-77"/>
     <use x="433.091797" xlink:href="#DejaVuSans-48"/>
     <use x="496.714844" xlink:href="#DejaVuSans-45"/>
     <use x="532.767578" xlink:href="#DejaVuSans-118"/>
     <use x="591.947266" xlink:href="#DejaVuSans-48"/>
     <use x="655.570312" xlink:href="#DejaVuSans-124"/>
    </g>
   </g>
  </g>
  <g id="axes_2">
   <g id="patch_7">
    <path clip-path="url(#paa9f5bf924)" d="M 338.58 252 
L 338.58 232.232727 
L 338.58 54.327273 
L 338.58 34.56 
L 349.452 34.56 
L 349.452 54.327273 
L 349.452 232.232727 
L 349.452 252 
z
" style="fill:#ffffff;stroke:#ffffff;stroke-linejoin:miter;stroke-width:0.01;"/>
   </g>
   <g id="QuadMesh_1">
    <path clip-path="url(#paa9f5bf924)" d="M 338.58 252 
L 349.452 252 
L 349.452 232.232727 
L 338.58 232.232727 
L 338.58 252 
" style="fill:#ffeee6;"/>
    <path clip-path="url(#paa9f5bf924)" d="M 338.58 232.232727 
L 349.452 232.232727 
L 349.452 212.465455 
L 338.58 212.465455 
L 338.58 232.232727 
" style="fill:#fedecf;"/>
    <path clip-path="url(#paa9f5bf924)" d="M 338.58 212.465455 
L 349.452 212.465455 
L 349.452 192.698182 
L 338.58 192.698182 
L 338.58 212.465455 
" style="fill:#fcc2aa;"/>
    <path clip-path="url(#paa9f5bf924)" d="M 338.58 192.698182 
L 349.452 192.698182 
L 349.452 172.930909 
L 338.58 172.930909 
L 338.58 192.698182 
" style="fill:#fca588;"/>
    <path clip-path="url(#paa9f5bf924)" d="M 338.58 172.930909 
L 349.452 172.930909 
L 349.452 153.163636 
L 338.58 153.163636 
L 338.58 172.930909 
" style="fill:#fc8767;"/>
    <path clip-path="url(#paa9f5bf924)" d="M 338.58 153.163636 
L 349.452 153.163636 
L 349.452 133.396364 
L 338.58 133.396364 
L 338.58 153.163636 
" style="fill:#fb694a;"/>
    <path clip-path="url(#paa9f5bf924)" d="M 338.58 133.396364 
L 349.452 133.396364 
L 349.452 113.629091 
L 338.58 113.629091 
L 338.58 133.396364 
" style="fill:#f24734;"/>
    <path clip-path="url(#paa9f5bf924)" d="M 338.58 113.629091 
L 349.452 113.629091 
L 349.452 93.861818 
L 338.58 93.861818 
L 338.58 113.629091 
" style="fill:#de2b25;"/>
    <path clip-path="url(#paa9f5bf924)" d="M 338.58 93.861818 
L 349.452 93.861818 
L 349.452 74.094545 
L 338.58 74.094545 
L 338.58 93.861818 
" style="fill:#c4161c;"/>
    <path clip-path="url(#paa9f5bf924)" d="M 338.58 74.094545 
L 349.452 74.094545 
L 349.452 54.327273 
L 338.58 54.327273 
L 338.58 74.094545 
" style="fill:#a81016;"/>
    <path clip-path="url(#paa9f5bf924)" d="M 338.58 54.327273 
L 349.452 54.327273 
L 349.452 34.56 
L 338.58 34.56 
L 338.58 54.327273 
" style="fill:#7c0510;"/>
   </g>
   <g id="matplotlib.axis_3"/>
   <g id="matplotlib.axis_4">
    <g id="ytick_10">
     <g id="line2d_14">
      <defs>
       <path d="M 0 0 
L 3.5 0 
" id="m0e947b7c28" style="stroke:#000000;stroke-width:0.8;"/>
      </defs>
      <g>
       <use style="stroke:#000000;stroke-width:0.8;" x="349.452" xlink:href="#m0e947b7c28" y="252"/>
      </g>
     </g>
     <g id="text_17">
      <!-- 0 -->
      <g transform="translate(356.452 256.938984)scale(0.13 -0.13)">
       <use xlink:href="#DejaVuSans-48"/>
      </g>
     </g>
    </g>
    <g id="ytick_11">
     <g id="line2d_15">
      <g>
       <use style="stroke:#000000;stroke-width:0.8;" x="349.452" xlink:href="#m0e947b7c28" y="212.465455"/>
      </g>
     </g>
     <g id="text_18">
      <!-- 4 -->
      <defs>
       <path d="M 37.796875 64.3125 
L 12.890625 25.390625 
L 37.796875 25.390625 
z
M 35.203125 72.90625 
L 47.609375 72.90625 
L 47.609375 25.390625 
L 58.015625 25.390625 
L 58.015625 17.1875 
L 47.609375 17.1875 
L 47.609375 0 
L 37.796875 0 
L 37.796875 17.1875 
L 4.890625 17.1875 
L 4.890625 26.703125 
z
" id="DejaVuSans-52"/>
      </defs>
      <g transform="translate(356.452 217.404439)scale(0.13 -0.13)">
       <use xlink:href="#DejaVuSans-52"/>
      </g>
     </g>
    </g>
    <g id="ytick_12">
     <g id="line2d_16">
      <g>
       <use style="stroke:#000000;stroke-width:0.8;" x="349.452" xlink:href="#m0e947b7c28" y="172.930909"/>
      </g>
     </g>
     <g id="text_19">
      <!-- 8 -->
      <defs>
       <path d="M 31.78125 34.625 
Q 24.75 34.625 20.71875 30.859375 
Q 16.703125 27.09375 16.703125 20.515625 
Q 16.703125 13.921875 20.71875 10.15625 
Q 24.75 6.390625 31.78125 6.390625 
Q 38.8125 6.390625 42.859375 10.171875 
Q 46.921875 13.96875 46.921875 20.515625 
Q 46.921875 27.09375 42.890625 30.859375 
Q 38.875 34.625 31.78125 34.625 
z
M 21.921875 38.8125 
Q 15.578125 40.375 12.03125 44.71875 
Q 8.5 49.078125 8.5 55.328125 
Q 8.5 64.0625 14.71875 69.140625 
Q 20.953125 74.21875 31.78125 74.21875 
Q 42.671875 74.21875 48.875 69.140625 
Q 55.078125 64.0625 55.078125 55.328125 
Q 55.078125 49.078125 51.53125 44.71875 
Q 48 40.375 41.703125 38.8125 
Q 48.828125 37.15625 52.796875 32.3125 
Q 56.78125 27.484375 56.78125 20.515625 
Q 56.78125 9.90625 50.3125 4.234375 
Q 43.84375 -1.421875 31.78125 -1.421875 
Q 19.734375 -1.421875 13.25 4.234375 
Q 6.78125 9.90625 6.78125 20.515625 
Q 6.78125 27.484375 10.78125 32.3125 
Q 14.796875 37.15625 21.921875 38.8125 
z
M 18.3125 54.390625 
Q 18.3125 48.734375 21.84375 45.5625 
Q 25.390625 42.390625 31.78125 42.390625 
Q 38.140625 42.390625 41.71875 45.5625 
Q 45.3125 48.734375 45.3125 54.390625 
Q 45.3125 60.0625 41.71875 63.234375 
Q 38.140625 66.40625 31.78125 66.40625 
Q 25.390625 66.40625 21.84375 63.234375 
Q 18.3125 60.0625 18.3125 54.390625 
z
" id="DejaVuSans-56"/>
      </defs>
      <g transform="translate(356.452 177.869893)scale(0.13 -0.13)">
       <use xlink:href="#DejaVuSans-56"/>
      </g>
     </g>
    </g>
    <g id="ytick_13">
     <g id="line2d_17">
      <g>
       <use style="stroke:#000000;stroke-width:0.8;" x="349.452" xlink:href="#m0e947b7c28" y="133.396364"/>
      </g>
     </g>
     <g id="text_20">
      <!-- 12 -->
      <g transform="translate(356.452 138.335348)scale(0.13 -0.13)">
       <use xlink:href="#DejaVuSans-49"/>
       <use x="63.623047" xlink:href="#DejaVuSans-50"/>
      </g>
     </g>
    </g>
    <g id="ytick_14">
     <g id="line2d_18">
      <g>
       <use style="stroke:#000000;stroke-width:0.8;" x="349.452" xlink:href="#m0e947b7c28" y="93.861818"/>
      </g>
     </g>
     <g id="text_21">
      <!-- 16 -->
      <defs>
       <path d="M 33.015625 40.375 
Q 26.375 40.375 22.484375 35.828125 
Q 18.609375 31.296875 18.609375 23.390625 
Q 18.609375 15.53125 22.484375 10.953125 
Q 26.375 6.390625 33.015625 6.390625 
Q 39.65625 6.390625 43.53125 10.953125 
Q 47.40625 15.53125 47.40625 23.390625 
Q 47.40625 31.296875 43.53125 35.828125 
Q 39.65625 40.375 33.015625 40.375 
z
M 52.59375 71.296875 
L 52.59375 62.3125 
Q 48.875 64.0625 45.09375 64.984375 
Q 41.3125 65.921875 37.59375 65.921875 
Q 27.828125 65.921875 22.671875 59.328125 
Q 17.53125 52.734375 16.796875 39.40625 
Q 19.671875 43.65625 24.015625 45.921875 
Q 28.375 48.1875 33.59375 48.1875 
Q 44.578125 48.1875 50.953125 41.515625 
Q 57.328125 34.859375 57.328125 23.390625 
Q 57.328125 12.15625 50.6875 5.359375 
Q 44.046875 -1.421875 33.015625 -1.421875 
Q 20.359375 -1.421875 13.671875 8.265625 
Q 6.984375 17.96875 6.984375 36.375 
Q 6.984375 53.65625 15.1875 63.9375 
Q 23.390625 74.21875 37.203125 74.21875 
Q 40.921875 74.21875 44.703125 73.484375 
Q 48.484375 72.75 52.59375 71.296875 
z
" id="DejaVuSans-54"/>
      </defs>
      <g transform="translate(356.452 98.800803)scale(0.13 -0.13)">
       <use xlink:href="#DejaVuSans-49"/>
       <use x="63.623047" xlink:href="#DejaVuSans-54"/>
      </g>
     </g>
    </g>
    <g id="ytick_15">
     <g id="line2d_19">
      <g>
       <use style="stroke:#000000;stroke-width:0.8;" x="349.452" xlink:href="#m0e947b7c28" y="54.327273"/>
      </g>
     </g>
     <g id="text_22">
      <!-- 20 -->
      <g transform="translate(356.452 59.266257)scale(0.13 -0.13)">
       <use xlink:href="#DejaVuSans-50"/>
       <use x="63.623047" xlink:href="#DejaVuSans-48"/>
      </g>
     </g>
    </g>
   </g>
   <g id="patch_8">
    <path d="M 338.58 252 
L 338.58 232.232727 
L 338.58 54.327273 
L 338.58 34.56 
L 349.452 34.56 
L 349.452 54.327273 
L 349.452 232.232727 
L 349.452 252 
z
" style="fill:none;stroke:#000000;stroke-linejoin:miter;stroke-width:0.8;"/>
   </g>
  </g>
 </g>
 <defs>
  <clipPath id="p98a7dc3e4d">
   <rect height="217.44" width="267.84" x="54" y="34.56"/>
  </clipPath>
  <clipPath id="paa9f5bf924">
   <rect height="217.44" width="10.872" x="338.58" y="34.56"/>
  </clipPath>
 </defs>
</svg>
