<?xml version="1.0" encoding="utf-8" standalone="no"?>
<!DOCTYPE svg PUBLIC "-//W3C//DTD SVG 1.1//EN"
  "http://www.w3.org/Graphics/SVG/1.1/DTD/svg11.dtd">
<!-- Created with matplotlib (https://matplotlib.org/) -->
<svg height="288pt" version="1.1" viewBox="0 0 432 288" width="432pt" xmlns="http://www.w3.org/2000/svg" xmlns:xlink="http://www.w3.org/1999/xlink">
 <defs>
  <style type="text/css">
*{stroke-linecap:butt;stroke-linejoin:round;white-space:pre;}
  </style>
 </defs>
 <g id="figure_1">
  <g id="patch_1">
   <path d="M 0 288 
L 432 288 
L 432 0 
L 0 0 
z
" style="fill:#ffffff;"/>
  </g>
  <g id="axes_1">
   <g id="patch_2">
    <path d="M 54 252 
L 321.84 252 
L 321.84 34.56 
L 54 34.56 
z
" style="fill:#ffffff;"/>
   </g>
   <g id="PathCollection_1">
    <path clip-path="url(#p6e5442378c)" d="M 56.705455 252 
L 59.410909 252 
L 62.116364 252 
L 64.821818 252 
L 67.527273 252 
L 70.232727 252 
L 72.938182 252 
L 75.643636 252 
L 78.349091 252 
L 81.054545 252 
L 83.76 252 
L 86.465455 252 
L 89.170909 252 
L 91.876364 252 
L 92.300963 252 
L 94.581818 248.800779 
L 95.537221 247.562449 
L 97.287273 245.082587 
L 98.773731 243.124898 
L 99.992727 241.382023 
L 102.010445 238.687347 
L 102.698182 237.696231 
L 105.247325 234.249796 
L 105.403636 234.022938 
L 108.109091 230.299254 
L 108.4837 229.812245 
L 110.814545 226.566174 
L 111.720004 225.374694 
L 113.52 222.848127 
L 114.956491 220.937143 
L 116.225455 219.143196 
L 118.193132 216.499592 
L 118.930909 215.449774 
L 121.429908 212.062041 
L 121.636364 211.766508 
L 124.341818 208.051332 
L 124.666368 207.62449 
L 127.047273 204.322104 
L 127.902702 203.186939 
L 129.752727 200.604474 
L 131.139177 198.749388 
L 132.458182 196.897263 
L 134.375779 194.311837 
L 135.163636 193.199446 
L 137.612492 189.874286 
L 137.869091 189.51013 
L 140.574545 185.800319 
L 140.849005 185.436735 
L 143.28 182.073655 
L 144.085359 180.999184 
L 145.985455 178.356423 
L 147.321829 176.561633 
L 148.690909 174.647827 
L 150.558405 172.124082 
L 151.396364 170.947157 
L 153.795075 167.686531 
L 154.101818 167.253779 
L 156.807273 163.54766 
L 157.031626 163.24898 
L 159.512727 159.822823 
L 160.267994 158.811429 
L 162.218182 156.10593 
L 163.504461 154.373878 
L 164.923636 152.396408 
L 166.741019 149.936327 
L 167.629091 148.693737 
L 169.977659 145.498776 
L 170.334545 144.997444 
L 173.04 141.294021 
L 173.214237 141.061224 
L 175.745455 137.570551 
L 176.450616 136.623673 
L 178.450909 133.853941 
L 179.687081 132.186122 
L 181.156364 130.143758 
L 182.923625 127.748571 
L 183.861818 126.439606 
L 186.160243 123.31102 
L 186.567273 122.741119 
L 189.272727 119.039751 
L 189.396842 118.873469 
L 191.978182 115.317341 
L 192.63323 114.435918 
L 194.683636 111.600967 
L 195.869693 109.998367 
L 197.389091 107.890291 
L 199.106227 105.560816 
L 200.094545 104.184999 
L 202.342827 101.123265 
L 202.8 100.484801 
L 205.505455 96.785052 
L 205.579442 96.685714 
L 208.210909 93.063488 
L 208.815837 92.248163 
L 210.916364 89.347312 
L 212.052299 87.810612 
L 213.621818 85.636253 
L 215.288825 83.373061 
L 216.327273 81.930057 
L 218.52541 78.93551 
L 219.032727 78.228487 
L 221.738182 74.530046 
L 221.762039 74.497959 
L 224.443636 70.809174 
L 224.99844 70.060408 
L 227.149091 67.093167 
L 228.234901 65.622857 
L 229.854545 63.381803 
L 231.47142 61.185306 
L 232.56 59.674872 
L 234.707994 56.747755 
L 235.265455 55.972177 
L 237.94462 52.310204 
L 237.970909 52.273534 
L 240.676364 48.554518 
L 241.181039 47.872653 
L 243.381818 44.838656 
L 244.4175 43.435102 
L 246.087273 41.127043 
L 247.654014 38.997551 
L 248.792727 37.419503 
L 250.890578 34.56 
L 248.792727 34.56 
L 246.087273 34.56 
L 243.381818 34.56 
L 240.676364 34.56 
L 237.970909 34.56 
L 235.265455 34.56 
L 232.56 34.56 
L 229.854545 34.56 
L 227.149091 34.56 
L 224.443636 34.56 
L 221.738182 34.56 
L 219.032727 34.56 
L 216.327273 34.56 
L 213.621818 34.56 
L 210.916364 34.56 
L 208.210909 34.56 
L 205.505455 34.56 
L 202.8 34.56 
L 200.094545 34.56 
L 197.389091 34.56 
L 194.683636 34.56 
L 191.978182 34.56 
L 189.272727 34.56 
L 186.567273 34.56 
L 183.861818 34.56 
L 181.156364 34.56 
L 178.450909 34.56 
L 175.745455 34.56 
L 173.04 34.56 
L 170.334545 34.56 
L 167.629091 34.56 
L 164.923636 34.56 
L 162.218182 34.56 
L 159.512727 34.56 
L 156.807273 34.56 
L 154.101818 34.56 
L 151.396364 34.56 
L 148.690909 34.56 
L 145.985455 34.56 
L 143.28 34.56 
L 140.574545 34.56 
L 137.869091 34.56 
L 135.163636 34.56 
L 132.458182 34.56 
L 129.752727 34.56 
L 127.047273 34.56 
L 124.341818 34.56 
L 121.636364 34.56 
L 118.930909 34.56 
L 116.225455 34.56 
L 113.52 34.56 
L 110.814545 34.56 
L 108.109091 34.56 
L 105.403636 34.56 
L 102.698182 34.56 
L 99.992727 34.56 
L 97.287273 34.56 
L 94.581818 34.56 
L 91.876364 34.56 
L 89.170909 34.56 
L 86.465455 34.56 
L 83.76 34.56 
L 81.054545 34.56 
L 78.349091 34.56 
L 75.643636 34.56 
L 72.938182 34.56 
L 70.232727 34.56 
L 67.527273 34.56 
L 64.821818 34.56 
L 62.116364 34.56 
L 59.410909 34.56 
L 56.705455 34.56 
L 54 34.56 
L 54 38.997551 
L 54 43.435102 
L 54 47.872653 
L 54 52.310204 
L 54 56.747755 
L 54 61.185306 
L 54 65.622857 
L 54 70.060408 
L 54 74.497959 
L 54 78.93551 
L 54 83.373061 
L 54 87.810612 
L 54 92.248163 
L 54 96.685714 
L 54 101.123265 
L 54 105.560816 
L 54 109.998367 
L 54 114.435918 
L 54 118.873469 
L 54 123.31102 
L 54 127.748571 
L 54 132.186122 
L 54 136.623673 
L 54 141.061224 
L 54 145.498776 
L 54 149.936327 
L 54 154.373878 
L 54 158.811429 
L 54 163.24898 
L 54 167.686531 
L 54 172.124082 
L 54 176.561633 
L 54 180.999184 
L 54 185.436735 
L 54 189.874286 
L 54 194.311837 
L 54 198.749388 
L 54 203.186939 
L 54 207.62449 
L 54 212.062041 
L 54 216.499592 
L 54 220.937143 
L 54 225.374694 
L 54 229.812245 
L 54 234.249796 
L 54 238.687347 
L 54 243.124898 
L 54 247.562449 
L 54 252 
z
" style="fill:#feeae1;"/>
   </g>
   <g id="PathCollection_2">
    <path clip-path="url(#p6e5442378c)" d="M 94.581818 252 
L 97.287273 252 
L 99.992727 252 
L 102.698182 252 
L 105.403636 252 
L 108.109091 252 
L 110.814545 252 
L 113.52 252 
L 116.225455 252 
L 118.930909 252 
L 121.636364 252 
L 124.341818 252 
L 127.047273 252 
L 129.752727 252 
L 130.588744 252 
L 132.458182 250.620921 
L 135.163636 248.738265 
L 136.950821 247.562449 
L 137.869091 246.880251 
L 140.574545 244.954263 
L 143.28 243.146556 
L 143.313426 243.124898 
L 145.985455 241.185324 
L 148.690909 239.334539 
L 149.675005 238.687347 
L 151.396364 237.428976 
L 154.101818 235.539362 
L 156.037156 234.249796 
L 156.807273 233.683257 
L 159.512727 231.758471 
L 162.218182 229.931465 
L 162.399519 229.812245 
L 164.923636 227.989802 
L 167.629091 226.127713 
L 168.761253 225.374694 
L 170.334545 224.231673 
L 173.04 222.337411 
L 175.123454 220.937143 
L 175.745455 220.482695 
L 178.450909 218.558825 
L 181.156364 216.718291 
L 181.485649 216.499592 
L 183.861818 214.790508 
L 186.567273 212.92039 
L 187.847494 212.062041 
L 189.272727 211.031242 
L 191.978182 209.133656 
L 194.209732 207.62449 
L 194.683636 207.279992 
L 197.389091 205.35684 
L 200.094545 203.506294 
L 200.571803 203.186939 
L 202.8 201.58887 
L 205.505455 199.712752 
L 206.933729 198.749388 
L 208.210909 197.828824 
L 210.916364 195.928744 
L 213.295996 194.311837 
L 213.621818 194.075904 
L 216.327273 192.153326 
L 219.032727 190.295073 
L 219.657971 189.874286 
L 221.738182 188.385674 
L 224.443636 186.504905 
L 226.01996 185.436735 
L 227.149091 184.625066 
L 229.854545 182.723046 
L 232.38225 180.999184 
L 232.56 180.870868 
L 235.265455 178.948759 
L 237.970909 177.084389 
L 238.74415 176.561633 
L 240.676364 175.181392 
L 243.381818 173.29691 
L 245.10619 172.124082 
L 246.087273 171.420363 
L 248.792727 169.51679 
L 251.468498 167.686531 
L 251.498182 167.665156 
L 254.203636 165.743437 
L 256.909091 163.874094 
L 257.830337 163.24898 
L 259.614545 161.976321 
L 262.32 160.088808 
L 264.192418 158.811429 
L 265.025455 158.214966 
L 267.730909 156.310123 
L 270.436364 154.453979 
L 270.554655 154.373878 
L 273.141818 152.537554 
L 275.847273 150.664088 
L 276.916529 149.936327 
L 278.552727 148.770661 
L 281.258182 146.880625 
L 283.278644 145.498776 
L 283.963636 145.009046 
L 286.669091 143.103145 
L 289.374545 141.242071 
L 289.640802 141.061224 
L 292.08 139.331242 
L 294.785455 137.454304 
L 296.002726 136.623673 
L 297.490909 135.564547 
L 300.196364 133.672381 
L 302.364869 132.186122 
L 302.901818 131.802723 
L 305.607273 129.895926 
L 308.312727 128.030655 
L 308.72696 127.748571 
L 311.018182 126.124597 
L 313.723636 124.244693 
L 315.088926 123.31102 
L 316.429091 122.358078 
L 319.134545 120.464087 
L 321.451094 118.873469 
L 321.84 118.596081 
L 321.84 114.435918 
L 321.84 109.998367 
L 321.84 105.560816 
L 321.84 101.123265 
L 321.84 96.685714 
L 321.84 92.248163 
L 321.84 87.810612 
L 321.84 83.373061 
L 321.84 78.93551 
L 321.84 74.497959 
L 321.84 70.060408 
L 321.84 65.622857 
L 321.84 61.185306 
L 321.84 56.747755 
L 321.84 52.310204 
L 321.84 47.872653 
L 321.84 43.435102 
L 321.84 38.997551 
L 321.84 34.56 
L 319.134545 34.56 
L 316.429091 34.56 
L 313.723636 34.56 
L 311.018182 34.56 
L 308.312727 34.56 
L 305.607273 34.56 
L 302.901818 34.56 
L 300.196364 34.56 
L 297.490909 34.56 
L 294.785455 34.56 
L 292.08 34.56 
L 289.374545 34.56 
L 286.669091 34.56 
L 283.963636 34.56 
L 281.258182 34.56 
L 278.552727 34.56 
L 275.847273 34.56 
L 273.141818 34.56 
L 270.436364 34.56 
L 267.730909 34.56 
L 265.025455 34.56 
L 262.32 34.56 
L 259.614545 34.56 
L 256.909091 34.56 
L 254.203636 34.56 
L 251.498182 34.56 
L 250.890578 34.56 
L 248.792727 37.419503 
L 247.654014 38.997551 
L 246.087273 41.127043 
L 244.4175 43.435102 
L 243.381818 44.838656 
L 241.181039 47.872653 
L 240.676364 48.554518 
L 237.970909 52.273534 
L 237.94462 52.310204 
L 235.265455 55.972177 
L 234.707994 56.747755 
L 232.56 59.674872 
L 231.47142 61.185306 
L 229.854545 63.381803 
L 228.234901 65.622857 
L 227.149091 67.093167 
L 224.99844 70.060408 
L 224.443636 70.809174 
L 221.762039 74.497959 
L 221.738182 74.530046 
L 219.032727 78.228487 
L 218.52541 78.93551 
L 216.327273 81.930057 
L 215.288825 83.373061 
L 213.621818 85.636253 
L 212.052299 87.810612 
L 210.916364 89.347312 
L 208.815837 92.248163 
L 208.210909 93.063488 
L 205.579442 96.685714 
L 205.505455 96.785052 
L 202.8 100.484801 
L 202.342827 101.123265 
L 200.094545 104.184999 
L 199.106227 105.560816 
L 197.389091 107.890291 
L 195.869693 109.998367 
L 194.683636 111.600967 
L 192.63323 114.435918 
L 191.978182 115.317341 
L 189.396842 118.873469 
L 189.272727 119.039751 
L 186.567273 122.741119 
L 186.160243 123.31102 
L 183.861818 126.439606 
L 182.923625 127.748571 
L 181.156364 130.143758 
L 179.687081 132.186122 
L 178.450909 133.853941 
L 176.450616 136.623673 
L 175.745455 137.570551 
L 173.214237 141.061224 
L 173.04 141.294021 
L 170.334545 144.997444 
L 169.977659 145.498776 
L 167.629091 148.693737 
L 166.741019 149.936327 
L 164.923636 152.396408 
L 163.504461 154.373878 
L 162.218182 156.10593 
L 160.267994 158.811429 
L 159.512727 159.822823 
L 157.031626 163.24898 
L 156.807273 163.54766 
L 154.101818 167.253779 
L 153.795075 167.686531 
L 151.396364 170.947157 
L 150.558405 172.124082 
L 148.690909 174.647827 
L 147.321829 176.561633 
L 145.985455 178.356423 
L 144.085359 180.999184 
L 143.28 182.073655 
L 140.849005 185.436735 
L 140.574545 185.800319 
L 137.869091 189.51013 
L 137.612492 189.874286 
L 135.163636 193.199446 
L 134.375779 194.311837 
L 132.458182 196.897263 
L 131.139177 198.749388 
L 129.752727 200.604474 
L 127.902702 203.186939 
L 127.047273 204.322104 
L 124.666368 207.62449 
L 124.341818 208.051332 
L 121.636364 211.766508 
L 121.429908 212.062041 
L 118.930909 215.449774 
L 118.193132 216.499592 
L 116.225455 219.143196 
L 114.956491 220.937143 
L 113.52 222.848127 
L 111.720004 225.374694 
L 110.814545 226.566174 
L 108.4837 229.812245 
L 108.109091 230.299254 
L 105.403636 234.022938 
L 105.247325 234.249796 
L 102.698182 237.696231 
L 102.010445 238.687347 
L 99.992727 241.382023 
L 98.773731 243.124898 
L 97.287273 245.082587 
L 95.537221 247.562449 
L 94.581818 248.800779 
L 92.300963 252 
z
" style="fill:#fdcdb9;"/>
   </g>
   <g id="PathCollection_3">
    <path clip-path="url(#p6e5442378c)" d="M 132.458182 252 
L 135.163636 252 
L 137.869091 252 
L 140.574545 252 
L 143.28 252 
L 145.985455 252 
L 148.690909 252 
L 151.396364 252 
L 154.101818 252 
L 156.807273 252 
L 159.512727 252 
L 162.218182 252 
L 164.923636 252 
L 167.629091 252 
L 167.803141 252 
L 170.334545 250.732763 
L 173.04 249.439278 
L 175.745455 248.204655 
L 177.202689 247.562449 
L 178.450909 246.933876 
L 181.156364 245.614286 
L 183.861818 244.351018 
L 186.567273 243.140608 
L 186.603123 243.124898 
L 189.272727 241.800308 
L 191.978182 240.511507 
L 194.683636 239.27354 
L 196.002626 238.687347 
L 197.389091 237.995495 
L 200.094545 236.683795 
L 202.8 235.421026 
L 205.402956 234.249796 
L 205.505455 234.198389 
L 208.210909 232.866039 
L 210.916364 231.580833 
L 213.621818 230.340358 
L 214.802556 229.812245 
L 216.327273 229.056761 
L 219.032727 227.751161 
L 221.738182 226.488814 
L 224.202765 225.374694 
L 224.443636 225.254762 
L 227.149091 223.930547 
L 229.854545 222.648186 
L 232.56 221.405761 
L 233.602481 220.937143 
L 235.265455 220.117785 
L 237.970909 218.817042 
L 240.676364 217.555053 
L 243.002593 216.499592 
L 243.381818 216.311875 
L 246.087273 214.994191 
L 248.792727 213.714137 
L 251.498182 212.470154 
L 252.402403 212.062041 
L 254.203636 211.178635 
L 256.909091 209.88185 
L 259.614545 208.620168 
L 261.802436 207.62449 
L 262.32 207.369527 
L 265.025455 206.057203 
L 267.730909 204.779058 
L 270.436364 203.5338 
L 271.202322 203.186939 
L 273.141818 202.239355 
L 275.847273 200.945858 
L 278.552727 199.684442 
L 280.602289 198.749388 
L 281.258182 198.427584 
L 283.963636 197.119737 
L 286.669091 195.843199 
L 289.374545 194.596878 
L 290.00224 194.311837 
L 292.08 193.299977 
L 294.785455 192.009255 
L 297.490909 190.74807 
L 299.402151 189.874286 
L 300.196364 189.485954 
L 302.901818 188.181903 
L 305.607273 186.906733 
L 308.312727 185.659515 
L 308.802155 185.436735 
L 311.018182 184.360522 
L 313.723636 183.072173 
L 316.429091 181.811191 
L 318.202019 180.999184 
L 319.134545 180.544569 
L 321.84 179.243777 
L 321.84 176.561633 
L 321.84 172.124082 
L 321.84 167.686531 
L 321.84 163.24898 
L 321.84 158.811429 
L 321.84 154.373878 
L 321.84 149.936327 
L 321.84 145.498776 
L 321.84 141.061224 
L 321.84 136.623673 
L 321.84 132.186122 
L 321.84 127.748571 
L 321.84 123.31102 
L 321.84 118.873469 
L 321.84 118.596081 
L 321.451094 118.873469 
L 319.134545 120.464087 
L 316.429091 122.358078 
L 315.088926 123.31102 
L 313.723636 124.244693 
L 311.018182 126.124597 
L 308.72696 127.748571 
L 308.312727 128.030655 
L 305.607273 129.895926 
L 302.901818 131.802723 
L 302.364869 132.186122 
L 300.196364 133.672381 
L 297.490909 135.564547 
L 296.002726 136.623673 
L 294.785455 137.454304 
L 292.08 139.331242 
L 289.640802 141.061224 
L 289.374545 141.242071 
L 286.669091 143.103145 
L 283.963636 145.009046 
L 283.278644 145.498776 
L 281.258182 146.880625 
L 278.552727 148.770661 
L 276.916529 149.936327 
L 275.847273 150.664088 
L 273.141818 152.537554 
L 270.554655 154.373878 
L 270.436364 154.453979 
L 267.730909 156.310123 
L 265.025455 158.214966 
L 264.192418 158.811429 
L 262.32 160.088808 
L 259.614545 161.976321 
L 257.830337 163.24898 
L 256.909091 163.874094 
L 254.203636 165.743437 
L 251.498182 167.665156 
L 251.468498 167.686531 
L 248.792727 169.51679 
L 246.087273 171.420363 
L 245.10619 172.124082 
L 243.381818 173.29691 
L 240.676364 175.181392 
L 238.74415 176.561633 
L 237.970909 177.084389 
L 235.265455 178.948759 
L 232.56 180.870868 
L 232.38225 180.999184 
L 229.854545 182.723046 
L 227.149091 184.625066 
L 226.01996 185.436735 
L 224.443636 186.504905 
L 221.738182 188.385674 
L 219.657971 189.874286 
L 219.032727 190.295073 
L 216.327273 192.153326 
L 213.621818 194.075904 
L 213.295996 194.311837 
L 210.916364 195.928744 
L 208.210909 197.828824 
L 206.933729 198.749388 
L 205.505455 199.712752 
L 202.8 201.58887 
L 200.571803 203.186939 
L 200.094545 203.506294 
L 197.389091 205.35684 
L 194.683636 207.279992 
L 194.209732 207.62449 
L 191.978182 209.133656 
L 189.272727 211.031242 
L 187.847494 212.062041 
L 186.567273 212.92039 
L 183.861818 214.790508 
L 181.485649 216.499592 
L 181.156364 216.718291 
L 178.450909 218.558825 
L 175.745455 220.482695 
L 175.123454 220.937143 
L 173.04 222.337411 
L 170.334545 224.231673 
L 168.761253 225.374694 
L 167.629091 226.127713 
L 164.923636 227.989802 
L 162.399519 229.812245 
L 162.218182 229.931465 
L 159.512727 231.758471 
L 156.807273 233.683257 
L 156.037156 234.249796 
L 154.101818 235.539362 
L 151.396364 237.428976 
L 149.675005 238.687347 
L 148.690909 239.334539 
L 145.985455 241.185324 
L 143.313426 243.124898 
L 143.28 243.146556 
L 140.574545 244.954263 
L 137.869091 246.880251 
L 136.950821 247.562449 
L 135.163636 248.738265 
L 132.458182 250.620921 
L 130.588744 252 
z
" style="fill:#fca689;"/>
   </g>
   <g id="PathCollection_4">
    <path clip-path="url(#p6e5442378c)" d="M 170.334545 252 
L 173.04 252 
L 175.745455 252 
L 178.450909 252 
L 181.156364 252 
L 183.861818 252 
L 186.567273 252 
L 189.272727 252 
L 191.978182 252 
L 194.683636 252 
L 197.389091 252 
L 200.094545 252 
L 202.8 252 
L 204.171319 252 
L 205.505455 251.485628 
L 208.210909 250.470297 
L 210.916364 249.49098 
L 213.621818 248.54582 
L 216.327273 247.63308 
L 216.54045 247.562449 
L 219.032727 246.613207 
L 221.738182 245.615585 
L 224.443636 244.650566 
L 227.149091 243.716597 
L 228.909005 243.124898 
L 229.854545 242.763084 
L 232.56 241.749245 
L 235.265455 240.766575 
L 237.970909 239.813677 
L 240.676364 238.889235 
L 241.277903 238.687347 
L 243.381818 237.890424 
L 246.087273 236.891964 
L 248.792727 235.922086 
L 251.498182 234.979595 
L 253.646723 234.249796 
L 254.203636 234.037914 
L 256.909091 233.025247 
L 259.614545 232.040052 
L 262.32 231.081241 
L 265.025455 230.14778 
L 266.01544 229.812245 
L 267.730909 229.165234 
L 270.436364 228.166155 
L 273.141818 227.192518 
L 275.847273 226.243375 
L 278.384464 225.374694 
L 278.552727 225.310966 
L 281.258182 224.299243 
L 283.963636 223.312079 
L 286.669091 222.348601 
L 289.374545 221.407978 
L 290.753036 220.937143 
L 292.08 220.438372 
L 294.785455 219.438817 
L 297.490909 218.462185 
L 300.196364 217.507708 
L 302.901818 216.574649 
L 303.122039 216.499592 
L 305.607273 215.571814 
L 308.312727 214.58307 
L 311.018182 213.615816 
L 313.723636 212.669367 
L 315.490673 212.062041 
L 316.429091 211.710301 
L 319.134545 210.710369 
L 321.84 209.731296 
L 321.84 207.62449 
L 321.84 203.186939 
L 321.84 198.749388 
L 321.84 194.311837 
L 321.84 189.874286 
L 321.84 185.436735 
L 321.84 180.999184 
L 321.84 179.243777 
L 319.134545 180.544569 
L 318.202019 180.999184 
L 316.429091 181.811191 
L 313.723636 183.072173 
L 311.018182 184.360522 
L 308.802155 185.436735 
L 308.312727 185.659515 
L 305.607273 186.906733 
L 302.901818 188.181903 
L 300.196364 189.485954 
L 299.402151 189.874286 
L 297.490909 190.74807 
L 294.785455 192.009255 
L 292.08 193.299977 
L 290.00224 194.311837 
L 289.374545 194.596878 
L 286.669091 195.843199 
L 283.963636 197.119737 
L 281.258182 198.427584 
L 280.602289 198.749388 
L 278.552727 199.684442 
L 275.847273 200.945858 
L 273.141818 202.239355 
L 271.202322 203.186939 
L 270.436364 203.5338 
L 267.730909 204.779058 
L 265.025455 206.057203 
L 262.32 207.369527 
L 261.802436 207.62449 
L 259.614545 208.620168 
L 256.909091 209.88185 
L 254.203636 211.178635 
L 252.402403 212.062041 
L 251.498182 212.470154 
L 248.792727 213.714137 
L 246.087273 214.994191 
L 243.381818 216.311875 
L 243.002593 216.499592 
L 240.676364 217.555053 
L 237.970909 218.817042 
L 235.265455 220.117785 
L 233.602481 220.937143 
L 232.56 221.405761 
L 229.854545 222.648186 
L 227.149091 223.930547 
L 224.443636 225.254762 
L 224.202765 225.374694 
L 221.738182 226.488814 
L 219.032727 227.751161 
L 216.327273 229.056761 
L 214.802556 229.812245 
L 213.621818 230.340358 
L 210.916364 231.580833 
L 208.210909 232.866039 
L 205.505455 234.198389 
L 205.402956 234.249796 
L 202.8 235.421026 
L 200.094545 236.683795 
L 197.389091 237.995495 
L 196.002626 238.687347 
L 194.683636 239.27354 
L 191.978182 240.511507 
L 189.272727 241.800308 
L 186.603123 243.124898 
L 186.567273 243.140608 
L 183.861818 244.351018 
L 181.156364 245.614286 
L 178.450909 246.933876 
L 177.202689 247.562449 
L 175.745455 248.204655 
L 173.04 249.439278 
L 170.334545 250.732763 
L 167.803141 252 
z
" style="fill:#fb7d5d;"/>
   </g>
   <g id="PathCollection_5">
    <path clip-path="url(#p6e5442378c)" d="M 205.505455 252 
L 208.210909 252 
L 210.916364 252 
L 213.621818 252 
L 216.327273 252 
L 219.032727 252 
L 221.738182 252 
L 224.443636 252 
L 227.149091 252 
L 229.854545 252 
L 232.56 252 
L 235.265455 252 
L 237.970909 252 
L 239.883578 252 
L 240.676364 251.751502 
L 243.381818 250.9193 
L 246.087273 250.111235 
L 248.792727 249.326277 
L 251.498182 248.563448 
L 254.203636 247.821826 
L 255.167638 247.562449 
L 256.909091 247.022142 
L 259.614545 246.201303 
L 262.32 245.402427 
L 265.025455 244.624645 
L 267.730909 243.867134 
L 270.436364 243.129111 
L 270.452002 243.124898 
L 273.141818 242.297659 
L 275.847273 241.486466 
L 278.552727 240.695416 
L 281.258182 239.923768 
L 283.963636 239.170817 
L 285.735813 238.687347 
L 286.669091 238.399216 
L 289.374545 237.577048 
L 292.08 236.774144 
L 294.785455 235.989839 
L 297.490909 235.223494 
L 300.196364 234.474499 
L 301.019911 234.249796 
L 302.901818 233.673114 
L 305.607273 232.85956 
L 308.312727 232.063858 
L 311.018182 231.285427 
L 313.723636 230.523712 
L 316.304161 229.812245 
L 316.429091 229.773824 
L 319.134545 228.950648 
L 321.84 228.14463 
L 321.84 225.374694 
L 321.84 220.937143 
L 321.84 216.499592 
L 321.84 212.062041 
L 321.84 209.731296 
L 319.134545 210.710369 
L 316.429091 211.710301 
L 315.490673 212.062041 
L 313.723636 212.669367 
L 311.018182 213.615816 
L 308.312727 214.58307 
L 305.607273 215.571814 
L 303.122039 216.499592 
L 302.901818 216.574649 
L 300.196364 217.507708 
L 297.490909 218.462185 
L 294.785455 219.438817 
L 292.08 220.438372 
L 290.753036 220.937143 
L 289.374545 221.407978 
L 286.669091 222.348601 
L 283.963636 223.312079 
L 281.258182 224.299243 
L 278.552727 225.310966 
L 278.384464 225.374694 
L 275.847273 226.243375 
L 273.141818 227.192518 
L 270.436364 228.166155 
L 267.730909 229.165234 
L 266.01544 229.812245 
L 265.025455 230.14778 
L 262.32 231.081241 
L 259.614545 232.040052 
L 256.909091 233.025247 
L 254.203636 234.037914 
L 253.646723 234.249796 
L 251.498182 234.979595 
L 248.792727 235.922086 
L 246.087273 236.891964 
L 243.381818 237.890424 
L 241.277903 238.687347 
L 240.676364 238.889235 
L 237.970909 239.813677 
L 235.265455 240.766575 
L 232.56 241.749245 
L 229.854545 242.763084 
L 228.909005 243.124898 
L 227.149091 243.716597 
L 224.443636 244.650566 
L 221.738182 245.615585 
L 219.032727 246.613207 
L 216.54045 247.562449 
L 216.327273 247.63308 
L 213.621818 248.54582 
L 210.916364 249.49098 
L 208.210909 250.470297 
L 205.505455 251.485628 
L 204.171319 252 
z
" style="fill:#f5523a;"/>
   </g>
   <g id="PathCollection_6">
    <path clip-path="url(#p6e5442378c)" d="M 240.676364 252 
L 243.381818 252 
L 246.087273 252 
L 248.792727 252 
L 251.498182 252 
L 254.203636 252 
L 256.909091 252 
L 259.614545 252 
L 262.32 252 
L 265.025455 252 
L 267.730909 252 
L 270.436364 252 
L 273.141818 252 
L 275.10049 252 
L 275.847273 251.802845 
L 278.552727 251.099678 
L 281.258182 250.41371 
L 283.963636 249.74431 
L 286.669091 249.090879 
L 289.374545 248.452842 
L 292.08 247.829653 
L 293.259371 247.562449 
L 294.785455 247.163103 
L 297.490909 246.467678 
L 300.196364 245.787957 
L 302.901818 245.123407 
L 305.607273 244.47352 
L 308.312727 243.837807 
L 311.018182 243.215802 
L 311.418405 243.124898 
L 313.723636 242.526246 
L 316.429091 241.837418 
L 319.134545 241.163036 
L 321.84 240.502644 
L 321.84 238.687347 
L 321.84 234.249796 
L 321.84 229.812245 
L 321.84 228.14463 
L 319.134545 228.950648 
L 316.429091 229.773824 
L 316.304161 229.812245 
L 313.723636 230.523712 
L 311.018182 231.285427 
L 308.312727 232.063858 
L 305.607273 232.85956 
L 302.901818 233.673114 
L 301.019911 234.249796 
L 300.196364 234.474499 
L 297.490909 235.223494 
L 294.785455 235.989839 
L 292.08 236.774144 
L 289.374545 237.577048 
L 286.669091 238.399216 
L 285.735813 238.687347 
L 283.963636 239.170817 
L 281.258182 239.923768 
L 278.552727 240.695416 
L 275.847273 241.486466 
L 273.141818 242.297659 
L 270.452002 243.124898 
L 270.436364 243.129111 
L 267.730909 243.867134 
L 265.025455 244.624645 
L 262.32 245.402427 
L 259.614545 246.201303 
L 256.909091 247.022142 
L 255.167638 247.562449 
L 254.203636 247.821826 
L 251.498182 248.563448 
L 248.792727 249.326277 
L 246.087273 250.111235 
L 243.381818 250.9193 
L 240.676364 251.751502 
L 239.883578 252 
z
" style="fill:#dc2924;"/>
   </g>
   <g id="PathCollection_7">
    <path clip-path="url(#p6e5442378c)" d="M 275.847273 252 
L 278.552727 252 
L 281.258182 252 
L 283.963636 252 
L 286.669091 252 
L 289.374545 252 
L 292.08 252 
L 294.785455 252 
L 297.490909 252 
L 300.196364 252 
L 302.901818 252 
L 305.607273 252 
L 308.312727 252 
L 309.963442 252 
L 311.018182 251.759552 
L 313.723636 251.151832 
L 316.429091 250.556915 
L 319.134545 249.974389 
L 321.84 249.403859 
L 321.84 247.562449 
L 321.84 243.124898 
L 321.84 240.502644 
L 319.134545 241.163036 
L 316.429091 241.837418 
L 313.723636 242.526246 
L 311.418405 243.124898 
L 311.018182 243.215802 
L 308.312727 243.837807 
L 305.607273 244.47352 
L 302.901818 245.123407 
L 300.196364 245.787957 
L 297.490909 246.467678 
L 294.785455 247.163103 
L 293.259371 247.562449 
L 292.08 247.829653 
L 289.374545 248.452842 
L 286.669091 249.090879 
L 283.963636 249.74431 
L 281.258182 250.41371 
L 278.552727 251.099678 
L 275.847273 251.802845 
L 275.10049 252 
z
" style="fill:#b71319;"/>
   </g>
   <g id="PathCollection_8">
    <path clip-path="url(#p6e5442378c)" d="M 311.018182 252 
L 313.723636 252 
L 316.429091 252 
L 319.134545 252 
L 321.84 252 
L 321.84 249.403859 
L 319.134545 249.974389 
L 316.429091 250.556915 
L 313.723636 251.151832 
L 311.018182 251.759552 
L 309.963442 252 
z
" style="fill:#840711;"/>
   </g>
   <g id="matplotlib.axis_1">
    <g id="xtick_1">
     <g id="line2d_1">
      <defs>
       <path d="M 0 0 
L 0 3.5 
" id="m3243eb9525" style="stroke:#000000;stroke-width:0.8;"/>
      </defs>
      <g>
       <use style="stroke:#000000;stroke-width:0.8;" x="119.950553" xlink:href="#m3243eb9525" y="252"/>
      </g>
     </g>
     <g id="text_1">
      <!-- 50 -->
      <defs>
       <path d="M 10.796875 72.90625 
L 49.515625 72.90625 
L 49.515625 64.59375 
L 19.828125 64.59375 
L 19.828125 46.734375 
Q 21.96875 47.46875 24.109375 47.828125 
Q 26.265625 48.1875 28.421875 48.1875 
Q 40.625 48.1875 47.75 41.5 
Q 54.890625 34.8125 54.890625 23.390625 
Q 54.890625 11.625 47.5625 5.09375 
Q 40.234375 -1.421875 26.90625 -1.421875 
Q 22.3125 -1.421875 17.546875 -0.640625 
Q 12.796875 0.140625 7.71875 1.703125 
L 7.71875 11.625 
Q 12.109375 9.234375 16.796875 8.0625 
Q 21.484375 6.890625 26.703125 6.890625 
Q 35.15625 6.890625 40.078125 11.328125 
Q 45.015625 15.765625 45.015625 23.390625 
Q 45.015625 31 40.078125 35.4375 
Q 35.15625 39.890625 26.703125 39.890625 
Q 22.75 39.890625 18.8125 39.015625 
Q 14.890625 38.140625 10.796875 36.28125 
z
" id="DejaVuSans-53"/>
       <path d="M 31.78125 66.40625 
Q 24.171875 66.40625 20.328125 58.90625 
Q 16.5 51.421875 16.5 36.375 
Q 16.5 21.390625 20.328125 13.890625 
Q 24.171875 6.390625 31.78125 6.390625 
Q 39.453125 6.390625 43.28125 13.890625 
Q 47.125 21.390625 47.125 36.375 
Q 47.125 51.421875 43.28125 58.90625 
Q 39.453125 66.40625 31.78125 66.40625 
z
M 31.78125 74.21875 
Q 44.046875 74.21875 50.515625 64.515625 
Q 56.984375 54.828125 56.984375 36.375 
Q 56.984375 17.96875 50.515625 8.265625 
Q 44.046875 -1.421875 31.78125 -1.421875 
Q 19.53125 -1.421875 13.0625 8.265625 
Q 6.59375 17.96875 6.59375 36.375 
Q 6.59375 54.828125 13.0625 64.515625 
Q 19.53125 74.21875 31.78125 74.21875 
z
" id="DejaVuSans-48"/>
      </defs>
      <g transform="translate(111.679303 268.877969)scale(0.13 -0.13)">
       <use xlink:href="#DejaVuSans-53"/>
       <use x="63.623047" xlink:href="#DejaVuSans-48"/>
      </g>
     </g>
    </g>
    <g id="xtick_2">
     <g id="line2d_2">
      <g>
       <use style="stroke:#000000;stroke-width:0.8;" x="187.247035" xlink:href="#m3243eb9525" y="252"/>
      </g>
     </g>
     <g id="text_2">
      <!-- 100 -->
      <defs>
       <path d="M 12.40625 8.296875 
L 28.515625 8.296875 
L 28.515625 63.921875 
L 10.984375 60.40625 
L 10.984375 69.390625 
L 28.421875 72.90625 
L 38.28125 72.90625 
L 38.28125 8.296875 
L 54.390625 8.296875 
L 54.390625 0 
L 12.40625 0 
z
" id="DejaVuSans-49"/>
      </defs>
      <g transform="translate(174.84016 268.877969)scale(0.13 -0.13)">
       <use xlink:href="#DejaVuSans-49"/>
       <use x="63.623047" xlink:href="#DejaVuSans-48"/>
       <use x="127.246094" xlink:href="#DejaVuSans-48"/>
      </g>
     </g>
    </g>
    <g id="xtick_3">
     <g id="line2d_3">
      <g>
       <use style="stroke:#000000;stroke-width:0.8;" x="254.543518" xlink:href="#m3243eb9525" y="252"/>
      </g>
     </g>
     <g id="text_3">
      <!-- 150 -->
      <g transform="translate(242.136643 268.877969)scale(0.13 -0.13)">
       <use xlink:href="#DejaVuSans-49"/>
       <use x="63.623047" xlink:href="#DejaVuSans-53"/>
       <use x="127.246094" xlink:href="#DejaVuSans-48"/>
      </g>
     </g>
    </g>
    <g id="xtick_4">
     <g id="line2d_4">
      <g>
       <use style="stroke:#000000;stroke-width:0.8;" x="321.84" xlink:href="#m3243eb9525" y="252"/>
      </g>
     </g>
     <g id="text_4">
      <!-- 200 -->
      <defs>
       <path d="M 19.1875 8.296875 
L 53.609375 8.296875 
L 53.609375 0 
L 7.328125 0 
L 7.328125 8.296875 
Q 12.9375 14.109375 22.625 23.890625 
Q 32.328125 33.6875 34.8125 36.53125 
Q 39.546875 41.84375 41.421875 45.53125 
Q 43.3125 49.21875 43.3125 52.78125 
Q 43.3125 58.59375 39.234375 62.25 
Q 35.15625 65.921875 28.609375 65.921875 
Q 23.96875 65.921875 18.8125 64.3125 
Q 13.671875 62.703125 7.8125 59.421875 
L 7.8125 69.390625 
Q 13.765625 71.78125 18.9375 73 
Q 24.125 74.21875 28.421875 74.21875 
Q 39.75 74.21875 46.484375 68.546875 
Q 53.21875 62.890625 53.21875 53.421875 
Q 53.21875 48.921875 51.53125 44.890625 
Q 49.859375 40.875 45.40625 35.40625 
Q 44.1875 33.984375 37.640625 27.21875 
Q 31.109375 20.453125 19.1875 8.296875 
z
" id="DejaVuSans-50"/>
      </defs>
      <g transform="translate(309.433125 268.877969)scale(0.13 -0.13)">
       <use xlink:href="#DejaVuSans-50"/>
       <use x="63.623047" xlink:href="#DejaVuSans-48"/>
       <use x="127.246094" xlink:href="#DejaVuSans-48"/>
      </g>
     </g>
    </g>
    <g id="text_5">
     <!-- Grid Size [km] -->
     <defs>
      <path d="M 59.515625 10.40625 
L 59.515625 29.984375 
L 43.40625 29.984375 
L 43.40625 38.09375 
L 69.28125 38.09375 
L 69.28125 6.78125 
Q 63.578125 2.734375 56.6875 0.65625 
Q 49.8125 -1.421875 42 -1.421875 
Q 24.90625 -1.421875 15.25 8.5625 
Q 5.609375 18.5625 5.609375 36.375 
Q 5.609375 54.25 15.25 64.234375 
Q 24.90625 74.21875 42 74.21875 
Q 49.125 74.21875 55.546875 72.453125 
Q 61.96875 70.703125 67.390625 67.28125 
L 67.390625 56.78125 
Q 61.921875 61.421875 55.765625 63.765625 
Q 49.609375 66.109375 42.828125 66.109375 
Q 29.4375 66.109375 22.71875 58.640625 
Q 16.015625 51.171875 16.015625 36.375 
Q 16.015625 21.625 22.71875 14.15625 
Q 29.4375 6.6875 42.828125 6.6875 
Q 48.046875 6.6875 52.140625 7.59375 
Q 56.25 8.5 59.515625 10.40625 
z
" id="DejaVuSans-71"/>
      <path d="M 41.109375 46.296875 
Q 39.59375 47.171875 37.8125 47.578125 
Q 36.03125 48 33.890625 48 
Q 26.265625 48 22.1875 43.046875 
Q 18.109375 38.09375 18.109375 28.8125 
L 18.109375 0 
L 9.078125 0 
L 9.078125 54.6875 
L 18.109375 54.6875 
L 18.109375 46.1875 
Q 20.953125 51.171875 25.484375 53.578125 
Q 30.03125 56 36.53125 56 
Q 37.453125 56 38.578125 55.875 
Q 39.703125 55.765625 41.0625 55.515625 
z
" id="DejaVuSans-114"/>
      <path d="M 9.421875 54.6875 
L 18.40625 54.6875 
L 18.40625 0 
L 9.421875 0 
z
M 9.421875 75.984375 
L 18.40625 75.984375 
L 18.40625 64.59375 
L 9.421875 64.59375 
z
" id="DejaVuSans-105"/>
      <path d="M 45.40625 46.390625 
L 45.40625 75.984375 
L 54.390625 75.984375 
L 54.390625 0 
L 45.40625 0 
L 45.40625 8.203125 
Q 42.578125 3.328125 38.25 0.953125 
Q 33.9375 -1.421875 27.875 -1.421875 
Q 17.96875 -1.421875 11.734375 6.484375 
Q 5.515625 14.40625 5.515625 27.296875 
Q 5.515625 40.1875 11.734375 48.09375 
Q 17.96875 56 27.875 56 
Q 33.9375 56 38.25 53.625 
Q 42.578125 51.265625 45.40625 46.390625 
z
M 14.796875 27.296875 
Q 14.796875 17.390625 18.875 11.75 
Q 22.953125 6.109375 30.078125 6.109375 
Q 37.203125 6.109375 41.296875 11.75 
Q 45.40625 17.390625 45.40625 27.296875 
Q 45.40625 37.203125 41.296875 42.84375 
Q 37.203125 48.484375 30.078125 48.484375 
Q 22.953125 48.484375 18.875 42.84375 
Q 14.796875 37.203125 14.796875 27.296875 
z
" id="DejaVuSans-100"/>
      <path id="DejaVuSans-32"/>
      <path d="M 53.515625 70.515625 
L 53.515625 60.890625 
Q 47.90625 63.578125 42.921875 64.890625 
Q 37.9375 66.21875 33.296875 66.21875 
Q 25.25 66.21875 20.875 63.09375 
Q 16.5 59.96875 16.5 54.203125 
Q 16.5 49.359375 19.40625 46.890625 
Q 22.3125 44.4375 30.421875 42.921875 
L 36.375 41.703125 
Q 47.40625 39.59375 52.65625 34.296875 
Q 57.90625 29 57.90625 20.125 
Q 57.90625 9.515625 50.796875 4.046875 
Q 43.703125 -1.421875 29.984375 -1.421875 
Q 24.8125 -1.421875 18.96875 -0.25 
Q 13.140625 0.921875 6.890625 3.21875 
L 6.890625 13.375 
Q 12.890625 10.015625 18.65625 8.296875 
Q 24.421875 6.59375 29.984375 6.59375 
Q 38.421875 6.59375 43.015625 9.90625 
Q 47.609375 13.234375 47.609375 19.390625 
Q 47.609375 24.75 44.3125 27.78125 
Q 41.015625 30.8125 33.5 32.328125 
L 27.484375 33.5 
Q 16.453125 35.6875 11.515625 40.375 
Q 6.59375 45.0625 6.59375 53.421875 
Q 6.59375 63.09375 13.40625 68.65625 
Q 20.21875 74.21875 32.171875 74.21875 
Q 37.3125 74.21875 42.625 73.28125 
Q 47.953125 72.359375 53.515625 70.515625 
z
" id="DejaVuSans-83"/>
      <path d="M 5.515625 54.6875 
L 48.1875 54.6875 
L 48.1875 46.484375 
L 14.40625 7.171875 
L 48.1875 7.171875 
L 48.1875 0 
L 4.296875 0 
L 4.296875 8.203125 
L 38.09375 47.515625 
L 5.515625 47.515625 
z
" id="DejaVuSans-122"/>
      <path d="M 56.203125 29.59375 
L 56.203125 25.203125 
L 14.890625 25.203125 
Q 15.484375 15.921875 20.484375 11.0625 
Q 25.484375 6.203125 34.421875 6.203125 
Q 39.59375 6.203125 44.453125 7.46875 
Q 49.3125 8.734375 54.109375 11.28125 
L 54.109375 2.78125 
Q 49.265625 0.734375 44.1875 -0.34375 
Q 39.109375 -1.421875 33.890625 -1.421875 
Q 20.796875 -1.421875 13.15625 6.1875 
Q 5.515625 13.8125 5.515625 26.8125 
Q 5.515625 40.234375 12.765625 48.109375 
Q 20.015625 56 32.328125 56 
Q 43.359375 56 49.78125 48.890625 
Q 56.203125 41.796875 56.203125 29.59375 
z
M 47.21875 32.234375 
Q 47.125 39.59375 43.09375 43.984375 
Q 39.0625 48.390625 32.421875 48.390625 
Q 24.90625 48.390625 20.390625 44.140625 
Q 15.875 39.890625 15.1875 32.171875 
z
" id="DejaVuSans-101"/>
      <path d="M 8.59375 75.984375 
L 29.296875 75.984375 
L 29.296875 69 
L 17.578125 69 
L 17.578125 -6.203125 
L 29.296875 -6.203125 
L 29.296875 -13.1875 
L 8.59375 -13.1875 
z
" id="DejaVuSans-91"/>
      <path d="M 9.078125 75.984375 
L 18.109375 75.984375 
L 18.109375 31.109375 
L 44.921875 54.6875 
L 56.390625 54.6875 
L 27.390625 29.109375 
L 57.625 0 
L 45.90625 0 
L 18.109375 26.703125 
L 18.109375 0 
L 9.078125 0 
z
" id="DejaVuSans-107"/>
      <path d="M 52 44.1875 
Q 55.375 50.25 60.0625 53.125 
Q 64.75 56 71.09375 56 
Q 79.640625 56 84.28125 50.015625 
Q 88.921875 44.046875 88.921875 33.015625 
L 88.921875 0 
L 79.890625 0 
L 79.890625 32.71875 
Q 79.890625 40.578125 77.09375 44.375 
Q 74.3125 48.1875 68.609375 48.1875 
Q 61.625 48.1875 57.5625 43.546875 
Q 53.515625 38.921875 53.515625 30.90625 
L 53.515625 0 
L 44.484375 0 
L 44.484375 32.71875 
Q 44.484375 40.625 41.703125 44.40625 
Q 38.921875 48.1875 33.109375 48.1875 
Q 26.21875 48.1875 22.15625 43.53125 
Q 18.109375 38.875 18.109375 30.90625 
L 18.109375 0 
L 9.078125 0 
L 9.078125 54.6875 
L 18.109375 54.6875 
L 18.109375 46.1875 
Q 21.1875 51.21875 25.484375 53.609375 
Q 29.78125 56 35.6875 56 
Q 41.65625 56 45.828125 52.96875 
Q 50 49.953125 52 44.1875 
z
" id="DejaVuSans-109"/>
      <path d="M 30.421875 75.984375 
L 30.421875 -13.1875 
L 9.71875 -13.1875 
L 9.71875 -6.203125 
L 21.390625 -6.203125 
L 21.390625 69 
L 9.71875 69 
L 9.71875 75.984375 
z
" id="DejaVuSans-93"/>
     </defs>
     <g transform="translate(141.636953 285.459531)scale(0.13 -0.13)">
      <use xlink:href="#DejaVuSans-71"/>
      <use x="77.490234" xlink:href="#DejaVuSans-114"/>
      <use x="118.603516" xlink:href="#DejaVuSans-105"/>
      <use x="146.386719" xlink:href="#DejaVuSans-100"/>
      <use x="209.863281" xlink:href="#DejaVuSans-32"/>
      <use x="241.650391" xlink:href="#DejaVuSans-83"/>
      <use x="305.126953" xlink:href="#DejaVuSans-105"/>
      <use x="332.910156" xlink:href="#DejaVuSans-122"/>
      <use x="385.400391" xlink:href="#DejaVuSans-101"/>
      <use x="446.923828" xlink:href="#DejaVuSans-32"/>
      <use x="478.710938" xlink:href="#DejaVuSans-91"/>
      <use x="517.724609" xlink:href="#DejaVuSans-107"/>
      <use x="575.634766" xlink:href="#DejaVuSans-109"/>
      <use x="673.046875" xlink:href="#DejaVuSans-93"/>
     </g>
    </g>
   </g>
   <g id="matplotlib.axis_2">
    <g id="ytick_1">
     <g id="line2d_5">
      <defs>
       <path d="M 0 0 
L -3.5 0 
" id="me94ce895d0" style="stroke:#000000;stroke-width:0.8;"/>
      </defs>
      <g>
       <use style="stroke:#000000;stroke-width:0.8;" x="54" xlink:href="#me94ce895d0" y="252"/>
      </g>
     </g>
     <g id="text_6">
      <!-- 500 -->
      <g transform="translate(22.18625 256.938984)scale(0.13 -0.13)">
       <use xlink:href="#DejaVuSans-53"/>
       <use x="63.623047" xlink:href="#DejaVuSans-48"/>
       <use x="127.246094" xlink:href="#DejaVuSans-48"/>
      </g>
     </g>
    </g>
    <g id="ytick_2">
     <g id="line2d_6">
      <g>
       <use style="stroke:#000000;stroke-width:0.8;" x="54" xlink:href="#me94ce895d0" y="224.82"/>
      </g>
     </g>
     <g id="text_7">
      <!-- 750 -->
      <defs>
       <path d="M 8.203125 72.90625 
L 55.078125 72.90625 
L 55.078125 68.703125 
L 28.609375 0 
L 18.3125 0 
L 43.21875 64.59375 
L 8.203125 64.59375 
z
" id="DejaVuSans-55"/>
      </defs>
      <g transform="translate(22.18625 229.758984)scale(0.13 -0.13)">
       <use xlink:href="#DejaVuSans-55"/>
       <use x="63.623047" xlink:href="#DejaVuSans-53"/>
       <use x="127.246094" xlink:href="#DejaVuSans-48"/>
      </g>
     </g>
    </g>
    <g id="ytick_3">
     <g id="line2d_7">
      <g>
       <use style="stroke:#000000;stroke-width:0.8;" x="54" xlink:href="#me94ce895d0" y="197.64"/>
      </g>
     </g>
     <g id="text_8">
      <!-- 1000 -->
      <g transform="translate(13.915 202.578984)scale(0.13 -0.13)">
       <use xlink:href="#DejaVuSans-49"/>
       <use x="63.623047" xlink:href="#DejaVuSans-48"/>
       <use x="127.246094" xlink:href="#DejaVuSans-48"/>
       <use x="190.869141" xlink:href="#DejaVuSans-48"/>
      </g>
     </g>
    </g>
    <g id="ytick_4">
     <g id="line2d_8">
      <g>
       <use style="stroke:#000000;stroke-width:0.8;" x="54" xlink:href="#me94ce895d0" y="170.46"/>
      </g>
     </g>
     <g id="text_9">
      <!-- 1250 -->
      <g transform="translate(13.915 175.398984)scale(0.13 -0.13)">
       <use xlink:href="#DejaVuSans-49"/>
       <use x="63.623047" xlink:href="#DejaVuSans-50"/>
       <use x="127.246094" xlink:href="#DejaVuSans-53"/>
       <use x="190.869141" xlink:href="#DejaVuSans-48"/>
      </g>
     </g>
    </g>
    <g id="ytick_5">
     <g id="line2d_9">
      <g>
       <use style="stroke:#000000;stroke-width:0.8;" x="54" xlink:href="#me94ce895d0" y="143.28"/>
      </g>
     </g>
     <g id="text_10">
      <!-- 1500 -->
      <g transform="translate(13.915 148.218984)scale(0.13 -0.13)">
       <use xlink:href="#DejaVuSans-49"/>
       <use x="63.623047" xlink:href="#DejaVuSans-53"/>
       <use x="127.246094" xlink:href="#DejaVuSans-48"/>
       <use x="190.869141" xlink:href="#DejaVuSans-48"/>
      </g>
     </g>
    </g>
    <g id="ytick_6">
     <g id="line2d_10">
      <g>
       <use style="stroke:#000000;stroke-width:0.8;" x="54" xlink:href="#me94ce895d0" y="116.1"/>
      </g>
     </g>
     <g id="text_11">
      <!-- 1750 -->
      <g transform="translate(13.915 121.038984)scale(0.13 -0.13)">
       <use xlink:href="#DejaVuSans-49"/>
       <use x="63.623047" xlink:href="#DejaVuSans-55"/>
       <use x="127.246094" xlink:href="#DejaVuSans-53"/>
       <use x="190.869141" xlink:href="#DejaVuSans-48"/>
      </g>
     </g>
    </g>
    <g id="ytick_7">
     <g id="line2d_11">
      <g>
       <use style="stroke:#000000;stroke-width:0.8;" x="54" xlink:href="#me94ce895d0" y="88.92"/>
      </g>
     </g>
     <g id="text_12">
      <!-- 2000 -->
      <g transform="translate(13.915 93.858984)scale(0.13 -0.13)">
       <use xlink:href="#DejaVuSans-50"/>
       <use x="63.623047" xlink:href="#DejaVuSans-48"/>
       <use x="127.246094" xlink:href="#DejaVuSans-48"/>
       <use x="190.869141" xlink:href="#DejaVuSans-48"/>
      </g>
     </g>
    </g>
    <g id="ytick_8">
     <g id="line2d_12">
      <g>
       <use style="stroke:#000000;stroke-width:0.8;" x="54" xlink:href="#me94ce895d0" y="61.74"/>
      </g>
     </g>
     <g id="text_13">
      <!-- 2250 -->
      <g transform="translate(13.915 66.678984)scale(0.13 -0.13)">
       <use xlink:href="#DejaVuSans-50"/>
       <use x="63.623047" xlink:href="#DejaVuSans-50"/>
       <use x="127.246094" xlink:href="#DejaVuSans-53"/>
       <use x="190.869141" xlink:href="#DejaVuSans-48"/>
      </g>
     </g>
    </g>
    <g id="ytick_9">
     <g id="line2d_13">
      <g>
       <use style="stroke:#000000;stroke-width:0.8;" x="54" xlink:href="#me94ce895d0" y="34.56"/>
      </g>
     </g>
     <g id="text_14">
      <!-- 2500 -->
      <g transform="translate(13.915 39.498984)scale(0.13 -0.13)">
       <use xlink:href="#DejaVuSans-50"/>
       <use x="63.623047" xlink:href="#DejaVuSans-53"/>
       <use x="127.246094" xlink:href="#DejaVuSans-48"/>
       <use x="190.869141" xlink:href="#DejaVuSans-48"/>
      </g>
     </g>
    </g>
    <g id="text_15">
     <!-- Spread Parameter [km] -->
     <defs>
      <path d="M 18.109375 8.203125 
L 18.109375 -20.796875 
L 9.078125 -20.796875 
L 9.078125 54.6875 
L 18.109375 54.6875 
L 18.109375 46.390625 
Q 20.953125 51.265625 25.265625 53.625 
Q 29.59375 56 35.59375 56 
Q 45.5625 56 51.78125 48.09375 
Q 58.015625 40.1875 58.015625 27.296875 
Q 58.015625 14.40625 51.78125 6.484375 
Q 45.5625 -1.421875 35.59375 -1.421875 
Q 29.59375 -1.421875 25.265625 0.953125 
Q 20.953125 3.328125 18.109375 8.203125 
z
M 48.6875 27.296875 
Q 48.6875 37.203125 44.609375 42.84375 
Q 40.53125 48.484375 33.40625 48.484375 
Q 26.265625 48.484375 22.1875 42.84375 
Q 18.109375 37.203125 18.109375 27.296875 
Q 18.109375 17.390625 22.1875 11.75 
Q 26.265625 6.109375 33.40625 6.109375 
Q 40.53125 6.109375 44.609375 11.75 
Q 48.6875 17.390625 48.6875 27.296875 
z
" id="DejaVuSans-112"/>
      <path d="M 34.28125 27.484375 
Q 23.390625 27.484375 19.1875 25 
Q 14.984375 22.515625 14.984375 16.5 
Q 14.984375 11.71875 18.140625 8.90625 
Q 21.296875 6.109375 26.703125 6.109375 
Q 34.1875 6.109375 38.703125 11.40625 
Q 43.21875 16.703125 43.21875 25.484375 
L 43.21875 27.484375 
z
M 52.203125 31.203125 
L 52.203125 0 
L 43.21875 0 
L 43.21875 8.296875 
Q 40.140625 3.328125 35.546875 0.953125 
Q 30.953125 -1.421875 24.3125 -1.421875 
Q 15.921875 -1.421875 10.953125 3.296875 
Q 6 8.015625 6 15.921875 
Q 6 25.140625 12.171875 29.828125 
Q 18.359375 34.515625 30.609375 34.515625 
L 43.21875 34.515625 
L 43.21875 35.40625 
Q 43.21875 41.609375 39.140625 45 
Q 35.0625 48.390625 27.6875 48.390625 
Q 23 48.390625 18.546875 47.265625 
Q 14.109375 46.140625 10.015625 43.890625 
L 10.015625 52.203125 
Q 14.9375 54.109375 19.578125 55.046875 
Q 24.21875 56 28.609375 56 
Q 40.484375 56 46.34375 49.84375 
Q 52.203125 43.703125 52.203125 31.203125 
z
" id="DejaVuSans-97"/>
      <path d="M 19.671875 64.796875 
L 19.671875 37.40625 
L 32.078125 37.40625 
Q 38.96875 37.40625 42.71875 40.96875 
Q 46.484375 44.53125 46.484375 51.125 
Q 46.484375 57.671875 42.71875 61.234375 
Q 38.96875 64.796875 32.078125 64.796875 
z
M 9.8125 72.90625 
L 32.078125 72.90625 
Q 44.34375 72.90625 50.609375 67.359375 
Q 56.890625 61.8125 56.890625 51.125 
Q 56.890625 40.328125 50.609375 34.8125 
Q 44.34375 29.296875 32.078125 29.296875 
L 19.671875 29.296875 
L 19.671875 0 
L 9.8125 0 
z
" id="DejaVuSans-80"/>
      <path d="M 18.3125 70.21875 
L 18.3125 54.6875 
L 36.8125 54.6875 
L 36.8125 47.703125 
L 18.3125 47.703125 
L 18.3125 18.015625 
Q 18.3125 11.328125 20.140625 9.421875 
Q 21.96875 7.515625 27.59375 7.515625 
L 36.8125 7.515625 
L 36.8125 0 
L 27.59375 0 
Q 17.1875 0 13.234375 3.875 
Q 9.28125 7.765625 9.28125 18.015625 
L 9.28125 47.703125 
L 2.6875 47.703125 
L 2.6875 54.6875 
L 9.28125 54.6875 
L 9.28125 70.21875 
z
" id="DejaVuSans-116"/>
     </defs>
     <g transform="translate(7.211406 219.715937)rotate(-90)scale(0.13 -0.13)">
      <use xlink:href="#DejaVuSans-83"/>
      <use x="63.476562" xlink:href="#DejaVuSans-112"/>
      <use x="126.953125" xlink:href="#DejaVuSans-114"/>
      <use x="168.035156" xlink:href="#DejaVuSans-101"/>
      <use x="229.558594" xlink:href="#DejaVuSans-97"/>
      <use x="290.837891" xlink:href="#DejaVuSans-100"/>
      <use x="354.314453" xlink:href="#DejaVuSans-32"/>
      <use x="386.101562" xlink:href="#DejaVuSans-80"/>
      <use x="446.341797" xlink:href="#DejaVuSans-97"/>
      <use x="507.621094" xlink:href="#DejaVuSans-114"/>
      <use x="548.734375" xlink:href="#DejaVuSans-97"/>
      <use x="610.013672" xlink:href="#DejaVuSans-109"/>
      <use x="707.425781" xlink:href="#DejaVuSans-101"/>
      <use x="768.949219" xlink:href="#DejaVuSans-116"/>
      <use x="808.158203" xlink:href="#DejaVuSans-101"/>
      <use x="869.681641" xlink:href="#DejaVuSans-114"/>
      <use x="910.794922" xlink:href="#DejaVuSans-32"/>
      <use x="942.582031" xlink:href="#DejaVuSans-91"/>
      <use x="981.595703" xlink:href="#DejaVuSans-107"/>
      <use x="1039.505859" xlink:href="#DejaVuSans-109"/>
      <use x="1136.917969" xlink:href="#DejaVuSans-93"/>
     </g>
    </g>
   </g>
   <g id="patch_3">
    <path d="M 54 252 
L 54 34.56 
" style="fill:none;stroke:#000000;stroke-linecap:square;stroke-linejoin:miter;stroke-width:0.8;"/>
   </g>
   <g id="patch_4">
    <path d="M 321.84 252 
L 321.84 34.56 
" style="fill:none;stroke:#000000;stroke-linecap:square;stroke-linejoin:miter;stroke-width:0.8;"/>
   </g>
   <g id="patch_5">
    <path d="M 54 252 
L 321.84 252 
" style="fill:none;stroke:#000000;stroke-linecap:square;stroke-linejoin:miter;stroke-width:0.8;"/>
   </g>
   <g id="patch_6">
    <path d="M 54 34.56 
L 321.84 34.56 
" style="fill:none;stroke:#000000;stroke-linecap:square;stroke-linejoin:miter;stroke-width:0.8;"/>
   </g>
   <g id="text_16">
    <!-- Error: |M1-v1| -->
    <defs>
     <path d="M 9.8125 72.90625 
L 55.90625 72.90625 
L 55.90625 64.59375 
L 19.671875 64.59375 
L 19.671875 43.015625 
L 54.390625 43.015625 
L 54.390625 34.71875 
L 19.671875 34.71875 
L 19.671875 8.296875 
L 56.78125 8.296875 
L 56.78125 0 
L 9.8125 0 
z
" id="DejaVuSans-69"/>
     <path d="M 30.609375 48.390625 
Q 23.390625 48.390625 19.1875 42.75 
Q 14.984375 37.109375 14.984375 27.296875 
Q 14.984375 17.484375 19.15625 11.84375 
Q 23.34375 6.203125 30.609375 6.203125 
Q 37.796875 6.203125 41.984375 11.859375 
Q 46.1875 17.53125 46.1875 27.296875 
Q 46.1875 37.015625 41.984375 42.703125 
Q 37.796875 48.390625 30.609375 48.390625 
z
M 30.609375 56 
Q 42.328125 56 49.015625 48.375 
Q 55.71875 40.765625 55.71875 27.296875 
Q 55.71875 13.875 49.015625 6.21875 
Q 42.328125 -1.421875 30.609375 -1.421875 
Q 18.84375 -1.421875 12.171875 6.21875 
Q 5.515625 13.875 5.515625 27.296875 
Q 5.515625 40.765625 12.171875 48.375 
Q 18.84375 56 30.609375 56 
z
" id="DejaVuSans-111"/>
     <path d="M 11.71875 12.40625 
L 22.015625 12.40625 
L 22.015625 0 
L 11.71875 0 
z
M 11.71875 51.703125 
L 22.015625 51.703125 
L 22.015625 39.3125 
L 11.71875 39.3125 
z
" id="DejaVuSans-58"/>
     <path d="M 21 76.421875 
L 21 -23.578125 
L 12.703125 -23.578125 
L 12.703125 76.421875 
z
" id="DejaVuSans-124"/>
     <path d="M 9.8125 72.90625 
L 24.515625 72.90625 
L 43.109375 23.296875 
L 61.8125 72.90625 
L 76.515625 72.90625 
L 76.515625 0 
L 66.890625 0 
L 66.890625 64.015625 
L 48.09375 14.015625 
L 38.1875 14.015625 
L 19.390625 64.015625 
L 19.390625 0 
L 9.8125 0 
z
" id="DejaVuSans-77"/>
     <path d="M 4.890625 31.390625 
L 31.203125 31.390625 
L 31.203125 23.390625 
L 4.890625 23.390625 
z
" id="DejaVuSans-45"/>
     <path d="M 2.984375 54.6875 
L 12.5 54.6875 
L 29.59375 8.796875 
L 46.6875 54.6875 
L 56.203125 54.6875 
L 35.6875 0 
L 23.484375 0 
z
" id="DejaVuSans-118"/>
    </defs>
    <g transform="translate(134.1585 28.56)scale(0.156 -0.156)">
     <use xlink:href="#DejaVuSans-69"/>
     <use x="63.183594" xlink:href="#DejaVuSans-114"/>
     <use x="104.28125" xlink:href="#DejaVuSans-114"/>
     <use x="145.363281" xlink:href="#DejaVuSans-111"/>
     <use x="206.544922" xlink:href="#DejaVuSans-114"/>
     <use x="247.642578" xlink:href="#DejaVuSans-58"/>
     <use x="281.333984" xlink:href="#DejaVuSans-32"/>
     <use x="313.121094" xlink:href="#DejaVuSans-124"/>
     <use x="346.8125" xlink:href="#DejaVuSans-77"/>
     <use x="433.091797" xlink:href="#DejaVuSans-49"/>
     <use x="496.714844" xlink:href="#DejaVuSans-45"/>
     <use x="532.767578" xlink:href="#DejaVuSans-118"/>
     <use x="591.947266" xlink:href="#DejaVuSans-49"/>
     <use x="655.570312" xlink:href="#DejaVuSans-124"/>
    </g>
   </g>
  </g>
  <g id="axes_2">
   <g id="patch_7">
    <path clip-path="url(#pc35b167d66)" d="M 338.58 252 
L 338.58 224.82 
L 338.58 61.74 
L 338.58 34.56 
L 349.452 34.56 
L 349.452 61.74 
L 349.452 224.82 
L 349.452 252 
z
" style="fill:#ffffff;stroke:#ffffff;stroke-linejoin:miter;stroke-width:0.01;"/>
   </g>
   <g id="QuadMesh_1">
    <path clip-path="url(#pc35b167d66)" d="M 338.58 252 
L 349.452 252 
L 349.452 224.82 
L 338.58 224.82 
L 338.58 252 
" style="fill:#feeae1;"/>
    <path clip-path="url(#pc35b167d66)" d="M 338.58 224.82 
L 349.452 224.82 
L 349.452 197.64 
L 338.58 197.64 
L 338.58 224.82 
" style="fill:#fdcdb9;"/>
    <path clip-path="url(#pc35b167d66)" d="M 338.58 197.64 
L 349.452 197.64 
L 349.452 170.46 
L 338.58 170.46 
L 338.58 197.64 
" style="fill:#fca689;"/>
    <path clip-path="url(#pc35b167d66)" d="M 338.58 170.46 
L 349.452 170.46 
L 349.452 143.28 
L 338.58 143.28 
L 338.58 170.46 
" style="fill:#fb7d5d;"/>
    <path clip-path="url(#pc35b167d66)" d="M 338.58 143.28 
L 349.452 143.28 
L 349.452 116.1 
L 338.58 116.1 
L 338.58 143.28 
" style="fill:#f5523a;"/>
    <path clip-path="url(#pc35b167d66)" d="M 338.58 116.1 
L 349.452 116.1 
L 349.452 88.92 
L 338.58 88.92 
L 338.58 116.1 
" style="fill:#dc2924;"/>
    <path clip-path="url(#pc35b167d66)" d="M 338.58 88.92 
L 349.452 88.92 
L 349.452 61.74 
L 338.58 61.74 
L 338.58 88.92 
" style="fill:#b71319;"/>
    <path clip-path="url(#pc35b167d66)" d="M 338.58 61.74 
L 349.452 61.74 
L 349.452 34.56 
L 338.58 34.56 
L 338.58 61.74 
" style="fill:#840711;"/>
   </g>
   <g id="matplotlib.axis_3"/>
   <g id="matplotlib.axis_4">
    <g id="ytick_10">
     <g id="line2d_14">
      <defs>
       <path d="M 0 0 
L 3.5 0 
" id="m0744a7d505" style="stroke:#000000;stroke-width:0.8;"/>
      </defs>
      <g>
       <use style="stroke:#000000;stroke-width:0.8;" x="349.452" xlink:href="#m0744a7d505" y="252"/>
      </g>
     </g>
     <g id="text_17">
      <!-- 0 -->
      <g transform="translate(356.452 256.938984)scale(0.13 -0.13)">
       <use xlink:href="#DejaVuSans-48"/>
      </g>
     </g>
    </g>
    <g id="ytick_11">
     <g id="line2d_15">
      <g>
       <use style="stroke:#000000;stroke-width:0.8;" x="349.452" xlink:href="#m0744a7d505" y="224.82"/>
      </g>
     </g>
     <g id="text_18">
      <!-- 15 -->
      <g transform="translate(356.452 229.758984)scale(0.13 -0.13)">
       <use xlink:href="#DejaVuSans-49"/>
       <use x="63.623047" xlink:href="#DejaVuSans-53"/>
      </g>
     </g>
    </g>
    <g id="ytick_12">
     <g id="line2d_16">
      <g>
       <use style="stroke:#000000;stroke-width:0.8;" x="349.452" xlink:href="#m0744a7d505" y="197.64"/>
      </g>
     </g>
     <g id="text_19">
      <!-- 30 -->
      <defs>
       <path d="M 40.578125 39.3125 
Q 47.65625 37.796875 51.625 33 
Q 55.609375 28.21875 55.609375 21.1875 
Q 55.609375 10.40625 48.1875 4.484375 
Q 40.765625 -1.421875 27.09375 -1.421875 
Q 22.515625 -1.421875 17.65625 -0.515625 
Q 12.796875 0.390625 7.625 2.203125 
L 7.625 11.71875 
Q 11.71875 9.328125 16.59375 8.109375 
Q 21.484375 6.890625 26.8125 6.890625 
Q 36.078125 6.890625 40.9375 10.546875 
Q 45.796875 14.203125 45.796875 21.1875 
Q 45.796875 27.640625 41.28125 31.265625 
Q 36.765625 34.90625 28.71875 34.90625 
L 20.21875 34.90625 
L 20.21875 43.015625 
L 29.109375 43.015625 
Q 36.375 43.015625 40.234375 45.921875 
Q 44.09375 48.828125 44.09375 54.296875 
Q 44.09375 59.90625 40.109375 62.90625 
Q 36.140625 65.921875 28.71875 65.921875 
Q 24.65625 65.921875 20.015625 65.03125 
Q 15.375 64.15625 9.8125 62.3125 
L 9.8125 71.09375 
Q 15.4375 72.65625 20.34375 73.4375 
Q 25.25 74.21875 29.59375 74.21875 
Q 40.828125 74.21875 47.359375 69.109375 
Q 53.90625 64.015625 53.90625 55.328125 
Q 53.90625 49.265625 50.4375 45.09375 
Q 46.96875 40.921875 40.578125 39.3125 
z
" id="DejaVuSans-51"/>
      </defs>
      <g transform="translate(356.452 202.578984)scale(0.13 -0.13)">
       <use xlink:href="#DejaVuSans-51"/>
       <use x="63.623047" xlink:href="#DejaVuSans-48"/>
      </g>
     </g>
    </g>
    <g id="ytick_13">
     <g id="line2d_17">
      <g>
       <use style="stroke:#000000;stroke-width:0.8;" x="349.452" xlink:href="#m0744a7d505" y="170.46"/>
      </g>
     </g>
     <g id="text_20">
      <!-- 45 -->
      <defs>
       <path d="M 37.796875 64.3125 
L 12.890625 25.390625 
L 37.796875 25.390625 
z
M 35.203125 72.90625 
L 47.609375 72.90625 
L 47.609375 25.390625 
L 58.015625 25.390625 
L 58.015625 17.1875 
L 47.609375 17.1875 
L 47.609375 0 
L 37.796875 0 
L 37.796875 17.1875 
L 4.890625 17.1875 
L 4.890625 26.703125 
z
" id="DejaVuSans-52"/>
      </defs>
      <g transform="translate(356.452 175.398984)scale(0.13 -0.13)">
       <use xlink:href="#DejaVuSans-52"/>
       <use x="63.623047" xlink:href="#DejaVuSans-53"/>
      </g>
     </g>
    </g>
    <g id="ytick_14">
     <g id="line2d_18">
      <g>
       <use style="stroke:#000000;stroke-width:0.8;" x="349.452" xlink:href="#m0744a7d505" y="143.28"/>
      </g>
     </g>
     <g id="text_21">
      <!-- 60 -->
      <defs>
       <path d="M 33.015625 40.375 
Q 26.375 40.375 22.484375 35.828125 
Q 18.609375 31.296875 18.609375 23.390625 
Q 18.609375 15.53125 22.484375 10.953125 
Q 26.375 6.390625 33.015625 6.390625 
Q 39.65625 6.390625 43.53125 10.953125 
Q 47.40625 15.53125 47.40625 23.390625 
Q 47.40625 31.296875 43.53125 35.828125 
Q 39.65625 40.375 33.015625 40.375 
z
M 52.59375 71.296875 
L 52.59375 62.3125 
Q 48.875 64.0625 45.09375 64.984375 
Q 41.3125 65.921875 37.59375 65.921875 
Q 27.828125 65.921875 22.671875 59.328125 
Q 17.53125 52.734375 16.796875 39.40625 
Q 19.671875 43.65625 24.015625 45.921875 
Q 28.375 48.1875 33.59375 48.1875 
Q 44.578125 48.1875 50.953125 41.515625 
Q 57.328125 34.859375 57.328125 23.390625 
Q 57.328125 12.15625 50.6875 5.359375 
Q 44.046875 -1.421875 33.015625 -1.421875 
Q 20.359375 -1.421875 13.671875 8.265625 
Q 6.984375 17.96875 6.984375 36.375 
Q 6.984375 53.65625 15.1875 63.9375 
Q 23.390625 74.21875 37.203125 74.21875 
Q 40.921875 74.21875 44.703125 73.484375 
Q 48.484375 72.75 52.59375 71.296875 
z
" id="DejaVuSans-54"/>
      </defs>
      <g transform="translate(356.452 148.218984)scale(0.13 -0.13)">
       <use xlink:href="#DejaVuSans-54"/>
       <use x="63.623047" xlink:href="#DejaVuSans-48"/>
      </g>
     </g>
    </g>
    <g id="ytick_15">
     <g id="line2d_19">
      <g>
       <use style="stroke:#000000;stroke-width:0.8;" x="349.452" xlink:href="#m0744a7d505" y="116.1"/>
      </g>
     </g>
     <g id="text_22">
      <!-- 75 -->
      <g transform="translate(356.452 121.038984)scale(0.13 -0.13)">
       <use xlink:href="#DejaVuSans-55"/>
       <use x="63.623047" xlink:href="#DejaVuSans-53"/>
      </g>
     </g>
    </g>
    <g id="ytick_16">
     <g id="line2d_20">
      <g>
       <use style="stroke:#000000;stroke-width:0.8;" x="349.452" xlink:href="#m0744a7d505" y="88.92"/>
      </g>
     </g>
     <g id="text_23">
      <!-- 90 -->
      <defs>
       <path d="M 10.984375 1.515625 
L 10.984375 10.5 
Q 14.703125 8.734375 18.5 7.8125 
Q 22.3125 6.890625 25.984375 6.890625 
Q 35.75 6.890625 40.890625 13.453125 
Q 46.046875 20.015625 46.78125 33.40625 
Q 43.953125 29.203125 39.59375 26.953125 
Q 35.25 24.703125 29.984375 24.703125 
Q 19.046875 24.703125 12.671875 31.3125 
Q 6.296875 37.9375 6.296875 49.421875 
Q 6.296875 60.640625 12.9375 67.421875 
Q 19.578125 74.21875 30.609375 74.21875 
Q 43.265625 74.21875 49.921875 64.515625 
Q 56.59375 54.828125 56.59375 36.375 
Q 56.59375 19.140625 48.40625 8.859375 
Q 40.234375 -1.421875 26.421875 -1.421875 
Q 22.703125 -1.421875 18.890625 -0.6875 
Q 15.09375 0.046875 10.984375 1.515625 
z
M 30.609375 32.421875 
Q 37.25 32.421875 41.125 36.953125 
Q 45.015625 41.5 45.015625 49.421875 
Q 45.015625 57.28125 41.125 61.84375 
Q 37.25 66.40625 30.609375 66.40625 
Q 23.96875 66.40625 20.09375 61.84375 
Q 16.21875 57.28125 16.21875 49.421875 
Q 16.21875 41.5 20.09375 36.953125 
Q 23.96875 32.421875 30.609375 32.421875 
z
" id="DejaVuSans-57"/>
      </defs>
      <g transform="translate(356.452 93.858984)scale(0.13 -0.13)">
       <use xlink:href="#DejaVuSans-57"/>
       <use x="63.623047" xlink:href="#DejaVuSans-48"/>
      </g>
     </g>
    </g>
    <g id="ytick_17">
     <g id="line2d_21">
      <g>
       <use style="stroke:#000000;stroke-width:0.8;" x="349.452" xlink:href="#m0744a7d505" y="61.74"/>
      </g>
     </g>
     <g id="text_24">
      <!-- 105 -->
      <g transform="translate(356.452 66.678984)scale(0.13 -0.13)">
       <use xlink:href="#DejaVuSans-49"/>
       <use x="63.623047" xlink:href="#DejaVuSans-48"/>
       <use x="127.246094" xlink:href="#DejaVuSans-53"/>
      </g>
     </g>
    </g>
    <g id="ytick_18">
     <g id="line2d_22">
      <g>
       <use style="stroke:#000000;stroke-width:0.8;" x="349.452" xlink:href="#m0744a7d505" y="34.56"/>
      </g>
     </g>
     <g id="text_25">
      <!-- 120 -->
      <g transform="translate(356.452 39.498984)scale(0.13 -0.13)">
       <use xlink:href="#DejaVuSans-49"/>
       <use x="63.623047" xlink:href="#DejaVuSans-50"/>
       <use x="127.246094" xlink:href="#DejaVuSans-48"/>
      </g>
     </g>
    </g>
   </g>
   <g id="patch_8">
    <path d="M 338.58 252 
L 338.58 224.82 
L 338.58 61.74 
L 338.58 34.56 
L 349.452 34.56 
L 349.452 61.74 
L 349.452 224.82 
L 349.452 252 
z
" style="fill:none;stroke:#000000;stroke-linejoin:miter;stroke-width:0.8;"/>
   </g>
  </g>
 </g>
 <defs>
  <clipPath id="p6e5442378c">
   <rect height="217.44" width="267.84" x="54" y="34.56"/>
  </clipPath>
  <clipPath id="pc35b167d66">
   <rect height="217.44" width="10.872" x="338.58" y="34.56"/>
  </clipPath>
 </defs>
</svg>
