<?xml version="1.0" encoding="utf-8" standalone="no"?>
<!DOCTYPE svg PUBLIC "-//W3C//DTD SVG 1.1//EN"
  "http://www.w3.org/Graphics/SVG/1.1/DTD/svg11.dtd">
<!-- Created with matplotlib (https://matplotlib.org/) -->
<svg height="288pt" version="1.1" viewBox="0 0 432 288" width="432pt" xmlns="http://www.w3.org/2000/svg" xmlns:xlink="http://www.w3.org/1999/xlink">
 <defs>
  <style type="text/css">
*{stroke-linecap:butt;stroke-linejoin:round;white-space:pre;}
  </style>
 </defs>
 <g id="figure_1">
  <g id="patch_1">
   <path d="M 0 288 
L 432 288 
L 432 0 
L 0 0 
z
" style="fill:#ffffff;"/>
  </g>
  <g id="axes_1">
   <g id="patch_2">
    <path d="M 54 252 
L 321.84 252 
L 321.84 34.56 
L 54 34.56 
z
" style="fill:#ffffff;"/>
   </g>
   <g id="PathCollection_1">
    <path clip-path="url(#pfaed7f89ef)" d="M 56.705455 252 
L 59.410909 252 
L 62.116364 252 
L 64.821818 252 
L 67.527273 252 
L 70.232727 252 
L 72.938182 252 
L 75.643636 252 
L 78.349091 252 
L 81.054545 252 
L 82.084342 252 
L 83.76 248.832575 
L 84.486796 247.562449 
L 86.465455 243.861864 
L 86.889247 243.124898 
L 89.170909 238.896507 
L 89.291695 238.687347 
L 91.694164 234.249796 
L 91.876364 233.894204 
L 94.096644 229.812245 
L 94.581818 228.875101 
L 96.499119 225.374694 
L 97.287273 223.866245 
L 98.901589 220.937143 
L 99.992727 218.865878 
L 101.304055 216.499592 
L 102.698182 213.872626 
L 103.706518 212.062041 
L 105.403636 208.885391 
L 106.108978 207.62449 
L 108.109091 203.903295 
L 108.511435 203.186939 
L 110.814545 198.925619 
L 110.91389 198.749388 
L 113.316361 194.311837 
L 113.52 193.922108 
L 115.718836 189.874286 
L 116.225455 188.910608 
L 118.121308 185.436735 
L 118.930909 183.905389 
L 120.523777 180.999184 
L 121.636364 178.90571 
L 122.926244 176.561633 
L 124.341818 173.910946 
L 125.328708 172.124082 
L 127.047273 168.920559 
L 127.73117 167.686531 
L 129.752727 163.934088 
L 130.13363 163.24898 
L 132.458182 158.951136 
L 132.536088 158.811429 
L 134.938559 154.373878 
L 135.163636 153.947168 
L 137.341032 149.936327 
L 137.869091 148.9395 
L 139.743503 145.498776 
L 140.574545 143.936331 
L 142.145971 141.061224 
L 143.28 138.937256 
L 144.548438 136.623673 
L 145.985455 133.941921 
L 146.950902 132.186122 
L 148.690909 128.950009 
L 149.353365 127.748571 
L 151.396364 123.961239 
L 151.755827 123.31102 
L 154.101818 118.975359 
L 154.158287 118.873469 
L 156.560758 114.435918 
L 156.807273 113.971158 
L 158.963229 109.998367 
L 159.512727 108.965797 
L 161.365699 105.560816 
L 162.218182 103.963931 
L 163.768167 101.123265 
L 164.923636 98.965309 
L 166.170634 96.685714 
L 167.629091 93.9697 
L 168.573099 92.248163 
L 170.334545 88.976898 
L 170.975562 87.810612 
L 173.04 83.986712 
L 173.378025 83.373061 
L 175.745455 78.998971 
L 175.780486 78.93551 
L 178.182957 74.497959 
L 178.450909 73.99463 
L 180.585427 70.060408 
L 181.156364 68.990809 
L 182.987897 65.622857 
L 183.861818 63.989844 
L 185.390364 61.185306 
L 186.567273 58.991561 
L 187.792831 56.747755 
L 189.272727 53.995802 
L 190.195296 52.310204 
L 191.978182 49.002418 
L 192.59776 47.872653 
L 194.683636 44.011275 
L 195.000223 43.435102 
L 197.389091 39.022246 
L 197.402685 38.997551 
L 199.805156 34.56 
L 197.389091 34.56 
L 194.683636 34.56 
L 191.978182 34.56 
L 189.272727 34.56 
L 186.567273 34.56 
L 183.861818 34.56 
L 181.156364 34.56 
L 178.450909 34.56 
L 175.745455 34.56 
L 173.04 34.56 
L 170.334545 34.56 
L 167.629091 34.56 
L 164.923636 34.56 
L 162.218182 34.56 
L 159.512727 34.56 
L 156.807273 34.56 
L 154.101818 34.56 
L 151.396364 34.56 
L 148.690909 34.56 
L 145.985455 34.56 
L 143.28 34.56 
L 140.574545 34.56 
L 137.869091 34.56 
L 135.163636 34.56 
L 132.458182 34.56 
L 129.752727 34.56 
L 127.047273 34.56 
L 124.341818 34.56 
L 121.636364 34.56 
L 118.930909 34.56 
L 116.225455 34.56 
L 113.52 34.56 
L 110.814545 34.56 
L 108.109091 34.56 
L 105.403636 34.56 
L 102.698182 34.56 
L 99.992727 34.56 
L 97.287273 34.56 
L 94.581818 34.56 
L 91.876364 34.56 
L 89.170909 34.56 
L 86.465455 34.56 
L 83.76 34.56 
L 81.054545 34.56 
L 78.349091 34.56 
L 75.643636 34.56 
L 72.938182 34.56 
L 70.232727 34.56 
L 67.527273 34.56 
L 64.821818 34.56 
L 62.116364 34.56 
L 59.410909 34.56 
L 56.705455 34.56 
L 54 34.56 
L 54 38.997551 
L 54 43.435102 
L 54 47.872653 
L 54 52.310204 
L 54 56.747755 
L 54 61.185306 
L 54 65.622857 
L 54 70.060408 
L 54 74.497959 
L 54 78.93551 
L 54 83.373061 
L 54 87.810612 
L 54 92.248163 
L 54 96.685714 
L 54 101.123265 
L 54 105.560816 
L 54 109.998367 
L 54 114.435918 
L 54 118.873469 
L 54 123.31102 
L 54 127.748571 
L 54 132.186122 
L 54 136.623673 
L 54 141.061224 
L 54 145.498776 
L 54 149.936327 
L 54 154.373878 
L 54 158.811429 
L 54 163.24898 
L 54 167.686531 
L 54 172.124082 
L 54 176.561633 
L 54 180.999184 
L 54 185.436735 
L 54 189.874286 
L 54 194.311837 
L 54 198.749388 
L 54 203.186939 
L 54 207.62449 
L 54 212.062041 
L 54 216.499592 
L 54 220.937143 
L 54 225.374694 
L 54 229.812245 
L 54 234.249796 
L 54 238.687347 
L 54 243.124898 
L 54 247.562449 
L 54 252 
z
" style="fill:#ffece3;"/>
   </g>
   <g id="PathCollection_2">
    <path clip-path="url(#pfaed7f89ef)" d="M 83.76 252 
L 86.465455 252 
L 89.170909 252 
L 91.876364 252 
L 94.581818 252 
L 97.287273 252 
L 99.992727 252 
L 102.698182 252 
L 105.403636 252 
L 108.109091 252 
L 110.814545 252 
L 111.57024 252 
L 113.52 250.116722 
L 116.225455 247.694317 
L 116.379645 247.562449 
L 118.930909 245.128552 
L 121.189152 243.124898 
L 121.636364 242.686219 
L 124.341818 240.149008 
L 125.998661 238.687347 
L 127.047273 237.671011 
L 129.752727 235.176274 
L 130.808132 234.249796 
L 132.458182 232.667219 
L 135.163636 230.209009 
L 135.61757 229.812245 
L 137.869091 227.672669 
L 140.427015 225.374694 
L 140.574545 225.231366 
L 143.28 222.685705 
L 145.236534 220.937143 
L 145.985455 220.216129 
L 148.690909 217.705044 
L 150.046021 216.499592 
L 151.396364 215.210122 
L 154.101818 212.729677 
L 154.85548 212.062041 
L 156.807273 210.211907 
L 159.512727 207.7588 
L 159.664915 207.62449 
L 162.218182 205.220328 
L 164.474411 203.186939 
L 164.923636 202.756382 
L 167.629091 200.234449 
L 169.283908 198.749388 
L 170.334545 197.749097 
L 173.04 195.2535 
L 174.093382 194.311837 
L 175.745455 192.748517 
L 178.450909 190.276846 
L 178.902834 189.874286 
L 181.156364 187.753795 
L 183.71229 185.436735 
L 183.861818 185.293878 
L 186.567273 182.76422 
L 188.521795 180.999184 
L 189.272727 180.285778 
L 191.978182 177.779193 
L 193.331279 176.561633 
L 194.683636 175.283551 
L 197.389091 172.798203 
L 198.140744 172.124082 
L 200.094545 170.28655 
L 202.8 167.820814 
L 202.950191 167.686531 
L 205.505455 165.294221 
L 207.759681 163.24898 
L 208.210909 162.821002 
L 210.916364 160.306083 
L 212.569173 158.811429 
L 213.621818 157.817565 
L 216.327273 155.321722 
L 217.378648 154.373878 
L 219.032727 152.818838 
L 221.738182 150.340774 
L 222.188106 149.936327 
L 224.443636 147.824376 
L 226.997567 145.498776 
L 227.149091 145.355244 
L 229.854545 142.833788 
L 231.807065 141.061224 
L 232.56 140.350881 
L 235.265455 137.84673 
L 236.616547 136.623673 
L 237.970909 135.350801 
L 240.676364 132.862897 
L 241.426015 132.186122 
L 243.381818 130.354639 
L 246.087273 127.882018 
L 246.235469 127.748571 
L 248.792727 125.362071 
L 251.044956 123.31102 
L 251.498182 122.883698 
L 254.203636 120.372807 
L 255.854444 118.873469 
L 256.909091 117.882529 
L 259.614545 115.386589 
L 260.663919 114.435918 
L 262.32 112.88498 
L 265.025455 110.403183 
L 265.473381 109.998367 
L 267.730909 107.890779 
L 270.282846 105.560816 
L 270.436364 105.416147 
L 273.141818 102.899679 
L 275.092339 101.123265 
L 275.847273 100.414083 
L 278.552727 97.911456 
L 279.90182 96.685714 
L 281.258182 95.415381 
L 283.963636 92.92591 
L 284.711289 92.248163 
L 286.669091 90.41981 
L 289.374545 87.942855 
L 289.520747 87.810612 
L 292.08 85.427155 
L 294.330233 83.373061 
L 294.785455 82.945502 
L 297.490909 80.437225 
L 299.139719 78.93551 
L 300.196364 77.945828 
L 302.901818 75.449842 
L 303.949194 74.497959 
L 305.607273 72.94909 
L 308.312727 70.464845 
L 308.758658 70.060408 
L 311.018182 67.955105 
L 313.568125 65.622857 
L 313.723636 65.476818 
L 316.429091 62.963702 
L 318.377615 61.185306 
L 319.134545 60.47631 
L 321.84 57.974727 
L 321.84 56.747755 
L 321.84 52.310204 
L 321.84 47.872653 
L 321.84 43.435102 
L 321.84 38.997551 
L 321.84 34.56 
L 319.134545 34.56 
L 316.429091 34.56 
L 313.723636 34.56 
L 311.018182 34.56 
L 308.312727 34.56 
L 305.607273 34.56 
L 302.901818 34.56 
L 300.196364 34.56 
L 297.490909 34.56 
L 294.785455 34.56 
L 292.08 34.56 
L 289.374545 34.56 
L 286.669091 34.56 
L 283.963636 34.56 
L 281.258182 34.56 
L 278.552727 34.56 
L 275.847273 34.56 
L 273.141818 34.56 
L 270.436364 34.56 
L 267.730909 34.56 
L 265.025455 34.56 
L 262.32 34.56 
L 259.614545 34.56 
L 256.909091 34.56 
L 254.203636 34.56 
L 251.498182 34.56 
L 248.792727 34.56 
L 246.087273 34.56 
L 243.381818 34.56 
L 240.676364 34.56 
L 237.970909 34.56 
L 235.265455 34.56 
L 232.56 34.56 
L 229.854545 34.56 
L 227.149091 34.56 
L 224.443636 34.56 
L 221.738182 34.56 
L 219.032727 34.56 
L 216.327273 34.56 
L 213.621818 34.56 
L 210.916364 34.56 
L 208.210909 34.56 
L 205.505455 34.56 
L 202.8 34.56 
L 200.094545 34.56 
L 199.805156 34.56 
L 197.402685 38.997551 
L 197.389091 39.022246 
L 195.000223 43.435102 
L 194.683636 44.011275 
L 192.59776 47.872653 
L 191.978182 49.002418 
L 190.195296 52.310204 
L 189.272727 53.995802 
L 187.792831 56.747755 
L 186.567273 58.991561 
L 185.390364 61.185306 
L 183.861818 63.989844 
L 182.987897 65.622857 
L 181.156364 68.990809 
L 180.585427 70.060408 
L 178.450909 73.99463 
L 178.182957 74.497959 
L 175.780486 78.93551 
L 175.745455 78.998971 
L 173.378025 83.373061 
L 173.04 83.986712 
L 170.975562 87.810612 
L 170.334545 88.976898 
L 168.573099 92.248163 
L 167.629091 93.9697 
L 166.170634 96.685714 
L 164.923636 98.965309 
L 163.768167 101.123265 
L 162.218182 103.963931 
L 161.365699 105.560816 
L 159.512727 108.965797 
L 158.963229 109.998367 
L 156.807273 113.971158 
L 156.560758 114.435918 
L 154.158287 118.873469 
L 154.101818 118.975359 
L 151.755827 123.31102 
L 151.396364 123.961239 
L 149.353365 127.748571 
L 148.690909 128.950009 
L 146.950902 132.186122 
L 145.985455 133.941921 
L 144.548438 136.623673 
L 143.28 138.937256 
L 142.145971 141.061224 
L 140.574545 143.936331 
L 139.743503 145.498776 
L 137.869091 148.9395 
L 137.341032 149.936327 
L 135.163636 153.947168 
L 134.938559 154.373878 
L 132.536088 158.811429 
L 132.458182 158.951136 
L 130.13363 163.24898 
L 129.752727 163.934088 
L 127.73117 167.686531 
L 127.047273 168.920559 
L 125.328708 172.124082 
L 124.341818 173.910946 
L 122.926244 176.561633 
L 121.636364 178.90571 
L 120.523777 180.999184 
L 118.930909 183.905389 
L 118.121308 185.436735 
L 116.225455 188.910608 
L 115.718836 189.874286 
L 113.52 193.922108 
L 113.316361 194.311837 
L 110.91389 198.749388 
L 110.814545 198.925619 
L 108.511435 203.186939 
L 108.109091 203.903295 
L 106.108978 207.62449 
L 105.403636 208.885391 
L 103.706518 212.062041 
L 102.698182 213.872626 
L 101.304055 216.499592 
L 99.992727 218.865878 
L 98.901589 220.937143 
L 97.287273 223.866245 
L 96.499119 225.374694 
L 94.581818 228.875101 
L 94.096644 229.812245 
L 91.876364 233.894204 
L 91.694164 234.249796 
L 89.291695 238.687347 
L 89.170909 238.896507 
L 86.889247 243.124898 
L 86.465455 243.861864 
L 84.486796 247.562449 
L 83.76 248.832575 
L 82.084342 252 
z
" style="fill:#fdd4c2;"/>
   </g>
   <g id="PathCollection_3">
    <path clip-path="url(#pfaed7f89ef)" d="M 113.52 252 
L 116.225455 252 
L 118.930909 252 
L 121.636364 252 
L 124.341818 252 
L 127.047273 252 
L 129.752727 252 
L 132.458182 252 
L 135.163636 252 
L 137.869091 252 
L 140.574545 252 
L 141.167008 252 
L 143.28 250.629633 
L 145.985455 248.965011 
L 148.392488 247.562449 
L 148.690909 247.366022 
L 151.396364 245.639368 
L 154.101818 244.004076 
L 155.618108 243.124898 
L 156.807273 242.352502 
L 159.512727 240.659002 
L 162.218182 239.048446 
L 162.843597 238.687347 
L 164.923636 237.35177 
L 167.629091 235.686437 
L 170.06908 234.249796 
L 170.334545 234.077168 
L 173.04 232.361236 
L 175.745455 230.720129 
L 177.294691 229.812245 
L 178.450909 229.068102 
L 181.156364 227.378968 
L 183.861818 225.758917 
L 184.520193 225.374694 
L 186.567273 224.069216 
L 189.272727 222.403491 
L 191.745677 220.937143 
L 191.978182 220.787221 
L 194.683636 219.078764 
L 197.389091 217.433663 
L 198.971281 216.499592 
L 200.094545 215.781361 
L 202.8 214.095377 
L 205.505455 212.468583 
L 206.196792 212.062041 
L 208.210909 210.78393 
L 210.916364 209.117967 
L 213.422278 207.62449 
L 213.621818 207.496621 
L 216.327273 205.793673 
L 219.032727 204.14566 
L 220.647876 203.186939 
L 221.738182 202.493178 
L 224.443636 200.809573 
L 227.149091 199.177743 
L 227.873393 198.749388 
L 229.854545 197.496913 
L 232.56 195.830796 
L 235.09888 194.311837 
L 235.265455 194.205601 
L 237.970909 192.506882 
L 240.676364 190.856651 
L 242.324474 189.874286 
L 243.381818 189.204044 
L 246.087273 187.522299 
L 248.792727 185.886565 
L 249.549996 185.436735 
L 251.498182 184.20873 
L 254.203636 182.542507 
L 256.775483 180.999184 
L 256.909091 180.914294 
L 259.614545 179.218923 
L 262.32 177.566948 
L 264.001074 176.561633 
L 265.025455 175.91425 
L 267.730909 174.233999 
L 270.436364 172.595149 
L 271.2266 172.124082 
L 273.141818 170.919724 
L 275.847273 169.253426 
L 278.452088 167.686531 
L 278.552727 167.622784 
L 281.258182 165.930128 
L 283.963636 164.276745 
L 285.677675 163.24898 
L 286.669091 162.623979 
L 289.374545 160.944955 
L 292.08 159.303561 
L 292.903205 158.811429 
L 294.785455 157.630117 
L 297.490909 155.963764 
L 300.128693 154.373878 
L 300.196364 154.331122 
L 302.901818 152.640715 
L 305.607273 150.986171 
L 307.354278 149.936327 
L 308.312727 149.333353 
L 311.018182 147.655352 
L 313.723636 146.011842 
L 314.57981 145.498776 
L 316.429091 144.340055 
L 319.134545 142.673661 
L 321.805298 141.061224 
L 321.84 141.039346 
L 321.84 136.623673 
L 321.84 132.186122 
L 321.84 127.748571 
L 321.84 123.31102 
L 321.84 118.873469 
L 321.84 114.435918 
L 321.84 109.998367 
L 321.84 105.560816 
L 321.84 101.123265 
L 321.84 96.685714 
L 321.84 92.248163 
L 321.84 87.810612 
L 321.84 83.373061 
L 321.84 78.93551 
L 321.84 74.497959 
L 321.84 70.060408 
L 321.84 65.622857 
L 321.84 61.185306 
L 321.84 57.974727 
L 319.134545 60.47631 
L 318.377615 61.185306 
L 316.429091 62.963702 
L 313.723636 65.476818 
L 313.568125 65.622857 
L 311.018182 67.955105 
L 308.758658 70.060408 
L 308.312727 70.464845 
L 305.607273 72.94909 
L 303.949194 74.497959 
L 302.901818 75.449842 
L 300.196364 77.945828 
L 299.139719 78.93551 
L 297.490909 80.437225 
L 294.785455 82.945502 
L 294.330233 83.373061 
L 292.08 85.427155 
L 289.520747 87.810612 
L 289.374545 87.942855 
L 286.669091 90.41981 
L 284.711289 92.248163 
L 283.963636 92.92591 
L 281.258182 95.415381 
L 279.90182 96.685714 
L 278.552727 97.911456 
L 275.847273 100.414083 
L 275.092339 101.123265 
L 273.141818 102.899679 
L 270.436364 105.416147 
L 270.282846 105.560816 
L 267.730909 107.890779 
L 265.473381 109.998367 
L 265.025455 110.403183 
L 262.32 112.88498 
L 260.663919 114.435918 
L 259.614545 115.386589 
L 256.909091 117.882529 
L 255.854444 118.873469 
L 254.203636 120.372807 
L 251.498182 122.883698 
L 251.044956 123.31102 
L 248.792727 125.362071 
L 246.235469 127.748571 
L 246.087273 127.882018 
L 243.381818 130.354639 
L 241.426015 132.186122 
L 240.676364 132.862897 
L 237.970909 135.350801 
L 236.616547 136.623673 
L 235.265455 137.84673 
L 232.56 140.350881 
L 231.807065 141.061224 
L 229.854545 142.833788 
L 227.149091 145.355244 
L 226.997567 145.498776 
L 224.443636 147.824376 
L 222.188106 149.936327 
L 221.738182 150.340774 
L 219.032727 152.818838 
L 217.378648 154.373878 
L 216.327273 155.321722 
L 213.621818 157.817565 
L 212.569173 158.811429 
L 210.916364 160.306083 
L 208.210909 162.821002 
L 207.759681 163.24898 
L 205.505455 165.294221 
L 202.950191 167.686531 
L 202.8 167.820814 
L 200.094545 170.28655 
L 198.140744 172.124082 
L 197.389091 172.798203 
L 194.683636 175.283551 
L 193.331279 176.561633 
L 191.978182 177.779193 
L 189.272727 180.285778 
L 188.521795 180.999184 
L 186.567273 182.76422 
L 183.861818 185.293878 
L 183.71229 185.436735 
L 181.156364 187.753795 
L 178.902834 189.874286 
L 178.450909 190.276846 
L 175.745455 192.748517 
L 174.093382 194.311837 
L 173.04 195.2535 
L 170.334545 197.749097 
L 169.283908 198.749388 
L 167.629091 200.234449 
L 164.923636 202.756382 
L 164.474411 203.186939 
L 162.218182 205.220328 
L 159.664915 207.62449 
L 159.512727 207.7588 
L 156.807273 210.211907 
L 154.85548 212.062041 
L 154.101818 212.729677 
L 151.396364 215.210122 
L 150.046021 216.499592 
L 148.690909 217.705044 
L 145.985455 220.216129 
L 145.236534 220.937143 
L 143.28 222.685705 
L 140.574545 225.231366 
L 140.427015 225.374694 
L 137.869091 227.672669 
L 135.61757 229.812245 
L 135.163636 230.209009 
L 132.458182 232.667219 
L 130.808132 234.249796 
L 129.752727 235.176274 
L 127.047273 237.671011 
L 125.998661 238.687347 
L 124.341818 240.149008 
L 121.636364 242.686219 
L 121.189152 243.124898 
L 118.930909 245.128552 
L 116.379645 247.562449 
L 116.225455 247.694317 
L 113.52 250.116722 
L 111.57024 252 
z
" style="fill:#fcb296;"/>
   </g>
   <g id="PathCollection_4">
    <path clip-path="url(#pfaed7f89ef)" d="M 143.28 252 
L 145.985455 252 
L 148.690909 252 
L 151.396364 252 
L 154.101818 252 
L 156.807273 252 
L 159.512727 252 
L 162.218182 252 
L 164.923636 252 
L 167.629091 252 
L 170.334545 252 
L 170.930241 252 
L 173.04 250.970385 
L 175.745455 249.70111 
L 178.450909 248.48564 
L 180.585408 247.562449 
L 181.156364 247.281686 
L 183.861818 245.984403 
L 186.567273 244.738811 
L 189.272727 243.541811 
L 190.240634 243.124898 
L 191.978182 242.281509 
L 194.683636 241.008967 
L 197.389091 239.783315 
L 199.895687 238.687347 
L 200.094545 238.59015 
L 202.8 237.293357 
L 205.505455 236.041835 
L 208.210909 234.833199 
L 209.550995 234.249796 
L 210.916364 233.589795 
L 213.621818 232.314803 
L 216.327273 231.081358 
L 219.032727 229.887415 
L 219.206046 229.812245 
L 221.738182 228.600142 
L 224.443636 227.344031 
L 227.149091 226.126297 
L 228.861334 225.374694 
L 229.854545 224.896154 
L 232.56 223.619257 
L 235.265455 222.379656 
L 237.970909 221.175703 
L 238.516471 220.937143 
L 240.676364 219.905413 
L 243.381818 218.645646 
L 246.087273 217.420603 
L 248.171659 216.499592 
L 248.792727 216.201144 
L 251.498182 214.922723 
L 254.203636 213.678136 
L 256.909091 212.466026 
L 257.826864 212.062041 
L 259.614545 211.209585 
L 262.32 209.946837 
L 265.025455 208.715794 
L 267.481973 207.62449 
L 267.730909 207.505127 
L 270.436364 206.225459 
L 273.141818 204.976752 
L 275.847273 203.757867 
L 277.137236 203.186939 
L 278.552727 202.512936 
L 281.258182 201.24771 
L 283.963636 200.011653 
L 286.669091 198.803743 
L 286.79232 198.749388 
L 289.374545 197.527641 
L 292.08 196.275471 
L 294.785455 195.05087 
L 296.44759 194.311837 
L 297.490909 193.815655 
L 300.196364 192.548337 
L 302.901818 191.308027 
L 305.607273 190.09385 
L 306.102734 189.874286 
L 308.312727 188.829391 
L 311.018182 187.574271 
L 313.723636 186.344782 
L 315.757931 185.436735 
L 316.429091 185.117879 
L 319.134545 183.848772 
L 321.84 182.604809 
L 321.84 180.999184 
L 321.84 176.561633 
L 321.84 172.124082 
L 321.84 167.686531 
L 321.84 163.24898 
L 321.84 158.811429 
L 321.84 154.373878 
L 321.84 149.936327 
L 321.84 145.498776 
L 321.84 141.061224 
L 321.84 141.039346 
L 321.805298 141.061224 
L 319.134545 142.673661 
L 316.429091 144.340055 
L 314.57981 145.498776 
L 313.723636 146.011842 
L 311.018182 147.655352 
L 308.312727 149.333353 
L 307.354278 149.936327 
L 305.607273 150.986171 
L 302.901818 152.640715 
L 300.196364 154.331122 
L 300.128693 154.373878 
L 297.490909 155.963764 
L 294.785455 157.630117 
L 292.903205 158.811429 
L 292.08 159.303561 
L 289.374545 160.944955 
L 286.669091 162.623979 
L 285.677675 163.24898 
L 283.963636 164.276745 
L 281.258182 165.930128 
L 278.552727 167.622784 
L 278.452088 167.686531 
L 275.847273 169.253426 
L 273.141818 170.919724 
L 271.2266 172.124082 
L 270.436364 172.595149 
L 267.730909 174.233999 
L 265.025455 175.91425 
L 264.001074 176.561633 
L 262.32 177.566948 
L 259.614545 179.218923 
L 256.909091 180.914294 
L 256.775483 180.999184 
L 254.203636 182.542507 
L 251.498182 184.20873 
L 249.549996 185.436735 
L 248.792727 185.886565 
L 246.087273 187.522299 
L 243.381818 189.204044 
L 242.324474 189.874286 
L 240.676364 190.856651 
L 237.970909 192.506882 
L 235.265455 194.205601 
L 235.09888 194.311837 
L 232.56 195.830796 
L 229.854545 197.496913 
L 227.873393 198.749388 
L 227.149091 199.177743 
L 224.443636 200.809573 
L 221.738182 202.493178 
L 220.647876 203.186939 
L 219.032727 204.14566 
L 216.327273 205.793673 
L 213.621818 207.496621 
L 213.422278 207.62449 
L 210.916364 209.117967 
L 208.210909 210.78393 
L 206.196792 212.062041 
L 205.505455 212.468583 
L 202.8 214.095377 
L 200.094545 215.781361 
L 198.971281 216.499592 
L 197.389091 217.433663 
L 194.683636 219.078764 
L 191.978182 220.787221 
L 191.745677 220.937143 
L 189.272727 222.403491 
L 186.567273 224.069216 
L 184.520193 225.374694 
L 183.861818 225.758917 
L 181.156364 227.378968 
L 178.450909 229.068102 
L 177.294691 229.812245 
L 175.745455 230.720129 
L 173.04 232.361236 
L 170.334545 234.077168 
L 170.06908 234.249796 
L 167.629091 235.686437 
L 164.923636 237.35177 
L 162.843597 238.687347 
L 162.218182 239.048446 
L 159.512727 240.659002 
L 156.807273 242.352502 
L 155.618108 243.124898 
L 154.101818 244.004076 
L 151.396364 245.639368 
L 148.690909 247.366022 
L 148.392488 247.562449 
L 145.985455 248.965011 
L 143.28 250.629633 
L 141.167008 252 
z
" style="fill:#fc8e6e;"/>
   </g>
   <g id="PathCollection_5">
    <path clip-path="url(#pfaed7f89ef)" d="M 173.04 252 
L 175.745455 252 
L 178.450909 252 
L 181.156364 252 
L 183.861818 252 
L 186.567273 252 
L 189.272727 252 
L 191.978182 252 
L 194.683636 252 
L 197.389091 252 
L 200.094545 252 
L 200.916697 252 
L 202.8 251.263463 
L 205.505455 250.236638 
L 208.210909 249.244749 
L 210.916364 248.285979 
L 213.019689 247.562449 
L 213.621818 247.326191 
L 216.327273 246.28598 
L 219.032727 245.278879 
L 221.738182 244.303276 
L 224.443636 243.357659 
L 225.122744 243.124898 
L 227.149091 242.339943 
L 229.854545 241.319413 
L 232.56 240.328899 
L 235.265455 239.367048 
L 237.225793 238.687347 
L 237.970909 238.397717 
L 240.676364 237.365246 
L 243.381818 236.361435 
L 246.087273 235.385063 
L 248.792727 234.434979 
L 249.3288 234.249796 
L 251.498182 233.415514 
L 254.203636 232.399771 
L 256.909091 231.410337 
L 259.614545 230.446165 
L 261.431893 229.812245 
L 262.32 229.469532 
L 265.025455 228.443022 
L 267.730909 227.441775 
L 270.436364 226.464836 
L 273.141818 225.511295 
L 273.534862 225.374694 
L 275.847273 224.490475 
L 278.552727 223.478493 
L 281.258182 222.489929 
L 283.963636 221.523947 
L 285.637989 220.937143 
L 286.669091 220.541547 
L 289.374545 219.519769 
L 292.08 218.520576 
L 294.785455 217.5432 
L 297.490909 216.586906 
L 297.740928 216.499592 
L 300.196364 215.565005 
L 302.901818 214.556058 
L 305.607273 213.568208 
L 308.312727 212.600775 
L 309.844083 212.062041 
L 311.018182 211.613704 
L 313.723636 210.595774 
L 316.429091 209.598264 
L 319.134545 208.620543 
L 321.84 207.662005 
L 321.84 207.62449 
L 321.84 203.186939 
L 321.84 198.749388 
L 321.84 194.311837 
L 321.84 189.874286 
L 321.84 185.436735 
L 321.84 182.604809 
L 319.134545 183.848772 
L 316.429091 185.117879 
L 315.757931 185.436735 
L 313.723636 186.344782 
L 311.018182 187.574271 
L 308.312727 188.829391 
L 306.102734 189.874286 
L 305.607273 190.09385 
L 302.901818 191.308027 
L 300.196364 192.548337 
L 297.490909 193.815655 
L 296.44759 194.311837 
L 294.785455 195.05087 
L 292.08 196.275471 
L 289.374545 197.527641 
L 286.79232 198.749388 
L 286.669091 198.803743 
L 283.963636 200.011653 
L 281.258182 201.24771 
L 278.552727 202.512936 
L 277.137236 203.186939 
L 275.847273 203.757867 
L 273.141818 204.976752 
L 270.436364 206.225459 
L 267.730909 207.505127 
L 267.481973 207.62449 
L 265.025455 208.715794 
L 262.32 209.946837 
L 259.614545 211.209585 
L 257.826864 212.062041 
L 256.909091 212.466026 
L 254.203636 213.678136 
L 251.498182 214.922723 
L 248.792727 216.201144 
L 248.171659 216.499592 
L 246.087273 217.420603 
L 243.381818 218.645646 
L 240.676364 219.905413 
L 238.516471 220.937143 
L 237.970909 221.175703 
L 235.265455 222.379656 
L 232.56 223.619257 
L 229.854545 224.896154 
L 228.861334 225.374694 
L 227.149091 226.126297 
L 224.443636 227.344031 
L 221.738182 228.600142 
L 219.206046 229.812245 
L 219.032727 229.887415 
L 216.327273 231.081358 
L 213.621818 232.314803 
L 210.916364 233.589795 
L 209.550995 234.249796 
L 208.210909 234.833199 
L 205.505455 236.041835 
L 202.8 237.293357 
L 200.094545 238.59015 
L 199.895687 238.687347 
L 197.389091 239.783315 
L 194.683636 241.008967 
L 191.978182 242.281509 
L 190.240634 243.124898 
L 189.272727 243.541811 
L 186.567273 244.738811 
L 183.861818 245.984403 
L 181.156364 247.281686 
L 180.585408 247.562449 
L 178.450909 248.48564 
L 175.745455 249.70111 
L 173.04 250.970385 
L 170.930241 252 
z
" style="fill:#fb694a;"/>
   </g>
   <g id="PathCollection_6">
    <path clip-path="url(#pfaed7f89ef)" d="M 202.8 252 
L 205.505455 252 
L 208.210909 252 
L 210.916364 252 
L 213.621818 252 
L 216.327273 252 
L 219.032727 252 
L 221.738182 252 
L 224.443636 252 
L 227.149091 252 
L 229.854545 252 
L 231.185099 252 
L 232.56 251.551535 
L 235.265455 250.688429 
L 237.970909 249.849754 
L 240.676364 249.034433 
L 243.381818 248.241451 
L 245.758827 247.562449 
L 246.087273 247.455272 
L 248.792727 246.586052 
L 251.498182 245.739773 
L 254.203636 244.915493 
L 256.909091 244.112318 
L 259.614545 243.329401 
L 260.332856 243.124898 
L 262.32 242.484629 
L 265.025455 241.631702 
L 267.730909 240.799563 
L 270.436364 239.98742 
L 273.141818 239.19452 
L 274.906809 238.687347 
L 275.847273 238.383987 
L 278.552727 237.525197 
L 281.258182 236.686108 
L 283.963636 235.866015 
L 286.669091 235.064243 
L 289.374545 234.280151 
L 289.480534 234.249796 
L 292.08 233.419993 
L 294.785455 232.574715 
L 297.490909 231.747525 
L 300.196364 230.937817 
L 302.901818 230.145009 
L 304.054665 229.812245 
L 305.607273 229.315882 
L 308.312727 228.465058 
L 311.018182 227.631494 
L 313.723636 226.814643 
L 316.429091 226.013978 
L 318.628501 225.374694 
L 319.134545 225.212697 
L 321.84 224.356874 
L 321.84 220.937143 
L 321.84 216.499592 
L 321.84 212.062041 
L 321.84 207.662005 
L 319.134545 208.620543 
L 316.429091 209.598264 
L 313.723636 210.595774 
L 311.018182 211.613704 
L 309.844083 212.062041 
L 308.312727 212.600775 
L 305.607273 213.568208 
L 302.901818 214.556058 
L 300.196364 215.565005 
L 297.740928 216.499592 
L 297.490909 216.586906 
L 294.785455 217.5432 
L 292.08 218.520576 
L 289.374545 219.519769 
L 286.669091 220.541547 
L 285.637989 220.937143 
L 283.963636 221.523947 
L 281.258182 222.489929 
L 278.552727 223.478493 
L 275.847273 224.490475 
L 273.534862 225.374694 
L 273.141818 225.511295 
L 270.436364 226.464836 
L 267.730909 227.441775 
L 265.025455 228.443022 
L 262.32 229.469532 
L 261.431893 229.812245 
L 259.614545 230.446165 
L 256.909091 231.410337 
L 254.203636 232.399771 
L 251.498182 233.415514 
L 249.3288 234.249796 
L 248.792727 234.434979 
L 246.087273 235.385063 
L 243.381818 236.361435 
L 240.676364 237.365246 
L 237.970909 238.397717 
L 237.225793 238.687347 
L 235.265455 239.367048 
L 232.56 240.328899 
L 229.854545 241.319413 
L 227.149091 242.339943 
L 225.122744 243.124898 
L 224.443636 243.357659 
L 221.738182 244.303276 
L 219.032727 245.278879 
L 216.327273 246.28598 
L 213.621818 247.326191 
L 213.019689 247.562449 
L 210.916364 248.285979 
L 208.210909 249.244749 
L 205.505455 250.236638 
L 202.8 251.263463 
L 200.916697 252 
z
" style="fill:#f0402f;"/>
   </g>
   <g id="PathCollection_7">
    <path clip-path="url(#pfaed7f89ef)" d="M 232.56 252 
L 235.265455 252 
L 237.970909 252 
L 240.676364 252 
L 243.381818 252 
L 246.087273 252 
L 248.792727 252 
L 251.498182 252 
L 254.203636 252 
L 256.909091 252 
L 259.614545 252 
L 261.796949 252 
L 262.32 251.853722 
L 265.025455 251.10851 
L 267.730909 250.381286 
L 270.436364 249.671361 
L 273.141818 248.978079 
L 275.847273 248.300815 
L 278.552727 247.638977 
L 278.869723 247.562449 
L 281.258182 246.903493 
L 283.963636 246.172903 
L 286.669091 245.458493 
L 289.374545 244.759693 
L 292.08 244.075956 
L 294.785455 243.406763 
L 295.942772 243.124898 
L 297.490909 242.698032 
L 300.196364 241.964521 
L 302.901818 241.246207 
L 305.607273 240.542589 
L 308.312727 239.853186 
L 311.018182 239.177537 
L 313.015552 238.687347 
L 313.723636 238.492209 
L 316.429091 237.75614 
L 319.134545 237.034398 
L 321.84 236.326537 
L 321.84 234.249796 
L 321.84 229.812245 
L 321.84 225.374694 
L 321.84 224.356874 
L 319.134545 225.212697 
L 318.628501 225.374694 
L 316.429091 226.013978 
L 313.723636 226.814643 
L 311.018182 227.631494 
L 308.312727 228.465058 
L 305.607273 229.315882 
L 304.054665 229.812245 
L 302.901818 230.145009 
L 300.196364 230.937817 
L 297.490909 231.747525 
L 294.785455 232.574715 
L 292.08 233.419993 
L 289.480534 234.249796 
L 289.374545 234.280151 
L 286.669091 235.064243 
L 283.963636 235.866015 
L 281.258182 236.686108 
L 278.552727 237.525197 
L 275.847273 238.383987 
L 274.906809 238.687347 
L 273.141818 239.19452 
L 270.436364 239.98742 
L 267.730909 240.799563 
L 265.025455 241.631702 
L 262.32 242.484629 
L 260.332856 243.124898 
L 259.614545 243.329401 
L 256.909091 244.112318 
L 254.203636 244.915493 
L 251.498182 245.739773 
L 248.792727 246.586052 
L 246.087273 247.455272 
L 245.758827 247.562449 
L 243.381818 248.241451 
L 240.676364 249.034433 
L 237.970909 249.849754 
L 235.265455 250.688429 
L 232.56 251.551535 
L 231.185099 252 
z
" style="fill:#d32020;"/>
   </g>
   <g id="PathCollection_8">
    <path clip-path="url(#pfaed7f89ef)" d="M 262.32 252 
L 265.025455 252 
L 267.730909 252 
L 270.436364 252 
L 273.141818 252 
L 275.847273 252 
L 278.552727 252 
L 281.258182 252 
L 283.963636 252 
L 286.669091 252 
L 289.374545 252 
L 292.08 252 
L 292.818338 252 
L 294.785455 251.524107 
L 297.490909 250.881553 
L 300.196364 250.252286 
L 302.901818 249.635859 
L 305.607273 249.031843 
L 308.312727 248.439827 
L 311.018182 247.859418 
L 312.423613 247.562449 
L 313.723636 247.248655 
L 316.429091 246.605231 
L 319.134545 245.97417 
L 321.84 245.355084 
L 321.84 243.124898 
L 321.84 238.687347 
L 321.84 236.326537 
L 319.134545 237.034398 
L 316.429091 237.75614 
L 313.723636 238.492209 
L 313.015552 238.687347 
L 311.018182 239.177537 
L 308.312727 239.853186 
L 305.607273 240.542589 
L 302.901818 241.246207 
L 300.196364 241.964521 
L 297.490909 242.698032 
L 295.942772 243.124898 
L 294.785455 243.406763 
L 292.08 244.075956 
L 289.374545 244.759693 
L 286.669091 245.458493 
L 283.963636 246.172903 
L 281.258182 246.903493 
L 278.869723 247.562449 
L 278.552727 247.638977 
L 275.847273 248.300815 
L 273.141818 248.978079 
L 270.436364 249.671361 
L 267.730909 250.381286 
L 265.025455 251.10851 
L 262.32 251.853722 
L 261.796949 252 
z
" style="fill:#b11218;"/>
   </g>
   <g id="PathCollection_9">
    <path clip-path="url(#pfaed7f89ef)" d="M 294.785455 252 
L 297.490909 252 
L 300.196364 252 
L 302.901818 252 
L 305.607273 252 
L 308.312727 252 
L 311.018182 252 
L 313.723636 252 
L 316.429091 252 
L 319.134545 252 
L 321.84 252 
L 321.84 247.562449 
L 321.84 245.355084 
L 319.134545 245.97417 
L 316.429091 246.605231 
L 313.723636 247.248655 
L 312.423613 247.562449 
L 311.018182 247.859418 
L 308.312727 248.439827 
L 305.607273 249.031843 
L 302.901818 249.635859 
L 300.196364 250.252286 
L 297.490909 250.881553 
L 294.785455 251.524107 
L 292.818338 252 
z
" style="fill:#820711;"/>
   </g>
   <g id="matplotlib.axis_1">
    <g id="xtick_1">
     <g id="line2d_1">
      <defs>
       <path d="M 0 0 
L 0 3.5 
" id="md7dacbc366" style="stroke:#000000;stroke-width:0.8;"/>
      </defs>
      <g>
       <use style="stroke:#000000;stroke-width:0.8;" x="119.950553" xlink:href="#md7dacbc366" y="252"/>
      </g>
     </g>
     <g id="text_1">
      <!-- 50 -->
      <defs>
       <path d="M 10.796875 72.90625 
L 49.515625 72.90625 
L 49.515625 64.59375 
L 19.828125 64.59375 
L 19.828125 46.734375 
Q 21.96875 47.46875 24.109375 47.828125 
Q 26.265625 48.1875 28.421875 48.1875 
Q 40.625 48.1875 47.75 41.5 
Q 54.890625 34.8125 54.890625 23.390625 
Q 54.890625 11.625 47.5625 5.09375 
Q 40.234375 -1.421875 26.90625 -1.421875 
Q 22.3125 -1.421875 17.546875 -0.640625 
Q 12.796875 0.140625 7.71875 1.703125 
L 7.71875 11.625 
Q 12.109375 9.234375 16.796875 8.0625 
Q 21.484375 6.890625 26.703125 6.890625 
Q 35.15625 6.890625 40.078125 11.328125 
Q 45.015625 15.765625 45.015625 23.390625 
Q 45.015625 31 40.078125 35.4375 
Q 35.15625 39.890625 26.703125 39.890625 
Q 22.75 39.890625 18.8125 39.015625 
Q 14.890625 38.140625 10.796875 36.28125 
z
" id="DejaVuSans-53"/>
       <path d="M 31.78125 66.40625 
Q 24.171875 66.40625 20.328125 58.90625 
Q 16.5 51.421875 16.5 36.375 
Q 16.5 21.390625 20.328125 13.890625 
Q 24.171875 6.390625 31.78125 6.390625 
Q 39.453125 6.390625 43.28125 13.890625 
Q 47.125 21.390625 47.125 36.375 
Q 47.125 51.421875 43.28125 58.90625 
Q 39.453125 66.40625 31.78125 66.40625 
z
M 31.78125 74.21875 
Q 44.046875 74.21875 50.515625 64.515625 
Q 56.984375 54.828125 56.984375 36.375 
Q 56.984375 17.96875 50.515625 8.265625 
Q 44.046875 -1.421875 31.78125 -1.421875 
Q 19.53125 -1.421875 13.0625 8.265625 
Q 6.59375 17.96875 6.59375 36.375 
Q 6.59375 54.828125 13.0625 64.515625 
Q 19.53125 74.21875 31.78125 74.21875 
z
" id="DejaVuSans-48"/>
      </defs>
      <g transform="translate(111.679303 268.877969)scale(0.13 -0.13)">
       <use xlink:href="#DejaVuSans-53"/>
       <use x="63.623047" xlink:href="#DejaVuSans-48"/>
      </g>
     </g>
    </g>
    <g id="xtick_2">
     <g id="line2d_2">
      <g>
       <use style="stroke:#000000;stroke-width:0.8;" x="187.247035" xlink:href="#md7dacbc366" y="252"/>
      </g>
     </g>
     <g id="text_2">
      <!-- 100 -->
      <defs>
       <path d="M 12.40625 8.296875 
L 28.515625 8.296875 
L 28.515625 63.921875 
L 10.984375 60.40625 
L 10.984375 69.390625 
L 28.421875 72.90625 
L 38.28125 72.90625 
L 38.28125 8.296875 
L 54.390625 8.296875 
L 54.390625 0 
L 12.40625 0 
z
" id="DejaVuSans-49"/>
      </defs>
      <g transform="translate(174.84016 268.877969)scale(0.13 -0.13)">
       <use xlink:href="#DejaVuSans-49"/>
       <use x="63.623047" xlink:href="#DejaVuSans-48"/>
       <use x="127.246094" xlink:href="#DejaVuSans-48"/>
      </g>
     </g>
    </g>
    <g id="xtick_3">
     <g id="line2d_3">
      <g>
       <use style="stroke:#000000;stroke-width:0.8;" x="254.543518" xlink:href="#md7dacbc366" y="252"/>
      </g>
     </g>
     <g id="text_3">
      <!-- 150 -->
      <g transform="translate(242.136643 268.877969)scale(0.13 -0.13)">
       <use xlink:href="#DejaVuSans-49"/>
       <use x="63.623047" xlink:href="#DejaVuSans-53"/>
       <use x="127.246094" xlink:href="#DejaVuSans-48"/>
      </g>
     </g>
    </g>
    <g id="xtick_4">
     <g id="line2d_4">
      <g>
       <use style="stroke:#000000;stroke-width:0.8;" x="321.84" xlink:href="#md7dacbc366" y="252"/>
      </g>
     </g>
     <g id="text_4">
      <!-- 200 -->
      <defs>
       <path d="M 19.1875 8.296875 
L 53.609375 8.296875 
L 53.609375 0 
L 7.328125 0 
L 7.328125 8.296875 
Q 12.9375 14.109375 22.625 23.890625 
Q 32.328125 33.6875 34.8125 36.53125 
Q 39.546875 41.84375 41.421875 45.53125 
Q 43.3125 49.21875 43.3125 52.78125 
Q 43.3125 58.59375 39.234375 62.25 
Q 35.15625 65.921875 28.609375 65.921875 
Q 23.96875 65.921875 18.8125 64.3125 
Q 13.671875 62.703125 7.8125 59.421875 
L 7.8125 69.390625 
Q 13.765625 71.78125 18.9375 73 
Q 24.125 74.21875 28.421875 74.21875 
Q 39.75 74.21875 46.484375 68.546875 
Q 53.21875 62.890625 53.21875 53.421875 
Q 53.21875 48.921875 51.53125 44.890625 
Q 49.859375 40.875 45.40625 35.40625 
Q 44.1875 33.984375 37.640625 27.21875 
Q 31.109375 20.453125 19.1875 8.296875 
z
" id="DejaVuSans-50"/>
      </defs>
      <g transform="translate(309.433125 268.877969)scale(0.13 -0.13)">
       <use xlink:href="#DejaVuSans-50"/>
       <use x="63.623047" xlink:href="#DejaVuSans-48"/>
       <use x="127.246094" xlink:href="#DejaVuSans-48"/>
      </g>
     </g>
    </g>
    <g id="text_5">
     <!-- Grid Size [km] -->
     <defs>
      <path d="M 59.515625 10.40625 
L 59.515625 29.984375 
L 43.40625 29.984375 
L 43.40625 38.09375 
L 69.28125 38.09375 
L 69.28125 6.78125 
Q 63.578125 2.734375 56.6875 0.65625 
Q 49.8125 -1.421875 42 -1.421875 
Q 24.90625 -1.421875 15.25 8.5625 
Q 5.609375 18.5625 5.609375 36.375 
Q 5.609375 54.25 15.25 64.234375 
Q 24.90625 74.21875 42 74.21875 
Q 49.125 74.21875 55.546875 72.453125 
Q 61.96875 70.703125 67.390625 67.28125 
L 67.390625 56.78125 
Q 61.921875 61.421875 55.765625 63.765625 
Q 49.609375 66.109375 42.828125 66.109375 
Q 29.4375 66.109375 22.71875 58.640625 
Q 16.015625 51.171875 16.015625 36.375 
Q 16.015625 21.625 22.71875 14.15625 
Q 29.4375 6.6875 42.828125 6.6875 
Q 48.046875 6.6875 52.140625 7.59375 
Q 56.25 8.5 59.515625 10.40625 
z
" id="DejaVuSans-71"/>
      <path d="M 41.109375 46.296875 
Q 39.59375 47.171875 37.8125 47.578125 
Q 36.03125 48 33.890625 48 
Q 26.265625 48 22.1875 43.046875 
Q 18.109375 38.09375 18.109375 28.8125 
L 18.109375 0 
L 9.078125 0 
L 9.078125 54.6875 
L 18.109375 54.6875 
L 18.109375 46.1875 
Q 20.953125 51.171875 25.484375 53.578125 
Q 30.03125 56 36.53125 56 
Q 37.453125 56 38.578125 55.875 
Q 39.703125 55.765625 41.0625 55.515625 
z
" id="DejaVuSans-114"/>
      <path d="M 9.421875 54.6875 
L 18.40625 54.6875 
L 18.40625 0 
L 9.421875 0 
z
M 9.421875 75.984375 
L 18.40625 75.984375 
L 18.40625 64.59375 
L 9.421875 64.59375 
z
" id="DejaVuSans-105"/>
      <path d="M 45.40625 46.390625 
L 45.40625 75.984375 
L 54.390625 75.984375 
L 54.390625 0 
L 45.40625 0 
L 45.40625 8.203125 
Q 42.578125 3.328125 38.25 0.953125 
Q 33.9375 -1.421875 27.875 -1.421875 
Q 17.96875 -1.421875 11.734375 6.484375 
Q 5.515625 14.40625 5.515625 27.296875 
Q 5.515625 40.1875 11.734375 48.09375 
Q 17.96875 56 27.875 56 
Q 33.9375 56 38.25 53.625 
Q 42.578125 51.265625 45.40625 46.390625 
z
M 14.796875 27.296875 
Q 14.796875 17.390625 18.875 11.75 
Q 22.953125 6.109375 30.078125 6.109375 
Q 37.203125 6.109375 41.296875 11.75 
Q 45.40625 17.390625 45.40625 27.296875 
Q 45.40625 37.203125 41.296875 42.84375 
Q 37.203125 48.484375 30.078125 48.484375 
Q 22.953125 48.484375 18.875 42.84375 
Q 14.796875 37.203125 14.796875 27.296875 
z
" id="DejaVuSans-100"/>
      <path id="DejaVuSans-32"/>
      <path d="M 53.515625 70.515625 
L 53.515625 60.890625 
Q 47.90625 63.578125 42.921875 64.890625 
Q 37.9375 66.21875 33.296875 66.21875 
Q 25.25 66.21875 20.875 63.09375 
Q 16.5 59.96875 16.5 54.203125 
Q 16.5 49.359375 19.40625 46.890625 
Q 22.3125 44.4375 30.421875 42.921875 
L 36.375 41.703125 
Q 47.40625 39.59375 52.65625 34.296875 
Q 57.90625 29 57.90625 20.125 
Q 57.90625 9.515625 50.796875 4.046875 
Q 43.703125 -1.421875 29.984375 -1.421875 
Q 24.8125 -1.421875 18.96875 -0.25 
Q 13.140625 0.921875 6.890625 3.21875 
L 6.890625 13.375 
Q 12.890625 10.015625 18.65625 8.296875 
Q 24.421875 6.59375 29.984375 6.59375 
Q 38.421875 6.59375 43.015625 9.90625 
Q 47.609375 13.234375 47.609375 19.390625 
Q 47.609375 24.75 44.3125 27.78125 
Q 41.015625 30.8125 33.5 32.328125 
L 27.484375 33.5 
Q 16.453125 35.6875 11.515625 40.375 
Q 6.59375 45.0625 6.59375 53.421875 
Q 6.59375 63.09375 13.40625 68.65625 
Q 20.21875 74.21875 32.171875 74.21875 
Q 37.3125 74.21875 42.625 73.28125 
Q 47.953125 72.359375 53.515625 70.515625 
z
" id="DejaVuSans-83"/>
      <path d="M 5.515625 54.6875 
L 48.1875 54.6875 
L 48.1875 46.484375 
L 14.40625 7.171875 
L 48.1875 7.171875 
L 48.1875 0 
L 4.296875 0 
L 4.296875 8.203125 
L 38.09375 47.515625 
L 5.515625 47.515625 
z
" id="DejaVuSans-122"/>
      <path d="M 56.203125 29.59375 
L 56.203125 25.203125 
L 14.890625 25.203125 
Q 15.484375 15.921875 20.484375 11.0625 
Q 25.484375 6.203125 34.421875 6.203125 
Q 39.59375 6.203125 44.453125 7.46875 
Q 49.3125 8.734375 54.109375 11.28125 
L 54.109375 2.78125 
Q 49.265625 0.734375 44.1875 -0.34375 
Q 39.109375 -1.421875 33.890625 -1.421875 
Q 20.796875 -1.421875 13.15625 6.1875 
Q 5.515625 13.8125 5.515625 26.8125 
Q 5.515625 40.234375 12.765625 48.109375 
Q 20.015625 56 32.328125 56 
Q 43.359375 56 49.78125 48.890625 
Q 56.203125 41.796875 56.203125 29.59375 
z
M 47.21875 32.234375 
Q 47.125 39.59375 43.09375 43.984375 
Q 39.0625 48.390625 32.421875 48.390625 
Q 24.90625 48.390625 20.390625 44.140625 
Q 15.875 39.890625 15.1875 32.171875 
z
" id="DejaVuSans-101"/>
      <path d="M 8.59375 75.984375 
L 29.296875 75.984375 
L 29.296875 69 
L 17.578125 69 
L 17.578125 -6.203125 
L 29.296875 -6.203125 
L 29.296875 -13.1875 
L 8.59375 -13.1875 
z
" id="DejaVuSans-91"/>
      <path d="M 9.078125 75.984375 
L 18.109375 75.984375 
L 18.109375 31.109375 
L 44.921875 54.6875 
L 56.390625 54.6875 
L 27.390625 29.109375 
L 57.625 0 
L 45.90625 0 
L 18.109375 26.703125 
L 18.109375 0 
L 9.078125 0 
z
" id="DejaVuSans-107"/>
      <path d="M 52 44.1875 
Q 55.375 50.25 60.0625 53.125 
Q 64.75 56 71.09375 56 
Q 79.640625 56 84.28125 50.015625 
Q 88.921875 44.046875 88.921875 33.015625 
L 88.921875 0 
L 79.890625 0 
L 79.890625 32.71875 
Q 79.890625 40.578125 77.09375 44.375 
Q 74.3125 48.1875 68.609375 48.1875 
Q 61.625 48.1875 57.5625 43.546875 
Q 53.515625 38.921875 53.515625 30.90625 
L 53.515625 0 
L 44.484375 0 
L 44.484375 32.71875 
Q 44.484375 40.625 41.703125 44.40625 
Q 38.921875 48.1875 33.109375 48.1875 
Q 26.21875 48.1875 22.15625 43.53125 
Q 18.109375 38.875 18.109375 30.90625 
L 18.109375 0 
L 9.078125 0 
L 9.078125 54.6875 
L 18.109375 54.6875 
L 18.109375 46.1875 
Q 21.1875 51.21875 25.484375 53.609375 
Q 29.78125 56 35.6875 56 
Q 41.65625 56 45.828125 52.96875 
Q 50 49.953125 52 44.1875 
z
" id="DejaVuSans-109"/>
      <path d="M 30.421875 75.984375 
L 30.421875 -13.1875 
L 9.71875 -13.1875 
L 9.71875 -6.203125 
L 21.390625 -6.203125 
L 21.390625 69 
L 9.71875 69 
L 9.71875 75.984375 
z
" id="DejaVuSans-93"/>
     </defs>
     <g transform="translate(141.636953 285.459531)scale(0.13 -0.13)">
      <use xlink:href="#DejaVuSans-71"/>
      <use x="77.490234" xlink:href="#DejaVuSans-114"/>
      <use x="118.603516" xlink:href="#DejaVuSans-105"/>
      <use x="146.386719" xlink:href="#DejaVuSans-100"/>
      <use x="209.863281" xlink:href="#DejaVuSans-32"/>
      <use x="241.650391" xlink:href="#DejaVuSans-83"/>
      <use x="305.126953" xlink:href="#DejaVuSans-105"/>
      <use x="332.910156" xlink:href="#DejaVuSans-122"/>
      <use x="385.400391" xlink:href="#DejaVuSans-101"/>
      <use x="446.923828" xlink:href="#DejaVuSans-32"/>
      <use x="478.710938" xlink:href="#DejaVuSans-91"/>
      <use x="517.724609" xlink:href="#DejaVuSans-107"/>
      <use x="575.634766" xlink:href="#DejaVuSans-109"/>
      <use x="673.046875" xlink:href="#DejaVuSans-93"/>
     </g>
    </g>
   </g>
   <g id="matplotlib.axis_2">
    <g id="ytick_1">
     <g id="line2d_5">
      <defs>
       <path d="M 0 0 
L -3.5 0 
" id="m6c20ee93cf" style="stroke:#000000;stroke-width:0.8;"/>
      </defs>
      <g>
       <use style="stroke:#000000;stroke-width:0.8;" x="54" xlink:href="#m6c20ee93cf" y="252"/>
      </g>
     </g>
     <g id="text_6">
      <!-- 500 -->
      <g transform="translate(22.18625 256.938984)scale(0.13 -0.13)">
       <use xlink:href="#DejaVuSans-53"/>
       <use x="63.623047" xlink:href="#DejaVuSans-48"/>
       <use x="127.246094" xlink:href="#DejaVuSans-48"/>
      </g>
     </g>
    </g>
    <g id="ytick_2">
     <g id="line2d_6">
      <g>
       <use style="stroke:#000000;stroke-width:0.8;" x="54" xlink:href="#m6c20ee93cf" y="224.82"/>
      </g>
     </g>
     <g id="text_7">
      <!-- 750 -->
      <defs>
       <path d="M 8.203125 72.90625 
L 55.078125 72.90625 
L 55.078125 68.703125 
L 28.609375 0 
L 18.3125 0 
L 43.21875 64.59375 
L 8.203125 64.59375 
z
" id="DejaVuSans-55"/>
      </defs>
      <g transform="translate(22.18625 229.758984)scale(0.13 -0.13)">
       <use xlink:href="#DejaVuSans-55"/>
       <use x="63.623047" xlink:href="#DejaVuSans-53"/>
       <use x="127.246094" xlink:href="#DejaVuSans-48"/>
      </g>
     </g>
    </g>
    <g id="ytick_3">
     <g id="line2d_7">
      <g>
       <use style="stroke:#000000;stroke-width:0.8;" x="54" xlink:href="#m6c20ee93cf" y="197.64"/>
      </g>
     </g>
     <g id="text_8">
      <!-- 1000 -->
      <g transform="translate(13.915 202.578984)scale(0.13 -0.13)">
       <use xlink:href="#DejaVuSans-49"/>
       <use x="63.623047" xlink:href="#DejaVuSans-48"/>
       <use x="127.246094" xlink:href="#DejaVuSans-48"/>
       <use x="190.869141" xlink:href="#DejaVuSans-48"/>
      </g>
     </g>
    </g>
    <g id="ytick_4">
     <g id="line2d_8">
      <g>
       <use style="stroke:#000000;stroke-width:0.8;" x="54" xlink:href="#m6c20ee93cf" y="170.46"/>
      </g>
     </g>
     <g id="text_9">
      <!-- 1250 -->
      <g transform="translate(13.915 175.398984)scale(0.13 -0.13)">
       <use xlink:href="#DejaVuSans-49"/>
       <use x="63.623047" xlink:href="#DejaVuSans-50"/>
       <use x="127.246094" xlink:href="#DejaVuSans-53"/>
       <use x="190.869141" xlink:href="#DejaVuSans-48"/>
      </g>
     </g>
    </g>
    <g id="ytick_5">
     <g id="line2d_9">
      <g>
       <use style="stroke:#000000;stroke-width:0.8;" x="54" xlink:href="#m6c20ee93cf" y="143.28"/>
      </g>
     </g>
     <g id="text_10">
      <!-- 1500 -->
      <g transform="translate(13.915 148.218984)scale(0.13 -0.13)">
       <use xlink:href="#DejaVuSans-49"/>
       <use x="63.623047" xlink:href="#DejaVuSans-53"/>
       <use x="127.246094" xlink:href="#DejaVuSans-48"/>
       <use x="190.869141" xlink:href="#DejaVuSans-48"/>
      </g>
     </g>
    </g>
    <g id="ytick_6">
     <g id="line2d_10">
      <g>
       <use style="stroke:#000000;stroke-width:0.8;" x="54" xlink:href="#m6c20ee93cf" y="116.1"/>
      </g>
     </g>
     <g id="text_11">
      <!-- 1750 -->
      <g transform="translate(13.915 121.038984)scale(0.13 -0.13)">
       <use xlink:href="#DejaVuSans-49"/>
       <use x="63.623047" xlink:href="#DejaVuSans-55"/>
       <use x="127.246094" xlink:href="#DejaVuSans-53"/>
       <use x="190.869141" xlink:href="#DejaVuSans-48"/>
      </g>
     </g>
    </g>
    <g id="ytick_7">
     <g id="line2d_11">
      <g>
       <use style="stroke:#000000;stroke-width:0.8;" x="54" xlink:href="#m6c20ee93cf" y="88.92"/>
      </g>
     </g>
     <g id="text_12">
      <!-- 2000 -->
      <g transform="translate(13.915 93.858984)scale(0.13 -0.13)">
       <use xlink:href="#DejaVuSans-50"/>
       <use x="63.623047" xlink:href="#DejaVuSans-48"/>
       <use x="127.246094" xlink:href="#DejaVuSans-48"/>
       <use x="190.869141" xlink:href="#DejaVuSans-48"/>
      </g>
     </g>
    </g>
    <g id="ytick_8">
     <g id="line2d_12">
      <g>
       <use style="stroke:#000000;stroke-width:0.8;" x="54" xlink:href="#m6c20ee93cf" y="61.74"/>
      </g>
     </g>
     <g id="text_13">
      <!-- 2250 -->
      <g transform="translate(13.915 66.678984)scale(0.13 -0.13)">
       <use xlink:href="#DejaVuSans-50"/>
       <use x="63.623047" xlink:href="#DejaVuSans-50"/>
       <use x="127.246094" xlink:href="#DejaVuSans-53"/>
       <use x="190.869141" xlink:href="#DejaVuSans-48"/>
      </g>
     </g>
    </g>
    <g id="ytick_9">
     <g id="line2d_13">
      <g>
       <use style="stroke:#000000;stroke-width:0.8;" x="54" xlink:href="#m6c20ee93cf" y="34.56"/>
      </g>
     </g>
     <g id="text_14">
      <!-- 2500 -->
      <g transform="translate(13.915 39.498984)scale(0.13 -0.13)">
       <use xlink:href="#DejaVuSans-50"/>
       <use x="63.623047" xlink:href="#DejaVuSans-53"/>
       <use x="127.246094" xlink:href="#DejaVuSans-48"/>
       <use x="190.869141" xlink:href="#DejaVuSans-48"/>
      </g>
     </g>
    </g>
    <g id="text_15">
     <!-- Spread Parameter [km] -->
     <defs>
      <path d="M 18.109375 8.203125 
L 18.109375 -20.796875 
L 9.078125 -20.796875 
L 9.078125 54.6875 
L 18.109375 54.6875 
L 18.109375 46.390625 
Q 20.953125 51.265625 25.265625 53.625 
Q 29.59375 56 35.59375 56 
Q 45.5625 56 51.78125 48.09375 
Q 58.015625 40.1875 58.015625 27.296875 
Q 58.015625 14.40625 51.78125 6.484375 
Q 45.5625 -1.421875 35.59375 -1.421875 
Q 29.59375 -1.421875 25.265625 0.953125 
Q 20.953125 3.328125 18.109375 8.203125 
z
M 48.6875 27.296875 
Q 48.6875 37.203125 44.609375 42.84375 
Q 40.53125 48.484375 33.40625 48.484375 
Q 26.265625 48.484375 22.1875 42.84375 
Q 18.109375 37.203125 18.109375 27.296875 
Q 18.109375 17.390625 22.1875 11.75 
Q 26.265625 6.109375 33.40625 6.109375 
Q 40.53125 6.109375 44.609375 11.75 
Q 48.6875 17.390625 48.6875 27.296875 
z
" id="DejaVuSans-112"/>
      <path d="M 34.28125 27.484375 
Q 23.390625 27.484375 19.1875 25 
Q 14.984375 22.515625 14.984375 16.5 
Q 14.984375 11.71875 18.140625 8.90625 
Q 21.296875 6.109375 26.703125 6.109375 
Q 34.1875 6.109375 38.703125 11.40625 
Q 43.21875 16.703125 43.21875 25.484375 
L 43.21875 27.484375 
z
M 52.203125 31.203125 
L 52.203125 0 
L 43.21875 0 
L 43.21875 8.296875 
Q 40.140625 3.328125 35.546875 0.953125 
Q 30.953125 -1.421875 24.3125 -1.421875 
Q 15.921875 -1.421875 10.953125 3.296875 
Q 6 8.015625 6 15.921875 
Q 6 25.140625 12.171875 29.828125 
Q 18.359375 34.515625 30.609375 34.515625 
L 43.21875 34.515625 
L 43.21875 35.40625 
Q 43.21875 41.609375 39.140625 45 
Q 35.0625 48.390625 27.6875 48.390625 
Q 23 48.390625 18.546875 47.265625 
Q 14.109375 46.140625 10.015625 43.890625 
L 10.015625 52.203125 
Q 14.9375 54.109375 19.578125 55.046875 
Q 24.21875 56 28.609375 56 
Q 40.484375 56 46.34375 49.84375 
Q 52.203125 43.703125 52.203125 31.203125 
z
" id="DejaVuSans-97"/>
      <path d="M 19.671875 64.796875 
L 19.671875 37.40625 
L 32.078125 37.40625 
Q 38.96875 37.40625 42.71875 40.96875 
Q 46.484375 44.53125 46.484375 51.125 
Q 46.484375 57.671875 42.71875 61.234375 
Q 38.96875 64.796875 32.078125 64.796875 
z
M 9.8125 72.90625 
L 32.078125 72.90625 
Q 44.34375 72.90625 50.609375 67.359375 
Q 56.890625 61.8125 56.890625 51.125 
Q 56.890625 40.328125 50.609375 34.8125 
Q 44.34375 29.296875 32.078125 29.296875 
L 19.671875 29.296875 
L 19.671875 0 
L 9.8125 0 
z
" id="DejaVuSans-80"/>
      <path d="M 18.3125 70.21875 
L 18.3125 54.6875 
L 36.8125 54.6875 
L 36.8125 47.703125 
L 18.3125 47.703125 
L 18.3125 18.015625 
Q 18.3125 11.328125 20.140625 9.421875 
Q 21.96875 7.515625 27.59375 7.515625 
L 36.8125 7.515625 
L 36.8125 0 
L 27.59375 0 
Q 17.1875 0 13.234375 3.875 
Q 9.28125 7.765625 9.28125 18.015625 
L 9.28125 47.703125 
L 2.6875 47.703125 
L 2.6875 54.6875 
L 9.28125 54.6875 
L 9.28125 70.21875 
z
" id="DejaVuSans-116"/>
     </defs>
     <g transform="translate(7.211406 219.715937)rotate(-90)scale(0.13 -0.13)">
      <use xlink:href="#DejaVuSans-83"/>
      <use x="63.476562" xlink:href="#DejaVuSans-112"/>
      <use x="126.953125" xlink:href="#DejaVuSans-114"/>
      <use x="168.035156" xlink:href="#DejaVuSans-101"/>
      <use x="229.558594" xlink:href="#DejaVuSans-97"/>
      <use x="290.837891" xlink:href="#DejaVuSans-100"/>
      <use x="354.314453" xlink:href="#DejaVuSans-32"/>
      <use x="386.101562" xlink:href="#DejaVuSans-80"/>
      <use x="446.341797" xlink:href="#DejaVuSans-97"/>
      <use x="507.621094" xlink:href="#DejaVuSans-114"/>
      <use x="548.734375" xlink:href="#DejaVuSans-97"/>
      <use x="610.013672" xlink:href="#DejaVuSans-109"/>
      <use x="707.425781" xlink:href="#DejaVuSans-101"/>
      <use x="768.949219" xlink:href="#DejaVuSans-116"/>
      <use x="808.158203" xlink:href="#DejaVuSans-101"/>
      <use x="869.681641" xlink:href="#DejaVuSans-114"/>
      <use x="910.794922" xlink:href="#DejaVuSans-32"/>
      <use x="942.582031" xlink:href="#DejaVuSans-91"/>
      <use x="981.595703" xlink:href="#DejaVuSans-107"/>
      <use x="1039.505859" xlink:href="#DejaVuSans-109"/>
      <use x="1136.917969" xlink:href="#DejaVuSans-93"/>
     </g>
    </g>
   </g>
   <g id="patch_3">
    <path d="M 54 252 
L 54 34.56 
" style="fill:none;stroke:#000000;stroke-linecap:square;stroke-linejoin:miter;stroke-width:0.8;"/>
   </g>
   <g id="patch_4">
    <path d="M 321.84 252 
L 321.84 34.56 
" style="fill:none;stroke:#000000;stroke-linecap:square;stroke-linejoin:miter;stroke-width:0.8;"/>
   </g>
   <g id="patch_5">
    <path d="M 54 252 
L 321.84 252 
" style="fill:none;stroke:#000000;stroke-linecap:square;stroke-linejoin:miter;stroke-width:0.8;"/>
   </g>
   <g id="patch_6">
    <path d="M 54 34.56 
L 321.84 34.56 
" style="fill:none;stroke:#000000;stroke-linecap:square;stroke-linejoin:miter;stroke-width:0.8;"/>
   </g>
   <g id="text_16">
    <!-- Error: |M2-v2| -->
    <defs>
     <path d="M 9.8125 72.90625 
L 55.90625 72.90625 
L 55.90625 64.59375 
L 19.671875 64.59375 
L 19.671875 43.015625 
L 54.390625 43.015625 
L 54.390625 34.71875 
L 19.671875 34.71875 
L 19.671875 8.296875 
L 56.78125 8.296875 
L 56.78125 0 
L 9.8125 0 
z
" id="DejaVuSans-69"/>
     <path d="M 30.609375 48.390625 
Q 23.390625 48.390625 19.1875 42.75 
Q 14.984375 37.109375 14.984375 27.296875 
Q 14.984375 17.484375 19.15625 11.84375 
Q 23.34375 6.203125 30.609375 6.203125 
Q 37.796875 6.203125 41.984375 11.859375 
Q 46.1875 17.53125 46.1875 27.296875 
Q 46.1875 37.015625 41.984375 42.703125 
Q 37.796875 48.390625 30.609375 48.390625 
z
M 30.609375 56 
Q 42.328125 56 49.015625 48.375 
Q 55.71875 40.765625 55.71875 27.296875 
Q 55.71875 13.875 49.015625 6.21875 
Q 42.328125 -1.421875 30.609375 -1.421875 
Q 18.84375 -1.421875 12.171875 6.21875 
Q 5.515625 13.875 5.515625 27.296875 
Q 5.515625 40.765625 12.171875 48.375 
Q 18.84375 56 30.609375 56 
z
" id="DejaVuSans-111"/>
     <path d="M 11.71875 12.40625 
L 22.015625 12.40625 
L 22.015625 0 
L 11.71875 0 
z
M 11.71875 51.703125 
L 22.015625 51.703125 
L 22.015625 39.3125 
L 11.71875 39.3125 
z
" id="DejaVuSans-58"/>
     <path d="M 21 76.421875 
L 21 -23.578125 
L 12.703125 -23.578125 
L 12.703125 76.421875 
z
" id="DejaVuSans-124"/>
     <path d="M 9.8125 72.90625 
L 24.515625 72.90625 
L 43.109375 23.296875 
L 61.8125 72.90625 
L 76.515625 72.90625 
L 76.515625 0 
L 66.890625 0 
L 66.890625 64.015625 
L 48.09375 14.015625 
L 38.1875 14.015625 
L 19.390625 64.015625 
L 19.390625 0 
L 9.8125 0 
z
" id="DejaVuSans-77"/>
     <path d="M 4.890625 31.390625 
L 31.203125 31.390625 
L 31.203125 23.390625 
L 4.890625 23.390625 
z
" id="DejaVuSans-45"/>
     <path d="M 2.984375 54.6875 
L 12.5 54.6875 
L 29.59375 8.796875 
L 46.6875 54.6875 
L 56.203125 54.6875 
L 35.6875 0 
L 23.484375 0 
z
" id="DejaVuSans-118"/>
    </defs>
    <g transform="translate(134.1585 28.56)scale(0.156 -0.156)">
     <use xlink:href="#DejaVuSans-69"/>
     <use x="63.183594" xlink:href="#DejaVuSans-114"/>
     <use x="104.28125" xlink:href="#DejaVuSans-114"/>
     <use x="145.363281" xlink:href="#DejaVuSans-111"/>
     <use x="206.544922" xlink:href="#DejaVuSans-114"/>
     <use x="247.642578" xlink:href="#DejaVuSans-58"/>
     <use x="281.333984" xlink:href="#DejaVuSans-32"/>
     <use x="313.121094" xlink:href="#DejaVuSans-124"/>
     <use x="346.8125" xlink:href="#DejaVuSans-77"/>
     <use x="433.091797" xlink:href="#DejaVuSans-50"/>
     <use x="496.714844" xlink:href="#DejaVuSans-45"/>
     <use x="532.767578" xlink:href="#DejaVuSans-118"/>
     <use x="591.947266" xlink:href="#DejaVuSans-50"/>
     <use x="655.570312" xlink:href="#DejaVuSans-124"/>
    </g>
   </g>
  </g>
  <g id="axes_2">
   <g id="patch_7">
    <path clip-path="url(#pdb52056715)" d="M 338.58 252 
L 338.58 227.84 
L 338.58 58.72 
L 338.58 34.56 
L 349.452 34.56 
L 349.452 58.72 
L 349.452 227.84 
L 349.452 252 
z
" style="fill:#ffffff;stroke:#ffffff;stroke-linejoin:miter;stroke-width:0.01;"/>
   </g>
   <g id="QuadMesh_1">
    <path clip-path="url(#pdb52056715)" d="M 338.58 252 
L 349.452 252 
L 349.452 227.84 
L 338.58 227.84 
L 338.58 252 
" style="fill:#ffece3;"/>
    <path clip-path="url(#pdb52056715)" d="M 338.58 227.84 
L 349.452 227.84 
L 349.452 203.68 
L 338.58 203.68 
L 338.58 227.84 
" style="fill:#fdd4c2;"/>
    <path clip-path="url(#pdb52056715)" d="M 338.58 203.68 
L 349.452 203.68 
L 349.452 179.52 
L 338.58 179.52 
L 338.58 203.68 
" style="fill:#fcb296;"/>
    <path clip-path="url(#pdb52056715)" d="M 338.58 179.52 
L 349.452 179.52 
L 349.452 155.36 
L 338.58 155.36 
L 338.58 179.52 
" style="fill:#fc8e6e;"/>
    <path clip-path="url(#pdb52056715)" d="M 338.58 155.36 
L 349.452 155.36 
L 349.452 131.2 
L 338.58 131.2 
L 338.58 155.36 
" style="fill:#fb694a;"/>
    <path clip-path="url(#pdb52056715)" d="M 338.58 131.2 
L 349.452 131.2 
L 349.452 107.04 
L 338.58 107.04 
L 338.58 131.2 
" style="fill:#f0402f;"/>
    <path clip-path="url(#pdb52056715)" d="M 338.58 107.04 
L 349.452 107.04 
L 349.452 82.88 
L 338.58 82.88 
L 338.58 107.04 
" style="fill:#d32020;"/>
    <path clip-path="url(#pdb52056715)" d="M 338.58 82.88 
L 349.452 82.88 
L 349.452 58.72 
L 338.58 58.72 
L 338.58 82.88 
" style="fill:#b11218;"/>
    <path clip-path="url(#pdb52056715)" d="M 338.58 58.72 
L 349.452 58.72 
L 349.452 34.56 
L 338.58 34.56 
L 338.58 58.72 
" style="fill:#820711;"/>
   </g>
   <g id="matplotlib.axis_3"/>
   <g id="matplotlib.axis_4">
    <g id="ytick_10">
     <g id="line2d_14">
      <defs>
       <path d="M 0 0 
L 3.5 0 
" id="mc774262981" style="stroke:#000000;stroke-width:0.8;"/>
      </defs>
      <g>
       <use style="stroke:#000000;stroke-width:0.8;" x="349.452" xlink:href="#mc774262981" y="252"/>
      </g>
     </g>
     <g id="text_17">
      <!-- 0 -->
      <g transform="translate(356.452 256.938984)scale(0.13 -0.13)">
       <use xlink:href="#DejaVuSans-48"/>
      </g>
     </g>
    </g>
    <g id="ytick_11">
     <g id="line2d_15">
      <g>
       <use style="stroke:#000000;stroke-width:0.8;" x="349.452" xlink:href="#mc774262981" y="227.84"/>
      </g>
     </g>
     <g id="text_18">
      <!-- 15 -->
      <g transform="translate(356.452 232.778984)scale(0.13 -0.13)">
       <use xlink:href="#DejaVuSans-49"/>
       <use x="63.623047" xlink:href="#DejaVuSans-53"/>
      </g>
     </g>
    </g>
    <g id="ytick_12">
     <g id="line2d_16">
      <g>
       <use style="stroke:#000000;stroke-width:0.8;" x="349.452" xlink:href="#mc774262981" y="203.68"/>
      </g>
     </g>
     <g id="text_19">
      <!-- 30 -->
      <defs>
       <path d="M 40.578125 39.3125 
Q 47.65625 37.796875 51.625 33 
Q 55.609375 28.21875 55.609375 21.1875 
Q 55.609375 10.40625 48.1875 4.484375 
Q 40.765625 -1.421875 27.09375 -1.421875 
Q 22.515625 -1.421875 17.65625 -0.515625 
Q 12.796875 0.390625 7.625 2.203125 
L 7.625 11.71875 
Q 11.71875 9.328125 16.59375 8.109375 
Q 21.484375 6.890625 26.8125 6.890625 
Q 36.078125 6.890625 40.9375 10.546875 
Q 45.796875 14.203125 45.796875 21.1875 
Q 45.796875 27.640625 41.28125 31.265625 
Q 36.765625 34.90625 28.71875 34.90625 
L 20.21875 34.90625 
L 20.21875 43.015625 
L 29.109375 43.015625 
Q 36.375 43.015625 40.234375 45.921875 
Q 44.09375 48.828125 44.09375 54.296875 
Q 44.09375 59.90625 40.109375 62.90625 
Q 36.140625 65.921875 28.71875 65.921875 
Q 24.65625 65.921875 20.015625 65.03125 
Q 15.375 64.15625 9.8125 62.3125 
L 9.8125 71.09375 
Q 15.4375 72.65625 20.34375 73.4375 
Q 25.25 74.21875 29.59375 74.21875 
Q 40.828125 74.21875 47.359375 69.109375 
Q 53.90625 64.015625 53.90625 55.328125 
Q 53.90625 49.265625 50.4375 45.09375 
Q 46.96875 40.921875 40.578125 39.3125 
z
" id="DejaVuSans-51"/>
      </defs>
      <g transform="translate(356.452 208.618984)scale(0.13 -0.13)">
       <use xlink:href="#DejaVuSans-51"/>
       <use x="63.623047" xlink:href="#DejaVuSans-48"/>
      </g>
     </g>
    </g>
    <g id="ytick_13">
     <g id="line2d_17">
      <g>
       <use style="stroke:#000000;stroke-width:0.8;" x="349.452" xlink:href="#mc774262981" y="179.52"/>
      </g>
     </g>
     <g id="text_20">
      <!-- 45 -->
      <defs>
       <path d="M 37.796875 64.3125 
L 12.890625 25.390625 
L 37.796875 25.390625 
z
M 35.203125 72.90625 
L 47.609375 72.90625 
L 47.609375 25.390625 
L 58.015625 25.390625 
L 58.015625 17.1875 
L 47.609375 17.1875 
L 47.609375 0 
L 37.796875 0 
L 37.796875 17.1875 
L 4.890625 17.1875 
L 4.890625 26.703125 
z
" id="DejaVuSans-52"/>
      </defs>
      <g transform="translate(356.452 184.458984)scale(0.13 -0.13)">
       <use xlink:href="#DejaVuSans-52"/>
       <use x="63.623047" xlink:href="#DejaVuSans-53"/>
      </g>
     </g>
    </g>
    <g id="ytick_14">
     <g id="line2d_18">
      <g>
       <use style="stroke:#000000;stroke-width:0.8;" x="349.452" xlink:href="#mc774262981" y="155.36"/>
      </g>
     </g>
     <g id="text_21">
      <!-- 60 -->
      <defs>
       <path d="M 33.015625 40.375 
Q 26.375 40.375 22.484375 35.828125 
Q 18.609375 31.296875 18.609375 23.390625 
Q 18.609375 15.53125 22.484375 10.953125 
Q 26.375 6.390625 33.015625 6.390625 
Q 39.65625 6.390625 43.53125 10.953125 
Q 47.40625 15.53125 47.40625 23.390625 
Q 47.40625 31.296875 43.53125 35.828125 
Q 39.65625 40.375 33.015625 40.375 
z
M 52.59375 71.296875 
L 52.59375 62.3125 
Q 48.875 64.0625 45.09375 64.984375 
Q 41.3125 65.921875 37.59375 65.921875 
Q 27.828125 65.921875 22.671875 59.328125 
Q 17.53125 52.734375 16.796875 39.40625 
Q 19.671875 43.65625 24.015625 45.921875 
Q 28.375 48.1875 33.59375 48.1875 
Q 44.578125 48.1875 50.953125 41.515625 
Q 57.328125 34.859375 57.328125 23.390625 
Q 57.328125 12.15625 50.6875 5.359375 
Q 44.046875 -1.421875 33.015625 -1.421875 
Q 20.359375 -1.421875 13.671875 8.265625 
Q 6.984375 17.96875 6.984375 36.375 
Q 6.984375 53.65625 15.1875 63.9375 
Q 23.390625 74.21875 37.203125 74.21875 
Q 40.921875 74.21875 44.703125 73.484375 
Q 48.484375 72.75 52.59375 71.296875 
z
" id="DejaVuSans-54"/>
      </defs>
      <g transform="translate(356.452 160.298984)scale(0.13 -0.13)">
       <use xlink:href="#DejaVuSans-54"/>
       <use x="63.623047" xlink:href="#DejaVuSans-48"/>
      </g>
     </g>
    </g>
    <g id="ytick_15">
     <g id="line2d_19">
      <g>
       <use style="stroke:#000000;stroke-width:0.8;" x="349.452" xlink:href="#mc774262981" y="131.2"/>
      </g>
     </g>
     <g id="text_22">
      <!-- 75 -->
      <g transform="translate(356.452 136.138984)scale(0.13 -0.13)">
       <use xlink:href="#DejaVuSans-55"/>
       <use x="63.623047" xlink:href="#DejaVuSans-53"/>
      </g>
     </g>
    </g>
    <g id="ytick_16">
     <g id="line2d_20">
      <g>
       <use style="stroke:#000000;stroke-width:0.8;" x="349.452" xlink:href="#mc774262981" y="107.04"/>
      </g>
     </g>
     <g id="text_23">
      <!-- 90 -->
      <defs>
       <path d="M 10.984375 1.515625 
L 10.984375 10.5 
Q 14.703125 8.734375 18.5 7.8125 
Q 22.3125 6.890625 25.984375 6.890625 
Q 35.75 6.890625 40.890625 13.453125 
Q 46.046875 20.015625 46.78125 33.40625 
Q 43.953125 29.203125 39.59375 26.953125 
Q 35.25 24.703125 29.984375 24.703125 
Q 19.046875 24.703125 12.671875 31.3125 
Q 6.296875 37.9375 6.296875 49.421875 
Q 6.296875 60.640625 12.9375 67.421875 
Q 19.578125 74.21875 30.609375 74.21875 
Q 43.265625 74.21875 49.921875 64.515625 
Q 56.59375 54.828125 56.59375 36.375 
Q 56.59375 19.140625 48.40625 8.859375 
Q 40.234375 -1.421875 26.421875 -1.421875 
Q 22.703125 -1.421875 18.890625 -0.6875 
Q 15.09375 0.046875 10.984375 1.515625 
z
M 30.609375 32.421875 
Q 37.25 32.421875 41.125 36.953125 
Q 45.015625 41.5 45.015625 49.421875 
Q 45.015625 57.28125 41.125 61.84375 
Q 37.25 66.40625 30.609375 66.40625 
Q 23.96875 66.40625 20.09375 61.84375 
Q 16.21875 57.28125 16.21875 49.421875 
Q 16.21875 41.5 20.09375 36.953125 
Q 23.96875 32.421875 30.609375 32.421875 
z
" id="DejaVuSans-57"/>
      </defs>
      <g transform="translate(356.452 111.978984)scale(0.13 -0.13)">
       <use xlink:href="#DejaVuSans-57"/>
       <use x="63.623047" xlink:href="#DejaVuSans-48"/>
      </g>
     </g>
    </g>
    <g id="ytick_17">
     <g id="line2d_21">
      <g>
       <use style="stroke:#000000;stroke-width:0.8;" x="349.452" xlink:href="#mc774262981" y="82.88"/>
      </g>
     </g>
     <g id="text_24">
      <!-- 105 -->
      <g transform="translate(356.452 87.818984)scale(0.13 -0.13)">
       <use xlink:href="#DejaVuSans-49"/>
       <use x="63.623047" xlink:href="#DejaVuSans-48"/>
       <use x="127.246094" xlink:href="#DejaVuSans-53"/>
      </g>
     </g>
    </g>
    <g id="ytick_18">
     <g id="line2d_22">
      <g>
       <use style="stroke:#000000;stroke-width:0.8;" x="349.452" xlink:href="#mc774262981" y="58.72"/>
      </g>
     </g>
     <g id="text_25">
      <!-- 120 -->
      <g transform="translate(356.452 63.658984)scale(0.13 -0.13)">
       <use xlink:href="#DejaVuSans-49"/>
       <use x="63.623047" xlink:href="#DejaVuSans-50"/>
       <use x="127.246094" xlink:href="#DejaVuSans-48"/>
      </g>
     </g>
    </g>
    <g id="ytick_19">
     <g id="line2d_23">
      <g>
       <use style="stroke:#000000;stroke-width:0.8;" x="349.452" xlink:href="#mc774262981" y="34.56"/>
      </g>
     </g>
     <g id="text_26">
      <!-- 135 -->
      <g transform="translate(356.452 39.498984)scale(0.13 -0.13)">
       <use xlink:href="#DejaVuSans-49"/>
       <use x="63.623047" xlink:href="#DejaVuSans-51"/>
       <use x="127.246094" xlink:href="#DejaVuSans-53"/>
      </g>
     </g>
    </g>
   </g>
   <g id="patch_8">
    <path d="M 338.58 252 
L 338.58 227.84 
L 338.58 58.72 
L 338.58 34.56 
L 349.452 34.56 
L 349.452 58.72 
L 349.452 227.84 
L 349.452 252 
z
" style="fill:none;stroke:#000000;stroke-linejoin:miter;stroke-width:0.8;"/>
   </g>
  </g>
 </g>
 <defs>
  <clipPath id="pfaed7f89ef">
   <rect height="217.44" width="267.84" x="54" y="34.56"/>
  </clipPath>
  <clipPath id="pdb52056715">
   <rect height="217.44" width="10.872" x="338.58" y="34.56"/>
  </clipPath>
 </defs>
</svg>
