<?xml version="1.0" encoding="utf-8" standalone="no"?>
<!DOCTYPE svg PUBLIC "-//W3C//DTD SVG 1.1//EN"
  "http://www.w3.org/Graphics/SVG/1.1/DTD/svg11.dtd">
<!-- Created with matplotlib (https://matplotlib.org/) -->
<svg height="288pt" version="1.1" viewBox="0 0 432 288" width="432pt" xmlns="http://www.w3.org/2000/svg" xmlns:xlink="http://www.w3.org/1999/xlink">
 <defs>
  <style type="text/css">
*{stroke-linecap:butt;stroke-linejoin:round;white-space:pre;}
  </style>
 </defs>
 <g id="figure_1">
  <g id="patch_1">
   <path d="M 0 288 
L 432 288 
L 432 0 
L 0 0 
z
" style="fill:#ffffff;"/>
  </g>
  <g id="axes_1">
   <g id="patch_2">
    <path d="M 54 252 
L 321.84 252 
L 321.84 34.56 
L 54 34.56 
z
" style="fill:#ffffff;"/>
   </g>
   <g id="PathCollection_1">
    <path clip-path="url(#p01d1c4fedc)" d="M 56.705455 252 
L 59.410909 252 
L 62.116364 252 
L 64.821818 252 
L 67.527273 252 
L 70.232727 252 
L 72.938182 252 
L 75.643636 252 
L 77.262451 252 
L 78.349091 249.512875 
L 79.271182 247.562449 
L 81.054545 243.590899 
L 81.279667 243.124898 
L 83.288582 238.687347 
L 83.76 237.594287 
L 85.297541 234.249796 
L 86.465455 231.605228 
L 87.306271 229.812245 
L 89.170909 225.676307 
L 89.31481 225.374694 
L 91.323769 220.937143 
L 91.876364 219.670929 
L 93.332678 216.499592 
L 94.581818 213.689821 
L 95.341405 212.062041 
L 97.287273 207.756951 
L 97.349976 207.62449 
L 99.358963 203.186939 
L 99.992727 201.746086 
L 101.367838 198.749388 
L 102.698182 195.77043 
L 103.376563 194.311837 
L 105.385169 189.874286 
L 105.403636 189.831946 
L 107.394161 185.436735 
L 108.109091 183.82041 
L 109.403011 180.999184 
L 110.814545 177.848723 
L 111.411734 176.561633 
L 113.420408 172.124082 
L 113.52 171.897156 
L 115.429362 167.686531 
L 116.225455 165.89422 
L 117.438193 163.24898 
L 118.930909 159.925551 
L 119.446914 158.811429 
L 121.45564 154.373878 
L 121.636364 153.964036 
L 123.464564 149.936327 
L 124.341818 147.96769 
L 125.473381 145.498776 
L 127.047273 142.001394 
L 127.4821 141.061224 
L 129.490866 136.623673 
L 129.752727 136.03206 
L 131.499767 132.186122 
L 132.458182 130.040924 
L 133.508573 127.748571 
L 135.163636 124.076541 
L 135.51729 123.31102 
L 137.52609 118.873469 
L 137.869091 118.1009 
L 139.534971 114.435918 
L 140.574545 112.113988 
L 141.543767 109.998367 
L 143.28 106.151181 
L 143.552483 105.560816 
L 145.56131 101.123265 
L 145.985455 100.170344 
L 147.570176 96.685714 
L 148.690909 94.186925 
L 149.578964 92.248163 
L 151.396364 88.225437 
L 151.587679 87.810612 
L 153.596529 83.373061 
L 154.101818 82.240247 
L 155.605381 78.93551 
L 156.807273 76.259764 
L 157.614163 74.497959 
L 159.512727 70.299398 
L 159.622876 70.060408 
L 161.631745 65.622857 
L 162.218182 64.310506 
L 163.640587 61.185306 
L 164.923636 58.332527 
L 165.649362 56.747755 
L 167.629091 52.373126 
L 167.658075 52.310204 
L 169.666961 47.872653 
L 170.334545 46.381049 
L 171.675793 43.435102 
L 173.04 40.405229 
L 173.684563 38.997551 
L 175.693292 34.56 
L 173.04 34.56 
L 170.334545 34.56 
L 167.629091 34.56 
L 164.923636 34.56 
L 162.218182 34.56 
L 159.512727 34.56 
L 156.807273 34.56 
L 154.101818 34.56 
L 151.396364 34.56 
L 148.690909 34.56 
L 145.985455 34.56 
L 143.28 34.56 
L 140.574545 34.56 
L 137.869091 34.56 
L 135.163636 34.56 
L 132.458182 34.56 
L 129.752727 34.56 
L 127.047273 34.56 
L 124.341818 34.56 
L 121.636364 34.56 
L 118.930909 34.56 
L 116.225455 34.56 
L 113.52 34.56 
L 110.814545 34.56 
L 108.109091 34.56 
L 105.403636 34.56 
L 102.698182 34.56 
L 99.992727 34.56 
L 97.287273 34.56 
L 94.581818 34.56 
L 91.876364 34.56 
L 89.170909 34.56 
L 86.465455 34.56 
L 83.76 34.56 
L 81.054545 34.56 
L 78.349091 34.56 
L 75.643636 34.56 
L 72.938182 34.56 
L 70.232727 34.56 
L 67.527273 34.56 
L 64.821818 34.56 
L 62.116364 34.56 
L 59.410909 34.56 
L 56.705455 34.56 
L 54 34.56 
L 54 38.997551 
L 54 43.435102 
L 54 47.872653 
L 54 52.310204 
L 54 56.747755 
L 54 61.185306 
L 54 65.622857 
L 54 70.060408 
L 54 74.497959 
L 54 78.93551 
L 54 83.373061 
L 54 87.810612 
L 54 92.248163 
L 54 96.685714 
L 54 101.123265 
L 54 105.560816 
L 54 109.998367 
L 54 114.435918 
L 54 118.873469 
L 54 123.31102 
L 54 127.748571 
L 54 132.186122 
L 54 136.623673 
L 54 141.061224 
L 54 145.498776 
L 54 149.936327 
L 54 154.373878 
L 54 158.811429 
L 54 163.24898 
L 54 167.686531 
L 54 172.124082 
L 54 176.561633 
L 54 180.999184 
L 54 185.436735 
L 54 189.874286 
L 54 194.311837 
L 54 198.749388 
L 54 203.186939 
L 54 207.62449 
L 54 212.062041 
L 54 216.499592 
L 54 220.937143 
L 54 225.374694 
L 54 229.812245 
L 54 234.249796 
L 54 238.687347 
L 54 243.124898 
L 54 247.562449 
L 54 252 
z
" style="fill:#ffeee6;"/>
   </g>
   <g id="PathCollection_2">
    <path clip-path="url(#p01d1c4fedc)" d="M 78.349091 252 
L 81.054545 252 
L 83.76 252 
L 86.465455 252 
L 89.170909 252 
L 91.876364 252 
L 94.581818 252 
L 97.287273 252 
L 99.992727 252 
L 102.246397 252 
L 102.698182 251.469373 
L 105.403636 248.481334 
L 106.294876 247.562449 
L 108.109091 245.494434 
L 110.343014 243.124898 
L 110.814545 242.576414 
L 113.52 239.593095 
L 114.391462 238.687347 
L 116.225455 236.60766 
L 118.43964 234.249796 
L 118.930909 233.68255 
L 121.636364 230.702875 
L 122.488063 229.812245 
L 124.341818 227.718648 
L 126.536271 225.374694 
L 127.047273 224.788076 
L 129.752727 221.811301 
L 130.584675 220.937143 
L 132.458182 218.828081 
L 134.632907 216.499592 
L 135.163636 215.893174 
L 137.869091 212.918758 
L 138.681294 212.062041 
L 140.574545 209.93639 
L 142.729546 207.62449 
L 143.28 206.997957 
L 145.985455 204.0255 
L 146.777919 203.186939 
L 148.690909 201.04386 
L 150.826187 198.749388 
L 151.396364 198.102504 
L 154.101818 195.131698 
L 154.874549 194.311837 
L 156.807273 192.150687 
L 158.92283 189.874286 
L 159.512727 189.206868 
L 162.218182 186.237474 
L 162.971181 185.436735 
L 164.923636 183.257011 
L 167.019474 180.999184 
L 167.629091 180.311088 
L 170.334545 177.342914 
L 171.067817 176.561633 
L 173.04 174.362932 
L 175.116119 172.124082 
L 175.745455 171.415192 
L 178.450909 168.448083 
L 179.164455 167.686531 
L 181.156364 165.468528 
L 183.212765 163.24898 
L 183.861818 162.519202 
L 186.567273 159.553032 
L 187.261094 158.811429 
L 189.272727 156.573857 
L 191.309412 154.373878 
L 191.978182 153.623135 
L 194.683636 150.657797 
L 195.357735 149.936327 
L 197.389091 147.678962 
L 199.406059 145.498776 
L 200.094545 144.727003 
L 202.8 141.762408 
L 203.454377 141.061224 
L 205.505455 138.783881 
L 207.502707 136.623673 
L 208.210909 135.830816 
L 210.916364 132.866889 
L 211.55102 132.186122 
L 213.621818 129.888641 
L 215.599356 127.748571 
L 216.327273 126.934583 
L 219.032727 123.97126 
L 219.647664 123.31102 
L 221.738182 120.993265 
L 223.696005 118.873469 
L 224.443636 118.03831 
L 227.149091 115.075535 
L 227.744309 114.435918 
L 229.854545 112.097772 
L 231.792654 109.998367 
L 232.56 109.142002 
L 235.265455 106.179727 
L 235.840955 105.560816 
L 237.970909 103.202177 
L 239.889303 101.123265 
L 240.676364 100.245664 
L 243.381818 97.283847 
L 243.937601 96.685714 
L 246.087273 94.306493 
L 247.985953 92.248163 
L 248.792727 91.3493 
L 251.498182 88.387904 
L 252.034248 87.810612 
L 254.203636 85.410731 
L 256.082603 83.373061 
L 256.909091 82.452913 
L 259.614545 79.491904 
L 260.130895 78.93551 
L 262.32 76.514899 
L 264.179253 74.497959 
L 265.025455 73.556505 
L 267.730909 70.595856 
L 268.227542 70.060408 
L 270.436364 67.619006 
L 272.275903 65.622857 
L 273.141818 64.660079 
L 275.847273 61.699763 
L 276.32419 61.185306 
L 278.552727 58.723058 
L 280.372553 56.747755 
L 281.258182 55.763637 
L 283.963636 52.80363 
L 284.420838 52.310204 
L 286.669091 49.827061 
L 288.469204 47.872653 
L 289.374545 46.86718 
L 292.08 43.907462 
L 292.517487 43.435102 
L 294.785455 40.93102 
L 296.565855 38.997551 
L 297.490909 37.970709 
L 300.196364 35.011262 
L 300.614135 34.56 
L 300.196364 34.56 
L 297.490909 34.56 
L 294.785455 34.56 
L 292.08 34.56 
L 289.374545 34.56 
L 286.669091 34.56 
L 283.963636 34.56 
L 281.258182 34.56 
L 278.552727 34.56 
L 275.847273 34.56 
L 273.141818 34.56 
L 270.436364 34.56 
L 267.730909 34.56 
L 265.025455 34.56 
L 262.32 34.56 
L 259.614545 34.56 
L 256.909091 34.56 
L 254.203636 34.56 
L 251.498182 34.56 
L 248.792727 34.56 
L 246.087273 34.56 
L 243.381818 34.56 
L 240.676364 34.56 
L 237.970909 34.56 
L 235.265455 34.56 
L 232.56 34.56 
L 229.854545 34.56 
L 227.149091 34.56 
L 224.443636 34.56 
L 221.738182 34.56 
L 219.032727 34.56 
L 216.327273 34.56 
L 213.621818 34.56 
L 210.916364 34.56 
L 208.210909 34.56 
L 205.505455 34.56 
L 202.8 34.56 
L 200.094545 34.56 
L 197.389091 34.56 
L 194.683636 34.56 
L 191.978182 34.56 
L 189.272727 34.56 
L 186.567273 34.56 
L 183.861818 34.56 
L 181.156364 34.56 
L 178.450909 34.56 
L 175.745455 34.56 
L 175.693292 34.56 
L 173.684563 38.997551 
L 173.04 40.405229 
L 171.675793 43.435102 
L 170.334545 46.381049 
L 169.666961 47.872653 
L 167.658075 52.310204 
L 167.629091 52.373126 
L 165.649362 56.747755 
L 164.923636 58.332527 
L 163.640587 61.185306 
L 162.218182 64.310506 
L 161.631745 65.622857 
L 159.622876 70.060408 
L 159.512727 70.299398 
L 157.614163 74.497959 
L 156.807273 76.259764 
L 155.605381 78.93551 
L 154.101818 82.240247 
L 153.596529 83.373061 
L 151.587679 87.810612 
L 151.396364 88.225437 
L 149.578964 92.248163 
L 148.690909 94.186925 
L 147.570176 96.685714 
L 145.985455 100.170344 
L 145.56131 101.123265 
L 143.552483 105.560816 
L 143.28 106.151181 
L 141.543767 109.998367 
L 140.574545 112.113988 
L 139.534971 114.435918 
L 137.869091 118.1009 
L 137.52609 118.873469 
L 135.51729 123.31102 
L 135.163636 124.076541 
L 133.508573 127.748571 
L 132.458182 130.040924 
L 131.499767 132.186122 
L 129.752727 136.03206 
L 129.490866 136.623673 
L 127.4821 141.061224 
L 127.047273 142.001394 
L 125.473381 145.498776 
L 124.341818 147.96769 
L 123.464564 149.936327 
L 121.636364 153.964036 
L 121.45564 154.373878 
L 119.446914 158.811429 
L 118.930909 159.925551 
L 117.438193 163.24898 
L 116.225455 165.89422 
L 115.429362 167.686531 
L 113.52 171.897156 
L 113.420408 172.124082 
L 111.411734 176.561633 
L 110.814545 177.848723 
L 109.403011 180.999184 
L 108.109091 183.82041 
L 107.394161 185.436735 
L 105.403636 189.831946 
L 105.385169 189.874286 
L 103.376563 194.311837 
L 102.698182 195.77043 
L 101.367838 198.749388 
L 99.992727 201.746086 
L 99.358963 203.186939 
L 97.349976 207.62449 
L 97.287273 207.756951 
L 95.341405 212.062041 
L 94.581818 213.689821 
L 93.332678 216.499592 
L 91.876364 219.670929 
L 91.323769 220.937143 
L 89.31481 225.374694 
L 89.170909 225.676307 
L 87.306271 229.812245 
L 86.465455 231.605228 
L 85.297541 234.249796 
L 83.76 237.594287 
L 83.288582 238.687347 
L 81.279667 243.124898 
L 81.054545 243.590899 
L 79.271182 247.562449 
L 78.349091 249.512875 
L 77.262451 252 
z
" style="fill:#fedecf;"/>
   </g>
   <g id="PathCollection_3">
    <path clip-path="url(#p01d1c4fedc)" d="M 102.698182 252 
L 105.403636 252 
L 108.109091 252 
L 110.814545 252 
L 113.52 252 
L 116.225455 252 
L 118.930909 252 
L 121.636364 252 
L 124.341818 252 
L 127.047273 252 
L 127.636573 252 
L 129.752727 250.387837 
L 132.458182 248.448686 
L 133.757707 247.562449 
L 135.163636 246.485971 
L 137.869091 244.512876 
L 139.878531 243.124898 
L 140.574545 242.589642 
L 143.28 240.586488 
L 145.985455 238.69662 
L 145.999126 238.687347 
L 148.690909 236.667931 
L 151.396364 234.746527 
L 152.120464 234.249796 
L 154.101818 232.755951 
L 156.807273 230.806117 
L 158.241522 229.812245 
L 159.512727 228.84955 
L 162.218182 226.873954 
L 164.362346 225.374694 
L 164.923636 224.947921 
L 167.629091 222.948875 
L 170.334545 221.039487 
L 170.483144 220.937143 
L 173.04 219.029925 
L 175.745455 217.096106 
L 176.60437 216.499592 
L 178.450909 215.116313 
L 181.156364 213.160007 
L 182.725379 212.062041 
L 183.861818 211.20738 
L 186.567273 209.230309 
L 188.846201 207.62449 
L 189.272727 207.302569 
L 191.978182 205.306265 
L 194.683636 203.384145 
L 194.96713 203.186939 
L 197.389091 201.387241 
L 200.094545 199.445193 
L 201.088283 198.749388 
L 202.8 197.472696 
L 205.505455 195.51205 
L 207.209259 194.311837 
L 208.210909 193.562161 
L 210.916364 191.584121 
L 213.330079 189.874286 
L 213.621818 189.655233 
L 216.327273 187.660888 
L 219.032727 185.729807 
L 219.4511 185.436735 
L 221.738182 183.741901 
L 224.443636 181.793998 
L 225.5722 180.999184 
L 227.149091 179.826764 
L 229.854545 177.863007 
L 231.693152 176.561633 
L 232.56 175.915131 
L 235.265455 173.936407 
L 237.81397 172.124082 
L 237.970909 172.006695 
L 240.676364 170.013819 
L 243.381818 168.07609 
L 243.935058 167.686531 
L 246.087273 166.094906 
L 248.792727 164.142625 
L 250.05612 163.24898 
L 251.498182 162.179368 
L 254.203636 160.213272 
L 256.177054 158.811429 
L 256.909091 158.266938 
L 259.614545 156.287706 
L 262.29787 154.373878 
L 262.32 154.357373 
L 265.025455 152.36564 
L 267.730909 150.422782 
L 268.41901 149.936327 
L 270.436364 148.446813 
L 273.141818 146.491134 
L 274.540042 145.498776 
L 275.847273 144.530988 
L 278.552727 142.563067 
L 280.660961 141.061224 
L 281.258182 140.617953 
L 283.963636 138.63833 
L 286.669091 136.703346 
L 286.78184 136.623673 
L 289.374545 134.716694 
L 292.08 132.769758 
L 292.902957 132.186122 
L 294.785455 130.797952 
L 297.490909 128.83956 
L 299.023965 127.748571 
L 300.196364 126.881913 
L 302.901818 124.912531 
L 305.144872 123.31102 
L 305.607273 122.968404 
L 308.312727 120.988471 
L 311.018182 119.048976 
L 311.265815 118.873469 
L 313.723636 117.067195 
L 316.429091 115.11694 
L 317.386901 114.435918 
L 319.134545 113.148534 
L 321.84 111.187925 
L 321.84 109.998367 
L 321.84 105.560816 
L 321.84 101.123265 
L 321.84 96.685714 
L 321.84 92.248163 
L 321.84 87.810612 
L 321.84 83.373061 
L 321.84 78.93551 
L 321.84 74.497959 
L 321.84 70.060408 
L 321.84 65.622857 
L 321.84 61.185306 
L 321.84 56.747755 
L 321.84 52.310204 
L 321.84 47.872653 
L 321.84 43.435102 
L 321.84 38.997551 
L 321.84 34.56 
L 319.134545 34.56 
L 316.429091 34.56 
L 313.723636 34.56 
L 311.018182 34.56 
L 308.312727 34.56 
L 305.607273 34.56 
L 302.901818 34.56 
L 300.614135 34.56 
L 300.196364 35.011262 
L 297.490909 37.970709 
L 296.565855 38.997551 
L 294.785455 40.93102 
L 292.517487 43.435102 
L 292.08 43.907462 
L 289.374545 46.86718 
L 288.469204 47.872653 
L 286.669091 49.827061 
L 284.420838 52.310204 
L 283.963636 52.80363 
L 281.258182 55.763637 
L 280.372553 56.747755 
L 278.552727 58.723058 
L 276.32419 61.185306 
L 275.847273 61.699763 
L 273.141818 64.660079 
L 272.275903 65.622857 
L 270.436364 67.619006 
L 268.227542 70.060408 
L 267.730909 70.595856 
L 265.025455 73.556505 
L 264.179253 74.497959 
L 262.32 76.514899 
L 260.130895 78.93551 
L 259.614545 79.491904 
L 256.909091 82.452913 
L 256.082603 83.373061 
L 254.203636 85.410731 
L 252.034248 87.810612 
L 251.498182 88.387904 
L 248.792727 91.3493 
L 247.985953 92.248163 
L 246.087273 94.306493 
L 243.937601 96.685714 
L 243.381818 97.283847 
L 240.676364 100.245664 
L 239.889303 101.123265 
L 237.970909 103.202177 
L 235.840955 105.560816 
L 235.265455 106.179727 
L 232.56 109.142002 
L 231.792654 109.998367 
L 229.854545 112.097772 
L 227.744309 114.435918 
L 227.149091 115.075535 
L 224.443636 118.03831 
L 223.696005 118.873469 
L 221.738182 120.993265 
L 219.647664 123.31102 
L 219.032727 123.97126 
L 216.327273 126.934583 
L 215.599356 127.748571 
L 213.621818 129.888641 
L 211.55102 132.186122 
L 210.916364 132.866889 
L 208.210909 135.830816 
L 207.502707 136.623673 
L 205.505455 138.783881 
L 203.454377 141.061224 
L 202.8 141.762408 
L 200.094545 144.727003 
L 199.406059 145.498776 
L 197.389091 147.678962 
L 195.357735 149.936327 
L 194.683636 150.657797 
L 191.978182 153.623135 
L 191.309412 154.373878 
L 189.272727 156.573857 
L 187.261094 158.811429 
L 186.567273 159.553032 
L 183.861818 162.519202 
L 183.212765 163.24898 
L 181.156364 165.468528 
L 179.164455 167.686531 
L 178.450909 168.448083 
L 175.745455 171.415192 
L 175.116119 172.124082 
L 173.04 174.362932 
L 171.067817 176.561633 
L 170.334545 177.342914 
L 167.629091 180.311088 
L 167.019474 180.999184 
L 164.923636 183.257011 
L 162.971181 185.436735 
L 162.218182 186.237474 
L 159.512727 189.206868 
L 158.92283 189.874286 
L 156.807273 192.150687 
L 154.874549 194.311837 
L 154.101818 195.131698 
L 151.396364 198.102504 
L 150.826187 198.749388 
L 148.690909 201.04386 
L 146.777919 203.186939 
L 145.985455 204.0255 
L 143.28 206.997957 
L 142.729546 207.62449 
L 140.574545 209.93639 
L 138.681294 212.062041 
L 137.869091 212.918758 
L 135.163636 215.893174 
L 134.632907 216.499592 
L 132.458182 218.828081 
L 130.584675 220.937143 
L 129.752727 221.811301 
L 127.047273 224.788076 
L 126.536271 225.374694 
L 124.341818 227.718648 
L 122.488063 229.812245 
L 121.636364 230.702875 
L 118.930909 233.68255 
L 118.43964 234.249796 
L 116.225455 236.60766 
L 114.391462 238.687347 
L 113.52 239.593095 
L 110.814545 242.576414 
L 110.343014 243.124898 
L 108.109091 245.494434 
L 106.294876 247.562449 
L 105.403636 248.481334 
L 102.698182 251.469373 
L 102.246397 252 
z
" style="fill:#fcc2aa;"/>
   </g>
   <g id="PathCollection_4">
    <path clip-path="url(#p01d1c4fedc)" d="M 129.752727 252 
L 132.458182 252 
L 135.163636 252 
L 137.869091 252 
L 140.574545 252 
L 143.28 252 
L 145.985455 252 
L 148.690909 252 
L 151.396364 252 
L 153.464263 252 
L 154.101818 251.631115 
L 156.807273 250.115471 
L 159.512727 248.673996 
L 161.693538 247.562449 
L 162.218182 247.260132 
L 164.923636 245.745622 
L 167.629091 244.299992 
L 169.922819 243.124898 
L 170.334545 242.888486 
L 173.04 241.374971 
L 175.745455 239.925751 
L 178.152104 238.687347 
L 178.450909 238.516303 
L 181.156364 237.00367 
L 183.861818 235.551318 
L 186.381392 234.249796 
L 186.567273 234.143683 
L 189.272727 232.631835 
L 191.978182 231.176726 
L 194.610683 229.812245 
L 194.683636 229.770699 
L 197.389091 228.259555 
L 200.094545 226.802002 
L 202.8 225.395129 
L 202.840027 225.374694 
L 205.505455 223.886902 
L 208.210909 222.427165 
L 210.916364 221.015586 
L 211.069455 220.937143 
L 213.621818 219.513931 
L 216.327273 218.052233 
L 219.032727 216.636407 
L 219.298871 216.499592 
L 221.738182 215.14069 
L 224.443636 213.677219 
L 227.149091 212.257543 
L 227.528277 212.062041 
L 229.854545 210.767214 
L 232.56 209.302135 
L 235.265455 207.878952 
L 235.757675 207.62449 
L 237.970909 206.393535 
L 240.676364 204.926989 
L 243.381818 203.500599 
L 243.987065 203.186939 
L 246.087273 202.019678 
L 248.792727 200.551789 
L 251.498182 199.122454 
L 252.216449 198.749388 
L 254.203636 197.645664 
L 256.909091 196.176542 
L 259.614545 194.744493 
L 260.445827 194.311837 
L 262.32 193.271513 
L 265.025455 191.801252 
L 267.730909 190.366695 
L 268.675201 189.874286 
L 270.436364 188.897239 
L 273.141818 187.425925 
L 275.847273 185.989043 
L 276.904569 185.436735 
L 278.552727 184.522855 
L 281.258182 183.050565 
L 283.963636 181.611521 
L 285.133934 180.999184 
L 286.669091 180.148374 
L 289.374545 178.675175 
L 292.08 177.234116 
L 293.363295 176.561633 
L 294.785455 175.773804 
L 297.490909 174.299758 
L 300.196364 172.856817 
L 301.592653 172.124082 
L 302.901818 171.399154 
L 305.607273 169.924316 
L 308.312727 168.479612 
L 309.822007 167.686531 
L 311.018182 167.024433 
L 313.723636 165.548852 
L 316.429091 164.102495 
L 318.05136 163.24898 
L 319.134545 162.649645 
L 321.84 161.173368 
L 321.84 158.811429 
L 321.84 154.373878 
L 321.84 149.936327 
L 321.84 145.498776 
L 321.84 141.061224 
L 321.84 136.623673 
L 321.84 132.186122 
L 321.84 127.748571 
L 321.84 123.31102 
L 321.84 118.873469 
L 321.84 114.435918 
L 321.84 111.187925 
L 319.134545 113.148534 
L 317.386901 114.435918 
L 316.429091 115.11694 
L 313.723636 117.067195 
L 311.265815 118.873469 
L 311.018182 119.048976 
L 308.312727 120.988471 
L 305.607273 122.968404 
L 305.144872 123.31102 
L 302.901818 124.912531 
L 300.196364 126.881913 
L 299.023965 127.748571 
L 297.490909 128.83956 
L 294.785455 130.797952 
L 292.902957 132.186122 
L 292.08 132.769758 
L 289.374545 134.716694 
L 286.78184 136.623673 
L 286.669091 136.703346 
L 283.963636 138.63833 
L 281.258182 140.617953 
L 280.660961 141.061224 
L 278.552727 142.563067 
L 275.847273 144.530988 
L 274.540042 145.498776 
L 273.141818 146.491134 
L 270.436364 148.446813 
L 268.41901 149.936327 
L 267.730909 150.422782 
L 265.025455 152.36564 
L 262.32 154.357373 
L 262.29787 154.373878 
L 259.614545 156.287706 
L 256.909091 158.266938 
L 256.177054 158.811429 
L 254.203636 160.213272 
L 251.498182 162.179368 
L 250.05612 163.24898 
L 248.792727 164.142625 
L 246.087273 166.094906 
L 243.935058 167.686531 
L 243.381818 168.07609 
L 240.676364 170.013819 
L 237.970909 172.006695 
L 237.81397 172.124082 
L 235.265455 173.936407 
L 232.56 175.915131 
L 231.693152 176.561633 
L 229.854545 177.863007 
L 227.149091 179.826764 
L 225.5722 180.999184 
L 224.443636 181.793998 
L 221.738182 183.741901 
L 219.4511 185.436735 
L 219.032727 185.729807 
L 216.327273 187.660888 
L 213.621818 189.655233 
L 213.330079 189.874286 
L 210.916364 191.584121 
L 208.210909 193.562161 
L 207.209259 194.311837 
L 205.505455 195.51205 
L 202.8 197.472696 
L 201.088283 198.749388 
L 200.094545 199.445193 
L 197.389091 201.387241 
L 194.96713 203.186939 
L 194.683636 203.384145 
L 191.978182 205.306265 
L 189.272727 207.302569 
L 188.846201 207.62449 
L 186.567273 209.230309 
L 183.861818 211.20738 
L 182.725379 212.062041 
L 181.156364 213.160007 
L 178.450909 215.116313 
L 176.60437 216.499592 
L 175.745455 217.096106 
L 173.04 219.029925 
L 170.483144 220.937143 
L 170.334545 221.039487 
L 167.629091 222.948875 
L 164.923636 224.947921 
L 164.362346 225.374694 
L 162.218182 226.873954 
L 159.512727 228.84955 
L 158.241522 229.812245 
L 156.807273 230.806117 
L 154.101818 232.755951 
L 152.120464 234.249796 
L 151.396364 234.746527 
L 148.690909 236.667931 
L 145.999126 238.687347 
L 145.985455 238.69662 
L 143.28 240.586488 
L 140.574545 242.589642 
L 139.878531 243.124898 
L 137.869091 244.512876 
L 135.163636 246.485971 
L 133.757707 247.562449 
L 132.458182 248.448686 
L 129.752727 250.387837 
L 127.636573 252 
z
" style="fill:#fca588;"/>
   </g>
   <g id="PathCollection_5">
    <path clip-path="url(#p01d1c4fedc)" d="M 154.101818 252 
L 156.807273 252 
L 159.512727 252 
L 162.218182 252 
L 164.923636 252 
L 167.629091 252 
L 170.334545 252 
L 173.04 252 
L 175.745455 252 
L 178.450909 252 
L 179.763594 252 
L 181.156364 251.364322 
L 183.861818 250.167022 
L 186.567273 249.015967 
L 189.272727 247.90839 
L 190.1397 247.562449 
L 191.978182 246.729975 
L 194.683636 245.542791 
L 197.389091 244.398013 
L 200.094545 243.293291 
L 200.515701 243.124898 
L 202.8 242.097606 
L 205.505455 240.919071 
L 208.210909 239.779688 
L 210.891656 238.687347 
L 210.916364 238.676112 
L 213.621818 237.466817 
L 216.327273 236.29576 
L 219.032727 235.161063 
L 221.268156 234.249796 
L 221.738182 234.037414 
L 224.443636 232.837308 
L 227.149091 231.672782 
L 229.854545 230.542194 
L 231.644524 229.812245 
L 232.56 229.400892 
L 235.265455 228.208853 
L 237.970909 227.050078 
L 240.676364 225.923122 
L 242.020781 225.374694 
L 243.381818 224.766173 
L 246.087273 223.581274 
L 248.792727 222.427604 
L 251.498182 221.303881 
L 252.396945 220.937143 
L 254.203636 220.132969 
L 256.909091 218.954431 
L 259.614545 217.805323 
L 262.32 216.684497 
L 262.773029 216.499592 
L 265.025455 215.501047 
L 267.730909 214.328215 
L 270.436364 213.183207 
L 273.141818 212.064991 
L 273.149045 212.062041 
L 275.847273 210.87022 
L 278.552727 209.702534 
L 281.258182 208.561231 
L 283.525472 207.62449 
L 283.963636 207.429331 
L 286.669091 206.240337 
L 289.374545 205.077315 
L 292.08 203.939378 
L 293.901814 203.186939 
L 294.785455 202.794763 
L 297.490909 201.611273 
L 300.196364 200.452498 
L 302.901818 199.31763 
L 304.278075 198.749388 
L 305.607273 198.161388 
L 308.312727 196.982923 
L 311.018182 195.828032 
L 313.723636 194.695976 
L 314.654265 194.311837 
L 316.429091 193.52906 
L 319.134545 192.355201 
L 321.84 191.203875 
L 321.84 189.874286 
L 321.84 185.436735 
L 321.84 180.999184 
L 321.84 176.561633 
L 321.84 172.124082 
L 321.84 167.686531 
L 321.84 163.24898 
L 321.84 161.173368 
L 319.134545 162.649645 
L 318.05136 163.24898 
L 316.429091 164.102495 
L 313.723636 165.548852 
L 311.018182 167.024433 
L 309.822007 167.686531 
L 308.312727 168.479612 
L 305.607273 169.924316 
L 302.901818 171.399154 
L 301.592653 172.124082 
L 300.196364 172.856817 
L 297.490909 174.299758 
L 294.785455 175.773804 
L 293.363295 176.561633 
L 292.08 177.234116 
L 289.374545 178.675175 
L 286.669091 180.148374 
L 285.133934 180.999184 
L 283.963636 181.611521 
L 281.258182 183.050565 
L 278.552727 184.522855 
L 276.904569 185.436735 
L 275.847273 185.989043 
L 273.141818 187.425925 
L 270.436364 188.897239 
L 268.675201 189.874286 
L 267.730909 190.366695 
L 265.025455 191.801252 
L 262.32 193.271513 
L 260.445827 194.311837 
L 259.614545 194.744493 
L 256.909091 196.176542 
L 254.203636 197.645664 
L 252.216449 198.749388 
L 251.498182 199.122454 
L 248.792727 200.551789 
L 246.087273 202.019678 
L 243.987065 203.186939 
L 243.381818 203.500599 
L 240.676364 204.926989 
L 237.970909 206.393535 
L 235.757675 207.62449 
L 235.265455 207.878952 
L 232.56 209.302135 
L 229.854545 210.767214 
L 227.528277 212.062041 
L 227.149091 212.257543 
L 224.443636 213.677219 
L 221.738182 215.14069 
L 219.298871 216.499592 
L 219.032727 216.636407 
L 216.327273 218.052233 
L 213.621818 219.513931 
L 211.069455 220.937143 
L 210.916364 221.015586 
L 208.210909 222.427165 
L 205.505455 223.886902 
L 202.840027 225.374694 
L 202.8 225.395129 
L 200.094545 226.802002 
L 197.389091 228.259555 
L 194.683636 229.770699 
L 194.610683 229.812245 
L 191.978182 231.176726 
L 189.272727 232.631835 
L 186.567273 234.143683 
L 186.381392 234.249796 
L 183.861818 235.551318 
L 181.156364 237.00367 
L 178.450909 238.516303 
L 178.152104 238.687347 
L 175.745455 239.925751 
L 173.04 241.374971 
L 170.334545 242.888486 
L 169.922819 243.124898 
L 167.629091 244.299992 
L 164.923636 245.745622 
L 162.218182 247.260132 
L 161.693538 247.562449 
L 159.512727 248.673996 
L 156.807273 250.115471 
L 154.101818 251.631115 
L 153.464263 252 
z
" style="fill:#fc8767;"/>
   </g>
   <g id="PathCollection_6">
    <path clip-path="url(#p01d1c4fedc)" d="M 181.156364 252 
L 183.861818 252 
L 186.567273 252 
L 189.272727 252 
L 191.978182 252 
L 194.683636 252 
L 197.389091 252 
L 200.094545 252 
L 202.8 252 
L 205.505455 252 
L 206.570694 252 
L 208.210909 251.38211 
L 210.916364 250.389827 
L 213.621818 249.429065 
L 216.327273 248.498245 
L 219.032727 247.595893 
L 219.134702 247.562449 
L 221.738182 246.591851 
L 224.443636 245.612762 
L 227.149091 244.662336 
L 229.854545 243.739247 
L 231.699689 243.124898 
L 232.56 242.802226 
L 235.265455 241.806855 
L 237.970909 240.838955 
L 240.676364 239.89733 
L 243.381818 238.980849 
L 244.264231 238.687347 
L 246.087273 238.0096 
L 248.792727 237.026031 
L 251.498182 236.06774 
L 254.203636 235.133699 
L 256.828378 234.249796 
L 256.909091 234.219625 
L 259.614545 233.221927 
L 262.32 232.248573 
L 265.025455 231.298622 
L 267.730909 230.371183 
L 269.393347 229.812245 
L 270.436364 229.42533 
L 273.141818 228.438295 
L 275.847273 227.473867 
L 278.552727 226.531224 
L 281.258182 225.609584 
L 281.957808 225.374694 
L 283.963636 224.635662 
L 286.669091 223.658003 
L 289.374545 222.701441 
L 292.08 221.765253 
L 294.522178 220.937143 
L 294.785455 220.839649 
L 297.490909 219.849854 
L 300.196364 218.880503 
L 302.901818 217.930926 
L 305.607273 217.000482 
L 307.087004 216.499592 
L 308.312727 216.048441 
L 311.018182 215.067299 
L 313.723636 214.10536 
L 316.429091 213.162026 
L 319.134545 212.236726 
L 319.651407 212.062041 
L 321.84 211.260898 
L 321.84 207.62449 
L 321.84 203.186939 
L 321.84 198.749388 
L 321.84 194.311837 
L 321.84 191.203875 
L 319.134545 192.355201 
L 316.429091 193.52906 
L 314.654265 194.311837 
L 313.723636 194.695976 
L 311.018182 195.828032 
L 308.312727 196.982923 
L 305.607273 198.161388 
L 304.278075 198.749388 
L 302.901818 199.31763 
L 300.196364 200.452498 
L 297.490909 201.611273 
L 294.785455 202.794763 
L 293.901814 203.186939 
L 292.08 203.939378 
L 289.374545 205.077315 
L 286.669091 206.240337 
L 283.963636 207.429331 
L 283.525472 207.62449 
L 281.258182 208.561231 
L 278.552727 209.702534 
L 275.847273 210.87022 
L 273.149045 212.062041 
L 273.141818 212.064991 
L 270.436364 213.183207 
L 267.730909 214.328215 
L 265.025455 215.501047 
L 262.773029 216.499592 
L 262.32 216.684497 
L 259.614545 217.805323 
L 256.909091 218.954431 
L 254.203636 220.132969 
L 252.396945 220.937143 
L 251.498182 221.303881 
L 248.792727 222.427604 
L 246.087273 223.581274 
L 243.381818 224.766173 
L 242.020781 225.374694 
L 240.676364 225.923122 
L 237.970909 227.050078 
L 235.265455 228.208853 
L 232.56 229.400892 
L 231.644524 229.812245 
L 229.854545 230.542194 
L 227.149091 231.672782 
L 224.443636 232.837308 
L 221.738182 234.037414 
L 221.268156 234.249796 
L 219.032727 235.161063 
L 216.327273 236.29576 
L 213.621818 237.466817 
L 210.916364 238.676112 
L 210.891656 238.687347 
L 208.210909 239.779688 
L 205.505455 240.919071 
L 202.8 242.097606 
L 200.515701 243.124898 
L 200.094545 243.293291 
L 197.389091 244.398013 
L 194.683636 245.542791 
L 191.978182 246.729975 
L 190.1397 247.562449 
L 189.272727 247.90839 
L 186.567273 249.015967 
L 183.861818 250.167022 
L 181.156364 251.364322 
L 179.763594 252 
z
" style="fill:#fb694a;"/>
   </g>
   <g id="PathCollection_7">
    <path clip-path="url(#p01d1c4fedc)" d="M 208.210909 252 
L 210.916364 252 
L 213.621818 252 
L 216.327273 252 
L 219.032727 252 
L 221.738182 252 
L 224.443636 252 
L 227.149091 252 
L 229.854545 252 
L 232.56 252 
L 233.925236 252 
L 235.265455 251.570308 
L 237.970909 250.72107 
L 240.676364 249.894654 
L 243.381818 249.090075 
L 246.087273 248.306406 
L 248.722185 247.562449 
L 248.792727 247.539795 
L 251.498182 246.68313 
L 254.203636 245.847959 
L 256.909091 245.033417 
L 259.614545 244.238683 
L 262.32 243.462979 
L 263.520306 243.124898 
L 265.025455 242.647055 
L 267.730909 241.804206 
L 270.436364 240.980898 
L 273.141818 240.176404 
L 275.847273 239.390029 
L 278.317475 238.687347 
L 278.552727 238.61251 
L 281.258182 237.762871 
L 283.963636 236.931794 
L 286.669091 236.118626 
L 289.374545 235.322745 
L 292.08 234.543556 
L 293.115387 234.249796 
L 294.785455 233.723551 
L 297.490909 232.88554 
L 300.196364 232.064613 
L 302.901818 231.260211 
L 305.607273 230.471794 
L 307.912725 229.812245 
L 308.312727 229.685926 
L 311.018182 228.841687 
L 313.723636 228.01378 
L 316.429091 227.201696 
L 319.134545 226.404945 
L 321.84 225.62306 
L 321.84 225.374694 
L 321.84 220.937143 
L 321.84 216.499592 
L 321.84 212.062041 
L 321.84 211.260898 
L 319.651407 212.062041 
L 319.134545 212.236726 
L 316.429091 213.162026 
L 313.723636 214.10536 
L 311.018182 215.067299 
L 308.312727 216.048441 
L 307.087004 216.499592 
L 305.607273 217.000482 
L 302.901818 217.930926 
L 300.196364 218.880503 
L 297.490909 219.849854 
L 294.785455 220.839649 
L 294.522178 220.937143 
L 292.08 221.765253 
L 289.374545 222.701441 
L 286.669091 223.658003 
L 283.963636 224.635662 
L 281.957808 225.374694 
L 281.258182 225.609584 
L 278.552727 226.531224 
L 275.847273 227.473867 
L 273.141818 228.438295 
L 270.436364 229.42533 
L 269.393347 229.812245 
L 267.730909 230.371183 
L 265.025455 231.298622 
L 262.32 232.248573 
L 259.614545 233.221927 
L 256.909091 234.219625 
L 256.828378 234.249796 
L 254.203636 235.133699 
L 251.498182 236.06774 
L 248.792727 237.026031 
L 246.087273 238.0096 
L 244.264231 238.687347 
L 243.381818 238.980849 
L 240.676364 239.89733 
L 237.970909 240.838955 
L 235.265455 241.806855 
L 232.56 242.802226 
L 231.699689 243.124898 
L 229.854545 243.739247 
L 227.149091 244.662336 
L 224.443636 245.612762 
L 221.738182 246.591851 
L 219.134702 247.562449 
L 219.032727 247.595893 
L 216.327273 248.498245 
L 213.621818 249.429065 
L 210.916364 250.389827 
L 208.210909 251.38211 
L 206.570694 252 
z
" style="fill:#f24734;"/>
   </g>
   <g id="PathCollection_8">
    <path clip-path="url(#p01d1c4fedc)" d="M 235.265455 252 
L 237.970909 252 
L 240.676364 252 
L 243.381818 252 
L 246.087273 252 
L 248.792727 252 
L 251.498182 252 
L 254.203636 252 
L 256.909091 252 
L 259.614545 252 
L 261.869508 252 
L 262.32 251.874322 
L 265.025455 251.130586 
L 267.730909 250.40411 
L 270.436364 249.694238 
L 273.141818 249.000349 
L 275.847273 248.321849 
L 278.552727 247.658176 
L 278.948218 247.562449 
L 281.258182 246.926603 
L 283.963636 246.196898 
L 286.669091 245.482722 
L 289.374545 244.783534 
L 292.08 244.098816 
L 294.785455 243.428074 
L 296.027282 243.124898 
L 297.490909 242.722192 
L 300.196364 241.989686 
L 302.901818 241.271764 
L 305.607273 240.567951 
L 308.312727 239.87779 
L 311.018182 239.200845 
L 313.10585 238.687347 
L 313.723636 238.517433 
L 316.429091 237.782474 
L 319.134545 237.061262 
L 321.84 236.353377 
L 321.84 234.249796 
L 321.84 229.812245 
L 321.84 225.62306 
L 319.134545 226.404945 
L 316.429091 227.201696 
L 313.723636 228.01378 
L 311.018182 228.841687 
L 308.312727 229.685926 
L 307.912725 229.812245 
L 305.607273 230.471794 
L 302.901818 231.260211 
L 300.196364 232.064613 
L 297.490909 232.88554 
L 294.785455 233.723551 
L 293.115387 234.249796 
L 292.08 234.543556 
L 289.374545 235.322745 
L 286.669091 236.118626 
L 283.963636 236.931794 
L 281.258182 237.762871 
L 278.552727 238.61251 
L 278.317475 238.687347 
L 275.847273 239.390029 
L 273.141818 240.176404 
L 270.436364 240.980898 
L 267.730909 241.804206 
L 265.025455 242.647055 
L 263.520306 243.124898 
L 262.32 243.462979 
L 259.614545 244.238683 
L 256.909091 245.033417 
L 254.203636 245.847959 
L 251.498182 246.68313 
L 248.792727 247.539795 
L 248.722185 247.562449 
L 246.087273 248.306406 
L 243.381818 249.090075 
L 240.676364 249.894654 
L 237.970909 250.72107 
L 235.265455 251.570308 
L 233.925236 252 
z
" style="fill:#de2b25;"/>
   </g>
   <g id="PathCollection_9">
    <path clip-path="url(#p01d1c4fedc)" d="M 262.32 252 
L 265.025455 252 
L 267.730909 252 
L 270.436364 252 
L 273.141818 252 
L 275.847273 252 
L 278.552727 252 
L 281.258182 252 
L 283.963636 252 
L 286.669091 252 
L 289.374545 252 
L 290.450926 252 
L 292.08 251.602443 
L 294.785455 250.953257 
L 297.490909 250.317102 
L 300.196364 249.693541 
L 302.901818 249.082156 
L 305.607273 248.482548 
L 308.312727 247.894331 
L 309.862816 247.562449 
L 311.018182 247.281315 
L 313.723636 246.632245 
L 316.429091 245.995268 
L 319.134545 245.370007 
L 321.84 244.756102 
L 321.84 243.124898 
L 321.84 238.687347 
L 321.84 236.353377 
L 319.134545 237.061262 
L 316.429091 237.782474 
L 313.723636 238.517433 
L 313.10585 238.687347 
L 311.018182 239.200845 
L 308.312727 239.87779 
L 305.607273 240.567951 
L 302.901818 241.271764 
L 300.196364 241.989686 
L 297.490909 242.722192 
L 296.027282 243.124898 
L 294.785455 243.428074 
L 292.08 244.098816 
L 289.374545 244.783534 
L 286.669091 245.482722 
L 283.963636 246.196898 
L 281.258182 246.926603 
L 278.948218 247.562449 
L 278.552727 247.658176 
L 275.847273 248.321849 
L 273.141818 249.000349 
L 270.436364 249.694238 
L 267.730909 250.40411 
L 265.025455 251.130586 
L 262.32 251.874322 
L 261.869508 252 
z
" style="fill:#c4161c;"/>
   </g>
   <g id="PathCollection_10">
    <path clip-path="url(#p01d1c4fedc)" d="M 292.08 252 
L 294.785455 252 
L 297.490909 252 
L 300.196364 252 
L 302.901818 252 
L 305.607273 252 
L 308.312727 252 
L 311.018182 252 
L 313.723636 252 
L 316.429091 252 
L 319.134545 252 
L 319.719069 252 
L 321.84 251.540154 
L 321.84 247.562449 
L 321.84 244.756102 
L 319.134545 245.370007 
L 316.429091 245.995268 
L 313.723636 246.632245 
L 311.018182 247.281315 
L 309.862816 247.562449 
L 308.312727 247.894331 
L 305.607273 248.482548 
L 302.901818 249.082156 
L 300.196364 249.693541 
L 297.490909 250.317102 
L 294.785455 250.953257 
L 292.08 251.602443 
L 290.450926 252 
z
" style="fill:#a81016;"/>
   </g>
   <g id="PathCollection_11">
    <path clip-path="url(#p01d1c4fedc)" d="M 321.84 252 
L 321.84 251.540154 
L 319.719069 252 
z
" style="fill:#7c0510;"/>
   </g>
   <g id="matplotlib.axis_1">
    <g id="xtick_1">
     <g id="line2d_1">
      <defs>
       <path d="M 0 0 
L 0 3.5 
" id="m5e8ce63fc3" style="stroke:#000000;stroke-width:0.8;"/>
      </defs>
      <g>
       <use style="stroke:#000000;stroke-width:0.8;" x="119.950553" xlink:href="#m5e8ce63fc3" y="252"/>
      </g>
     </g>
     <g id="text_1">
      <!-- 50 -->
      <defs>
       <path d="M 10.796875 72.90625 
L 49.515625 72.90625 
L 49.515625 64.59375 
L 19.828125 64.59375 
L 19.828125 46.734375 
Q 21.96875 47.46875 24.109375 47.828125 
Q 26.265625 48.1875 28.421875 48.1875 
Q 40.625 48.1875 47.75 41.5 
Q 54.890625 34.8125 54.890625 23.390625 
Q 54.890625 11.625 47.5625 5.09375 
Q 40.234375 -1.421875 26.90625 -1.421875 
Q 22.3125 -1.421875 17.546875 -0.640625 
Q 12.796875 0.140625 7.71875 1.703125 
L 7.71875 11.625 
Q 12.109375 9.234375 16.796875 8.0625 
Q 21.484375 6.890625 26.703125 6.890625 
Q 35.15625 6.890625 40.078125 11.328125 
Q 45.015625 15.765625 45.015625 23.390625 
Q 45.015625 31 40.078125 35.4375 
Q 35.15625 39.890625 26.703125 39.890625 
Q 22.75 39.890625 18.8125 39.015625 
Q 14.890625 38.140625 10.796875 36.28125 
z
" id="DejaVuSans-53"/>
       <path d="M 31.78125 66.40625 
Q 24.171875 66.40625 20.328125 58.90625 
Q 16.5 51.421875 16.5 36.375 
Q 16.5 21.390625 20.328125 13.890625 
Q 24.171875 6.390625 31.78125 6.390625 
Q 39.453125 6.390625 43.28125 13.890625 
Q 47.125 21.390625 47.125 36.375 
Q 47.125 51.421875 43.28125 58.90625 
Q 39.453125 66.40625 31.78125 66.40625 
z
M 31.78125 74.21875 
Q 44.046875 74.21875 50.515625 64.515625 
Q 56.984375 54.828125 56.984375 36.375 
Q 56.984375 17.96875 50.515625 8.265625 
Q 44.046875 -1.421875 31.78125 -1.421875 
Q 19.53125 -1.421875 13.0625 8.265625 
Q 6.59375 17.96875 6.59375 36.375 
Q 6.59375 54.828125 13.0625 64.515625 
Q 19.53125 74.21875 31.78125 74.21875 
z
" id="DejaVuSans-48"/>
      </defs>
      <g transform="translate(111.679303 268.877969)scale(0.13 -0.13)">
       <use xlink:href="#DejaVuSans-53"/>
       <use x="63.623047" xlink:href="#DejaVuSans-48"/>
      </g>
     </g>
    </g>
    <g id="xtick_2">
     <g id="line2d_2">
      <g>
       <use style="stroke:#000000;stroke-width:0.8;" x="187.247035" xlink:href="#m5e8ce63fc3" y="252"/>
      </g>
     </g>
     <g id="text_2">
      <!-- 100 -->
      <defs>
       <path d="M 12.40625 8.296875 
L 28.515625 8.296875 
L 28.515625 63.921875 
L 10.984375 60.40625 
L 10.984375 69.390625 
L 28.421875 72.90625 
L 38.28125 72.90625 
L 38.28125 8.296875 
L 54.390625 8.296875 
L 54.390625 0 
L 12.40625 0 
z
" id="DejaVuSans-49"/>
      </defs>
      <g transform="translate(174.84016 268.877969)scale(0.13 -0.13)">
       <use xlink:href="#DejaVuSans-49"/>
       <use x="63.623047" xlink:href="#DejaVuSans-48"/>
       <use x="127.246094" xlink:href="#DejaVuSans-48"/>
      </g>
     </g>
    </g>
    <g id="xtick_3">
     <g id="line2d_3">
      <g>
       <use style="stroke:#000000;stroke-width:0.8;" x="254.543518" xlink:href="#m5e8ce63fc3" y="252"/>
      </g>
     </g>
     <g id="text_3">
      <!-- 150 -->
      <g transform="translate(242.136643 268.877969)scale(0.13 -0.13)">
       <use xlink:href="#DejaVuSans-49"/>
       <use x="63.623047" xlink:href="#DejaVuSans-53"/>
       <use x="127.246094" xlink:href="#DejaVuSans-48"/>
      </g>
     </g>
    </g>
    <g id="xtick_4">
     <g id="line2d_4">
      <g>
       <use style="stroke:#000000;stroke-width:0.8;" x="321.84" xlink:href="#m5e8ce63fc3" y="252"/>
      </g>
     </g>
     <g id="text_4">
      <!-- 200 -->
      <defs>
       <path d="M 19.1875 8.296875 
L 53.609375 8.296875 
L 53.609375 0 
L 7.328125 0 
L 7.328125 8.296875 
Q 12.9375 14.109375 22.625 23.890625 
Q 32.328125 33.6875 34.8125 36.53125 
Q 39.546875 41.84375 41.421875 45.53125 
Q 43.3125 49.21875 43.3125 52.78125 
Q 43.3125 58.59375 39.234375 62.25 
Q 35.15625 65.921875 28.609375 65.921875 
Q 23.96875 65.921875 18.8125 64.3125 
Q 13.671875 62.703125 7.8125 59.421875 
L 7.8125 69.390625 
Q 13.765625 71.78125 18.9375 73 
Q 24.125 74.21875 28.421875 74.21875 
Q 39.75 74.21875 46.484375 68.546875 
Q 53.21875 62.890625 53.21875 53.421875 
Q 53.21875 48.921875 51.53125 44.890625 
Q 49.859375 40.875 45.40625 35.40625 
Q 44.1875 33.984375 37.640625 27.21875 
Q 31.109375 20.453125 19.1875 8.296875 
z
" id="DejaVuSans-50"/>
      </defs>
      <g transform="translate(309.433125 268.877969)scale(0.13 -0.13)">
       <use xlink:href="#DejaVuSans-50"/>
       <use x="63.623047" xlink:href="#DejaVuSans-48"/>
       <use x="127.246094" xlink:href="#DejaVuSans-48"/>
      </g>
     </g>
    </g>
    <g id="text_5">
     <!-- Grid Size [km] -->
     <defs>
      <path d="M 59.515625 10.40625 
L 59.515625 29.984375 
L 43.40625 29.984375 
L 43.40625 38.09375 
L 69.28125 38.09375 
L 69.28125 6.78125 
Q 63.578125 2.734375 56.6875 0.65625 
Q 49.8125 -1.421875 42 -1.421875 
Q 24.90625 -1.421875 15.25 8.5625 
Q 5.609375 18.5625 5.609375 36.375 
Q 5.609375 54.25 15.25 64.234375 
Q 24.90625 74.21875 42 74.21875 
Q 49.125 74.21875 55.546875 72.453125 
Q 61.96875 70.703125 67.390625 67.28125 
L 67.390625 56.78125 
Q 61.921875 61.421875 55.765625 63.765625 
Q 49.609375 66.109375 42.828125 66.109375 
Q 29.4375 66.109375 22.71875 58.640625 
Q 16.015625 51.171875 16.015625 36.375 
Q 16.015625 21.625 22.71875 14.15625 
Q 29.4375 6.6875 42.828125 6.6875 
Q 48.046875 6.6875 52.140625 7.59375 
Q 56.25 8.5 59.515625 10.40625 
z
" id="DejaVuSans-71"/>
      <path d="M 41.109375 46.296875 
Q 39.59375 47.171875 37.8125 47.578125 
Q 36.03125 48 33.890625 48 
Q 26.265625 48 22.1875 43.046875 
Q 18.109375 38.09375 18.109375 28.8125 
L 18.109375 0 
L 9.078125 0 
L 9.078125 54.6875 
L 18.109375 54.6875 
L 18.109375 46.1875 
Q 20.953125 51.171875 25.484375 53.578125 
Q 30.03125 56 36.53125 56 
Q 37.453125 56 38.578125 55.875 
Q 39.703125 55.765625 41.0625 55.515625 
z
" id="DejaVuSans-114"/>
      <path d="M 9.421875 54.6875 
L 18.40625 54.6875 
L 18.40625 0 
L 9.421875 0 
z
M 9.421875 75.984375 
L 18.40625 75.984375 
L 18.40625 64.59375 
L 9.421875 64.59375 
z
" id="DejaVuSans-105"/>
      <path d="M 45.40625 46.390625 
L 45.40625 75.984375 
L 54.390625 75.984375 
L 54.390625 0 
L 45.40625 0 
L 45.40625 8.203125 
Q 42.578125 3.328125 38.25 0.953125 
Q 33.9375 -1.421875 27.875 -1.421875 
Q 17.96875 -1.421875 11.734375 6.484375 
Q 5.515625 14.40625 5.515625 27.296875 
Q 5.515625 40.1875 11.734375 48.09375 
Q 17.96875 56 27.875 56 
Q 33.9375 56 38.25 53.625 
Q 42.578125 51.265625 45.40625 46.390625 
z
M 14.796875 27.296875 
Q 14.796875 17.390625 18.875 11.75 
Q 22.953125 6.109375 30.078125 6.109375 
Q 37.203125 6.109375 41.296875 11.75 
Q 45.40625 17.390625 45.40625 27.296875 
Q 45.40625 37.203125 41.296875 42.84375 
Q 37.203125 48.484375 30.078125 48.484375 
Q 22.953125 48.484375 18.875 42.84375 
Q 14.796875 37.203125 14.796875 27.296875 
z
" id="DejaVuSans-100"/>
      <path id="DejaVuSans-32"/>
      <path d="M 53.515625 70.515625 
L 53.515625 60.890625 
Q 47.90625 63.578125 42.921875 64.890625 
Q 37.9375 66.21875 33.296875 66.21875 
Q 25.25 66.21875 20.875 63.09375 
Q 16.5 59.96875 16.5 54.203125 
Q 16.5 49.359375 19.40625 46.890625 
Q 22.3125 44.4375 30.421875 42.921875 
L 36.375 41.703125 
Q 47.40625 39.59375 52.65625 34.296875 
Q 57.90625 29 57.90625 20.125 
Q 57.90625 9.515625 50.796875 4.046875 
Q 43.703125 -1.421875 29.984375 -1.421875 
Q 24.8125 -1.421875 18.96875 -0.25 
Q 13.140625 0.921875 6.890625 3.21875 
L 6.890625 13.375 
Q 12.890625 10.015625 18.65625 8.296875 
Q 24.421875 6.59375 29.984375 6.59375 
Q 38.421875 6.59375 43.015625 9.90625 
Q 47.609375 13.234375 47.609375 19.390625 
Q 47.609375 24.75 44.3125 27.78125 
Q 41.015625 30.8125 33.5 32.328125 
L 27.484375 33.5 
Q 16.453125 35.6875 11.515625 40.375 
Q 6.59375 45.0625 6.59375 53.421875 
Q 6.59375 63.09375 13.40625 68.65625 
Q 20.21875 74.21875 32.171875 74.21875 
Q 37.3125 74.21875 42.625 73.28125 
Q 47.953125 72.359375 53.515625 70.515625 
z
" id="DejaVuSans-83"/>
      <path d="M 5.515625 54.6875 
L 48.1875 54.6875 
L 48.1875 46.484375 
L 14.40625 7.171875 
L 48.1875 7.171875 
L 48.1875 0 
L 4.296875 0 
L 4.296875 8.203125 
L 38.09375 47.515625 
L 5.515625 47.515625 
z
" id="DejaVuSans-122"/>
      <path d="M 56.203125 29.59375 
L 56.203125 25.203125 
L 14.890625 25.203125 
Q 15.484375 15.921875 20.484375 11.0625 
Q 25.484375 6.203125 34.421875 6.203125 
Q 39.59375 6.203125 44.453125 7.46875 
Q 49.3125 8.734375 54.109375 11.28125 
L 54.109375 2.78125 
Q 49.265625 0.734375 44.1875 -0.34375 
Q 39.109375 -1.421875 33.890625 -1.421875 
Q 20.796875 -1.421875 13.15625 6.1875 
Q 5.515625 13.8125 5.515625 26.8125 
Q 5.515625 40.234375 12.765625 48.109375 
Q 20.015625 56 32.328125 56 
Q 43.359375 56 49.78125 48.890625 
Q 56.203125 41.796875 56.203125 29.59375 
z
M 47.21875 32.234375 
Q 47.125 39.59375 43.09375 43.984375 
Q 39.0625 48.390625 32.421875 48.390625 
Q 24.90625 48.390625 20.390625 44.140625 
Q 15.875 39.890625 15.1875 32.171875 
z
" id="DejaVuSans-101"/>
      <path d="M 8.59375 75.984375 
L 29.296875 75.984375 
L 29.296875 69 
L 17.578125 69 
L 17.578125 -6.203125 
L 29.296875 -6.203125 
L 29.296875 -13.1875 
L 8.59375 -13.1875 
z
" id="DejaVuSans-91"/>
      <path d="M 9.078125 75.984375 
L 18.109375 75.984375 
L 18.109375 31.109375 
L 44.921875 54.6875 
L 56.390625 54.6875 
L 27.390625 29.109375 
L 57.625 0 
L 45.90625 0 
L 18.109375 26.703125 
L 18.109375 0 
L 9.078125 0 
z
" id="DejaVuSans-107"/>
      <path d="M 52 44.1875 
Q 55.375 50.25 60.0625 53.125 
Q 64.75 56 71.09375 56 
Q 79.640625 56 84.28125 50.015625 
Q 88.921875 44.046875 88.921875 33.015625 
L 88.921875 0 
L 79.890625 0 
L 79.890625 32.71875 
Q 79.890625 40.578125 77.09375 44.375 
Q 74.3125 48.1875 68.609375 48.1875 
Q 61.625 48.1875 57.5625 43.546875 
Q 53.515625 38.921875 53.515625 30.90625 
L 53.515625 0 
L 44.484375 0 
L 44.484375 32.71875 
Q 44.484375 40.625 41.703125 44.40625 
Q 38.921875 48.1875 33.109375 48.1875 
Q 26.21875 48.1875 22.15625 43.53125 
Q 18.109375 38.875 18.109375 30.90625 
L 18.109375 0 
L 9.078125 0 
L 9.078125 54.6875 
L 18.109375 54.6875 
L 18.109375 46.1875 
Q 21.1875 51.21875 25.484375 53.609375 
Q 29.78125 56 35.6875 56 
Q 41.65625 56 45.828125 52.96875 
Q 50 49.953125 52 44.1875 
z
" id="DejaVuSans-109"/>
      <path d="M 30.421875 75.984375 
L 30.421875 -13.1875 
L 9.71875 -13.1875 
L 9.71875 -6.203125 
L 21.390625 -6.203125 
L 21.390625 69 
L 9.71875 69 
L 9.71875 75.984375 
z
" id="DejaVuSans-93"/>
     </defs>
     <g transform="translate(141.636953 285.459531)scale(0.13 -0.13)">
      <use xlink:href="#DejaVuSans-71"/>
      <use x="77.490234" xlink:href="#DejaVuSans-114"/>
      <use x="118.603516" xlink:href="#DejaVuSans-105"/>
      <use x="146.386719" xlink:href="#DejaVuSans-100"/>
      <use x="209.863281" xlink:href="#DejaVuSans-32"/>
      <use x="241.650391" xlink:href="#DejaVuSans-83"/>
      <use x="305.126953" xlink:href="#DejaVuSans-105"/>
      <use x="332.910156" xlink:href="#DejaVuSans-122"/>
      <use x="385.400391" xlink:href="#DejaVuSans-101"/>
      <use x="446.923828" xlink:href="#DejaVuSans-32"/>
      <use x="478.710938" xlink:href="#DejaVuSans-91"/>
      <use x="517.724609" xlink:href="#DejaVuSans-107"/>
      <use x="575.634766" xlink:href="#DejaVuSans-109"/>
      <use x="673.046875" xlink:href="#DejaVuSans-93"/>
     </g>
    </g>
   </g>
   <g id="matplotlib.axis_2">
    <g id="ytick_1">
     <g id="line2d_5">
      <defs>
       <path d="M 0 0 
L -3.5 0 
" id="m1d88c38923" style="stroke:#000000;stroke-width:0.8;"/>
      </defs>
      <g>
       <use style="stroke:#000000;stroke-width:0.8;" x="54" xlink:href="#m1d88c38923" y="252"/>
      </g>
     </g>
     <g id="text_6">
      <!-- 500 -->
      <g transform="translate(22.18625 256.938984)scale(0.13 -0.13)">
       <use xlink:href="#DejaVuSans-53"/>
       <use x="63.623047" xlink:href="#DejaVuSans-48"/>
       <use x="127.246094" xlink:href="#DejaVuSans-48"/>
      </g>
     </g>
    </g>
    <g id="ytick_2">
     <g id="line2d_6">
      <g>
       <use style="stroke:#000000;stroke-width:0.8;" x="54" xlink:href="#m1d88c38923" y="224.82"/>
      </g>
     </g>
     <g id="text_7">
      <!-- 750 -->
      <defs>
       <path d="M 8.203125 72.90625 
L 55.078125 72.90625 
L 55.078125 68.703125 
L 28.609375 0 
L 18.3125 0 
L 43.21875 64.59375 
L 8.203125 64.59375 
z
" id="DejaVuSans-55"/>
      </defs>
      <g transform="translate(22.18625 229.758984)scale(0.13 -0.13)">
       <use xlink:href="#DejaVuSans-55"/>
       <use x="63.623047" xlink:href="#DejaVuSans-53"/>
       <use x="127.246094" xlink:href="#DejaVuSans-48"/>
      </g>
     </g>
    </g>
    <g id="ytick_3">
     <g id="line2d_7">
      <g>
       <use style="stroke:#000000;stroke-width:0.8;" x="54" xlink:href="#m1d88c38923" y="197.64"/>
      </g>
     </g>
     <g id="text_8">
      <!-- 1000 -->
      <g transform="translate(13.915 202.578984)scale(0.13 -0.13)">
       <use xlink:href="#DejaVuSans-49"/>
       <use x="63.623047" xlink:href="#DejaVuSans-48"/>
       <use x="127.246094" xlink:href="#DejaVuSans-48"/>
       <use x="190.869141" xlink:href="#DejaVuSans-48"/>
      </g>
     </g>
    </g>
    <g id="ytick_4">
     <g id="line2d_8">
      <g>
       <use style="stroke:#000000;stroke-width:0.8;" x="54" xlink:href="#m1d88c38923" y="170.46"/>
      </g>
     </g>
     <g id="text_9">
      <!-- 1250 -->
      <g transform="translate(13.915 175.398984)scale(0.13 -0.13)">
       <use xlink:href="#DejaVuSans-49"/>
       <use x="63.623047" xlink:href="#DejaVuSans-50"/>
       <use x="127.246094" xlink:href="#DejaVuSans-53"/>
       <use x="190.869141" xlink:href="#DejaVuSans-48"/>
      </g>
     </g>
    </g>
    <g id="ytick_5">
     <g id="line2d_9">
      <g>
       <use style="stroke:#000000;stroke-width:0.8;" x="54" xlink:href="#m1d88c38923" y="143.28"/>
      </g>
     </g>
     <g id="text_10">
      <!-- 1500 -->
      <g transform="translate(13.915 148.218984)scale(0.13 -0.13)">
       <use xlink:href="#DejaVuSans-49"/>
       <use x="63.623047" xlink:href="#DejaVuSans-53"/>
       <use x="127.246094" xlink:href="#DejaVuSans-48"/>
       <use x="190.869141" xlink:href="#DejaVuSans-48"/>
      </g>
     </g>
    </g>
    <g id="ytick_6">
     <g id="line2d_10">
      <g>
       <use style="stroke:#000000;stroke-width:0.8;" x="54" xlink:href="#m1d88c38923" y="116.1"/>
      </g>
     </g>
     <g id="text_11">
      <!-- 1750 -->
      <g transform="translate(13.915 121.038984)scale(0.13 -0.13)">
       <use xlink:href="#DejaVuSans-49"/>
       <use x="63.623047" xlink:href="#DejaVuSans-55"/>
       <use x="127.246094" xlink:href="#DejaVuSans-53"/>
       <use x="190.869141" xlink:href="#DejaVuSans-48"/>
      </g>
     </g>
    </g>
    <g id="ytick_7">
     <g id="line2d_11">
      <g>
       <use style="stroke:#000000;stroke-width:0.8;" x="54" xlink:href="#m1d88c38923" y="88.92"/>
      </g>
     </g>
     <g id="text_12">
      <!-- 2000 -->
      <g transform="translate(13.915 93.858984)scale(0.13 -0.13)">
       <use xlink:href="#DejaVuSans-50"/>
       <use x="63.623047" xlink:href="#DejaVuSans-48"/>
       <use x="127.246094" xlink:href="#DejaVuSans-48"/>
       <use x="190.869141" xlink:href="#DejaVuSans-48"/>
      </g>
     </g>
    </g>
    <g id="ytick_8">
     <g id="line2d_12">
      <g>
       <use style="stroke:#000000;stroke-width:0.8;" x="54" xlink:href="#m1d88c38923" y="61.74"/>
      </g>
     </g>
     <g id="text_13">
      <!-- 2250 -->
      <g transform="translate(13.915 66.678984)scale(0.13 -0.13)">
       <use xlink:href="#DejaVuSans-50"/>
       <use x="63.623047" xlink:href="#DejaVuSans-50"/>
       <use x="127.246094" xlink:href="#DejaVuSans-53"/>
       <use x="190.869141" xlink:href="#DejaVuSans-48"/>
      </g>
     </g>
    </g>
    <g id="ytick_9">
     <g id="line2d_13">
      <g>
       <use style="stroke:#000000;stroke-width:0.8;" x="54" xlink:href="#m1d88c38923" y="34.56"/>
      </g>
     </g>
     <g id="text_14">
      <!-- 2500 -->
      <g transform="translate(13.915 39.498984)scale(0.13 -0.13)">
       <use xlink:href="#DejaVuSans-50"/>
       <use x="63.623047" xlink:href="#DejaVuSans-53"/>
       <use x="127.246094" xlink:href="#DejaVuSans-48"/>
       <use x="190.869141" xlink:href="#DejaVuSans-48"/>
      </g>
     </g>
    </g>
    <g id="text_15">
     <!-- Spread Parameter [km] -->
     <defs>
      <path d="M 18.109375 8.203125 
L 18.109375 -20.796875 
L 9.078125 -20.796875 
L 9.078125 54.6875 
L 18.109375 54.6875 
L 18.109375 46.390625 
Q 20.953125 51.265625 25.265625 53.625 
Q 29.59375 56 35.59375 56 
Q 45.5625 56 51.78125 48.09375 
Q 58.015625 40.1875 58.015625 27.296875 
Q 58.015625 14.40625 51.78125 6.484375 
Q 45.5625 -1.421875 35.59375 -1.421875 
Q 29.59375 -1.421875 25.265625 0.953125 
Q 20.953125 3.328125 18.109375 8.203125 
z
M 48.6875 27.296875 
Q 48.6875 37.203125 44.609375 42.84375 
Q 40.53125 48.484375 33.40625 48.484375 
Q 26.265625 48.484375 22.1875 42.84375 
Q 18.109375 37.203125 18.109375 27.296875 
Q 18.109375 17.390625 22.1875 11.75 
Q 26.265625 6.109375 33.40625 6.109375 
Q 40.53125 6.109375 44.609375 11.75 
Q 48.6875 17.390625 48.6875 27.296875 
z
" id="DejaVuSans-112"/>
      <path d="M 34.28125 27.484375 
Q 23.390625 27.484375 19.1875 25 
Q 14.984375 22.515625 14.984375 16.5 
Q 14.984375 11.71875 18.140625 8.90625 
Q 21.296875 6.109375 26.703125 6.109375 
Q 34.1875 6.109375 38.703125 11.40625 
Q 43.21875 16.703125 43.21875 25.484375 
L 43.21875 27.484375 
z
M 52.203125 31.203125 
L 52.203125 0 
L 43.21875 0 
L 43.21875 8.296875 
Q 40.140625 3.328125 35.546875 0.953125 
Q 30.953125 -1.421875 24.3125 -1.421875 
Q 15.921875 -1.421875 10.953125 3.296875 
Q 6 8.015625 6 15.921875 
Q 6 25.140625 12.171875 29.828125 
Q 18.359375 34.515625 30.609375 34.515625 
L 43.21875 34.515625 
L 43.21875 35.40625 
Q 43.21875 41.609375 39.140625 45 
Q 35.0625 48.390625 27.6875 48.390625 
Q 23 48.390625 18.546875 47.265625 
Q 14.109375 46.140625 10.015625 43.890625 
L 10.015625 52.203125 
Q 14.9375 54.109375 19.578125 55.046875 
Q 24.21875 56 28.609375 56 
Q 40.484375 56 46.34375 49.84375 
Q 52.203125 43.703125 52.203125 31.203125 
z
" id="DejaVuSans-97"/>
      <path d="M 19.671875 64.796875 
L 19.671875 37.40625 
L 32.078125 37.40625 
Q 38.96875 37.40625 42.71875 40.96875 
Q 46.484375 44.53125 46.484375 51.125 
Q 46.484375 57.671875 42.71875 61.234375 
Q 38.96875 64.796875 32.078125 64.796875 
z
M 9.8125 72.90625 
L 32.078125 72.90625 
Q 44.34375 72.90625 50.609375 67.359375 
Q 56.890625 61.8125 56.890625 51.125 
Q 56.890625 40.328125 50.609375 34.8125 
Q 44.34375 29.296875 32.078125 29.296875 
L 19.671875 29.296875 
L 19.671875 0 
L 9.8125 0 
z
" id="DejaVuSans-80"/>
      <path d="M 18.3125 70.21875 
L 18.3125 54.6875 
L 36.8125 54.6875 
L 36.8125 47.703125 
L 18.3125 47.703125 
L 18.3125 18.015625 
Q 18.3125 11.328125 20.140625 9.421875 
Q 21.96875 7.515625 27.59375 7.515625 
L 36.8125 7.515625 
L 36.8125 0 
L 27.59375 0 
Q 17.1875 0 13.234375 3.875 
Q 9.28125 7.765625 9.28125 18.015625 
L 9.28125 47.703125 
L 2.6875 47.703125 
L 2.6875 54.6875 
L 9.28125 54.6875 
L 9.28125 70.21875 
z
" id="DejaVuSans-116"/>
     </defs>
     <g transform="translate(7.211406 219.715937)rotate(-90)scale(0.13 -0.13)">
      <use xlink:href="#DejaVuSans-83"/>
      <use x="63.476562" xlink:href="#DejaVuSans-112"/>
      <use x="126.953125" xlink:href="#DejaVuSans-114"/>
      <use x="168.035156" xlink:href="#DejaVuSans-101"/>
      <use x="229.558594" xlink:href="#DejaVuSans-97"/>
      <use x="290.837891" xlink:href="#DejaVuSans-100"/>
      <use x="354.314453" xlink:href="#DejaVuSans-32"/>
      <use x="386.101562" xlink:href="#DejaVuSans-80"/>
      <use x="446.341797" xlink:href="#DejaVuSans-97"/>
      <use x="507.621094" xlink:href="#DejaVuSans-114"/>
      <use x="548.734375" xlink:href="#DejaVuSans-97"/>
      <use x="610.013672" xlink:href="#DejaVuSans-109"/>
      <use x="707.425781" xlink:href="#DejaVuSans-101"/>
      <use x="768.949219" xlink:href="#DejaVuSans-116"/>
      <use x="808.158203" xlink:href="#DejaVuSans-101"/>
      <use x="869.681641" xlink:href="#DejaVuSans-114"/>
      <use x="910.794922" xlink:href="#DejaVuSans-32"/>
      <use x="942.582031" xlink:href="#DejaVuSans-91"/>
      <use x="981.595703" xlink:href="#DejaVuSans-107"/>
      <use x="1039.505859" xlink:href="#DejaVuSans-109"/>
      <use x="1136.917969" xlink:href="#DejaVuSans-93"/>
     </g>
    </g>
   </g>
   <g id="patch_3">
    <path d="M 54 252 
L 54 34.56 
" style="fill:none;stroke:#000000;stroke-linecap:square;stroke-linejoin:miter;stroke-width:0.8;"/>
   </g>
   <g id="patch_4">
    <path d="M 321.84 252 
L 321.84 34.56 
" style="fill:none;stroke:#000000;stroke-linecap:square;stroke-linejoin:miter;stroke-width:0.8;"/>
   </g>
   <g id="patch_5">
    <path d="M 54 252 
L 321.84 252 
" style="fill:none;stroke:#000000;stroke-linecap:square;stroke-linejoin:miter;stroke-width:0.8;"/>
   </g>
   <g id="patch_6">
    <path d="M 54 34.56 
L 321.84 34.56 
" style="fill:none;stroke:#000000;stroke-linecap:square;stroke-linejoin:miter;stroke-width:0.8;"/>
   </g>
   <g id="text_16">
    <!-- Error: |M3-v3| -->
    <defs>
     <path d="M 9.8125 72.90625 
L 55.90625 72.90625 
L 55.90625 64.59375 
L 19.671875 64.59375 
L 19.671875 43.015625 
L 54.390625 43.015625 
L 54.390625 34.71875 
L 19.671875 34.71875 
L 19.671875 8.296875 
L 56.78125 8.296875 
L 56.78125 0 
L 9.8125 0 
z
" id="DejaVuSans-69"/>
     <path d="M 30.609375 48.390625 
Q 23.390625 48.390625 19.1875 42.75 
Q 14.984375 37.109375 14.984375 27.296875 
Q 14.984375 17.484375 19.15625 11.84375 
Q 23.34375 6.203125 30.609375 6.203125 
Q 37.796875 6.203125 41.984375 11.859375 
Q 46.1875 17.53125 46.1875 27.296875 
Q 46.1875 37.015625 41.984375 42.703125 
Q 37.796875 48.390625 30.609375 48.390625 
z
M 30.609375 56 
Q 42.328125 56 49.015625 48.375 
Q 55.71875 40.765625 55.71875 27.296875 
Q 55.71875 13.875 49.015625 6.21875 
Q 42.328125 -1.421875 30.609375 -1.421875 
Q 18.84375 -1.421875 12.171875 6.21875 
Q 5.515625 13.875 5.515625 27.296875 
Q 5.515625 40.765625 12.171875 48.375 
Q 18.84375 56 30.609375 56 
z
" id="DejaVuSans-111"/>
     <path d="M 11.71875 12.40625 
L 22.015625 12.40625 
L 22.015625 0 
L 11.71875 0 
z
M 11.71875 51.703125 
L 22.015625 51.703125 
L 22.015625 39.3125 
L 11.71875 39.3125 
z
" id="DejaVuSans-58"/>
     <path d="M 21 76.421875 
L 21 -23.578125 
L 12.703125 -23.578125 
L 12.703125 76.421875 
z
" id="DejaVuSans-124"/>
     <path d="M 9.8125 72.90625 
L 24.515625 72.90625 
L 43.109375 23.296875 
L 61.8125 72.90625 
L 76.515625 72.90625 
L 76.515625 0 
L 66.890625 0 
L 66.890625 64.015625 
L 48.09375 14.015625 
L 38.1875 14.015625 
L 19.390625 64.015625 
L 19.390625 0 
L 9.8125 0 
z
" id="DejaVuSans-77"/>
     <path d="M 40.578125 39.3125 
Q 47.65625 37.796875 51.625 33 
Q 55.609375 28.21875 55.609375 21.1875 
Q 55.609375 10.40625 48.1875 4.484375 
Q 40.765625 -1.421875 27.09375 -1.421875 
Q 22.515625 -1.421875 17.65625 -0.515625 
Q 12.796875 0.390625 7.625 2.203125 
L 7.625 11.71875 
Q 11.71875 9.328125 16.59375 8.109375 
Q 21.484375 6.890625 26.8125 6.890625 
Q 36.078125 6.890625 40.9375 10.546875 
Q 45.796875 14.203125 45.796875 21.1875 
Q 45.796875 27.640625 41.28125 31.265625 
Q 36.765625 34.90625 28.71875 34.90625 
L 20.21875 34.90625 
L 20.21875 43.015625 
L 29.109375 43.015625 
Q 36.375 43.015625 40.234375 45.921875 
Q 44.09375 48.828125 44.09375 54.296875 
Q 44.09375 59.90625 40.109375 62.90625 
Q 36.140625 65.921875 28.71875 65.921875 
Q 24.65625 65.921875 20.015625 65.03125 
Q 15.375 64.15625 9.8125 62.3125 
L 9.8125 71.09375 
Q 15.4375 72.65625 20.34375 73.4375 
Q 25.25 74.21875 29.59375 74.21875 
Q 40.828125 74.21875 47.359375 69.109375 
Q 53.90625 64.015625 53.90625 55.328125 
Q 53.90625 49.265625 50.4375 45.09375 
Q 46.96875 40.921875 40.578125 39.3125 
z
" id="DejaVuSans-51"/>
     <path d="M 4.890625 31.390625 
L 31.203125 31.390625 
L 31.203125 23.390625 
L 4.890625 23.390625 
z
" id="DejaVuSans-45"/>
     <path d="M 2.984375 54.6875 
L 12.5 54.6875 
L 29.59375 8.796875 
L 46.6875 54.6875 
L 56.203125 54.6875 
L 35.6875 0 
L 23.484375 0 
z
" id="DejaVuSans-118"/>
    </defs>
    <g transform="translate(134.1585 28.56)scale(0.156 -0.156)">
     <use xlink:href="#DejaVuSans-69"/>
     <use x="63.183594" xlink:href="#DejaVuSans-114"/>
     <use x="104.28125" xlink:href="#DejaVuSans-114"/>
     <use x="145.363281" xlink:href="#DejaVuSans-111"/>
     <use x="206.544922" xlink:href="#DejaVuSans-114"/>
     <use x="247.642578" xlink:href="#DejaVuSans-58"/>
     <use x="281.333984" xlink:href="#DejaVuSans-32"/>
     <use x="313.121094" xlink:href="#DejaVuSans-124"/>
     <use x="346.8125" xlink:href="#DejaVuSans-77"/>
     <use x="433.091797" xlink:href="#DejaVuSans-51"/>
     <use x="496.714844" xlink:href="#DejaVuSans-45"/>
     <use x="532.767578" xlink:href="#DejaVuSans-118"/>
     <use x="591.947266" xlink:href="#DejaVuSans-51"/>
     <use x="655.570312" xlink:href="#DejaVuSans-124"/>
    </g>
   </g>
  </g>
  <g id="axes_2">
   <g id="patch_7">
    <path clip-path="url(#p3e50549c54)" d="M 338.58 252 
L 338.58 232.232727 
L 338.58 54.327273 
L 338.58 34.56 
L 349.452 34.56 
L 349.452 54.327273 
L 349.452 232.232727 
L 349.452 252 
z
" style="fill:#ffffff;stroke:#ffffff;stroke-linejoin:miter;stroke-width:0.01;"/>
   </g>
   <g id="QuadMesh_1">
    <path clip-path="url(#p3e50549c54)" d="M 338.58 252 
L 349.452 252 
L 349.452 232.232727 
L 338.58 232.232727 
L 338.58 252 
" style="fill:#ffeee6;"/>
    <path clip-path="url(#p3e50549c54)" d="M 338.58 232.232727 
L 349.452 232.232727 
L 349.452 212.465455 
L 338.58 212.465455 
L 338.58 232.232727 
" style="fill:#fedecf;"/>
    <path clip-path="url(#p3e50549c54)" d="M 338.58 212.465455 
L 349.452 212.465455 
L 349.452 192.698182 
L 338.58 192.698182 
L 338.58 212.465455 
" style="fill:#fcc2aa;"/>
    <path clip-path="url(#p3e50549c54)" d="M 338.58 192.698182 
L 349.452 192.698182 
L 349.452 172.930909 
L 338.58 172.930909 
L 338.58 192.698182 
" style="fill:#fca588;"/>
    <path clip-path="url(#p3e50549c54)" d="M 338.58 172.930909 
L 349.452 172.930909 
L 349.452 153.163636 
L 338.58 153.163636 
L 338.58 172.930909 
" style="fill:#fc8767;"/>
    <path clip-path="url(#p3e50549c54)" d="M 338.58 153.163636 
L 349.452 153.163636 
L 349.452 133.396364 
L 338.58 133.396364 
L 338.58 153.163636 
" style="fill:#fb694a;"/>
    <path clip-path="url(#p3e50549c54)" d="M 338.58 133.396364 
L 349.452 133.396364 
L 349.452 113.629091 
L 338.58 113.629091 
L 338.58 133.396364 
" style="fill:#f24734;"/>
    <path clip-path="url(#p3e50549c54)" d="M 338.58 113.629091 
L 349.452 113.629091 
L 349.452 93.861818 
L 338.58 93.861818 
L 338.58 113.629091 
" style="fill:#de2b25;"/>
    <path clip-path="url(#p3e50549c54)" d="M 338.58 93.861818 
L 349.452 93.861818 
L 349.452 74.094545 
L 338.58 74.094545 
L 338.58 93.861818 
" style="fill:#c4161c;"/>
    <path clip-path="url(#p3e50549c54)" d="M 338.58 74.094545 
L 349.452 74.094545 
L 349.452 54.327273 
L 338.58 54.327273 
L 338.58 74.094545 
" style="fill:#a81016;"/>
    <path clip-path="url(#p3e50549c54)" d="M 338.58 54.327273 
L 349.452 54.327273 
L 349.452 34.56 
L 338.58 34.56 
L 338.58 54.327273 
" style="fill:#7c0510;"/>
   </g>
   <g id="matplotlib.axis_3"/>
   <g id="matplotlib.axis_4">
    <g id="ytick_10">
     <g id="line2d_14">
      <defs>
       <path d="M 0 0 
L 3.5 0 
" id="mfa5a3676b5" style="stroke:#000000;stroke-width:0.8;"/>
      </defs>
      <g>
       <use style="stroke:#000000;stroke-width:0.8;" x="349.452" xlink:href="#mfa5a3676b5" y="252"/>
      </g>
     </g>
     <g id="text_17">
      <!-- 0 -->
      <g transform="translate(356.452 256.938984)scale(0.13 -0.13)">
       <use xlink:href="#DejaVuSans-48"/>
      </g>
     </g>
    </g>
    <g id="ytick_11">
     <g id="line2d_15">
      <g>
       <use style="stroke:#000000;stroke-width:0.8;" x="349.452" xlink:href="#mfa5a3676b5" y="212.465455"/>
      </g>
     </g>
     <g id="text_18">
      <!-- 20 -->
      <g transform="translate(356.452 217.404439)scale(0.13 -0.13)">
       <use xlink:href="#DejaVuSans-50"/>
       <use x="63.623047" xlink:href="#DejaVuSans-48"/>
      </g>
     </g>
    </g>
    <g id="ytick_12">
     <g id="line2d_16">
      <g>
       <use style="stroke:#000000;stroke-width:0.8;" x="349.452" xlink:href="#mfa5a3676b5" y="172.930909"/>
      </g>
     </g>
     <g id="text_19">
      <!-- 40 -->
      <defs>
       <path d="M 37.796875 64.3125 
L 12.890625 25.390625 
L 37.796875 25.390625 
z
M 35.203125 72.90625 
L 47.609375 72.90625 
L 47.609375 25.390625 
L 58.015625 25.390625 
L 58.015625 17.1875 
L 47.609375 17.1875 
L 47.609375 0 
L 37.796875 0 
L 37.796875 17.1875 
L 4.890625 17.1875 
L 4.890625 26.703125 
z
" id="DejaVuSans-52"/>
      </defs>
      <g transform="translate(356.452 177.869893)scale(0.13 -0.13)">
       <use xlink:href="#DejaVuSans-52"/>
       <use x="63.623047" xlink:href="#DejaVuSans-48"/>
      </g>
     </g>
    </g>
    <g id="ytick_13">
     <g id="line2d_17">
      <g>
       <use style="stroke:#000000;stroke-width:0.8;" x="349.452" xlink:href="#mfa5a3676b5" y="133.396364"/>
      </g>
     </g>
     <g id="text_20">
      <!-- 60 -->
      <defs>
       <path d="M 33.015625 40.375 
Q 26.375 40.375 22.484375 35.828125 
Q 18.609375 31.296875 18.609375 23.390625 
Q 18.609375 15.53125 22.484375 10.953125 
Q 26.375 6.390625 33.015625 6.390625 
Q 39.65625 6.390625 43.53125 10.953125 
Q 47.40625 15.53125 47.40625 23.390625 
Q 47.40625 31.296875 43.53125 35.828125 
Q 39.65625 40.375 33.015625 40.375 
z
M 52.59375 71.296875 
L 52.59375 62.3125 
Q 48.875 64.0625 45.09375 64.984375 
Q 41.3125 65.921875 37.59375 65.921875 
Q 27.828125 65.921875 22.671875 59.328125 
Q 17.53125 52.734375 16.796875 39.40625 
Q 19.671875 43.65625 24.015625 45.921875 
Q 28.375 48.1875 33.59375 48.1875 
Q 44.578125 48.1875 50.953125 41.515625 
Q 57.328125 34.859375 57.328125 23.390625 
Q 57.328125 12.15625 50.6875 5.359375 
Q 44.046875 -1.421875 33.015625 -1.421875 
Q 20.359375 -1.421875 13.671875 8.265625 
Q 6.984375 17.96875 6.984375 36.375 
Q 6.984375 53.65625 15.1875 63.9375 
Q 23.390625 74.21875 37.203125 74.21875 
Q 40.921875 74.21875 44.703125 73.484375 
Q 48.484375 72.75 52.59375 71.296875 
z
" id="DejaVuSans-54"/>
      </defs>
      <g transform="translate(356.452 138.335348)scale(0.13 -0.13)">
       <use xlink:href="#DejaVuSans-54"/>
       <use x="63.623047" xlink:href="#DejaVuSans-48"/>
      </g>
     </g>
    </g>
    <g id="ytick_14">
     <g id="line2d_18">
      <g>
       <use style="stroke:#000000;stroke-width:0.8;" x="349.452" xlink:href="#mfa5a3676b5" y="93.861818"/>
      </g>
     </g>
     <g id="text_21">
      <!-- 80 -->
      <defs>
       <path d="M 31.78125 34.625 
Q 24.75 34.625 20.71875 30.859375 
Q 16.703125 27.09375 16.703125 20.515625 
Q 16.703125 13.921875 20.71875 10.15625 
Q 24.75 6.390625 31.78125 6.390625 
Q 38.8125 6.390625 42.859375 10.171875 
Q 46.921875 13.96875 46.921875 20.515625 
Q 46.921875 27.09375 42.890625 30.859375 
Q 38.875 34.625 31.78125 34.625 
z
M 21.921875 38.8125 
Q 15.578125 40.375 12.03125 44.71875 
Q 8.5 49.078125 8.5 55.328125 
Q 8.5 64.0625 14.71875 69.140625 
Q 20.953125 74.21875 31.78125 74.21875 
Q 42.671875 74.21875 48.875 69.140625 
Q 55.078125 64.0625 55.078125 55.328125 
Q 55.078125 49.078125 51.53125 44.71875 
Q 48 40.375 41.703125 38.8125 
Q 48.828125 37.15625 52.796875 32.3125 
Q 56.78125 27.484375 56.78125 20.515625 
Q 56.78125 9.90625 50.3125 4.234375 
Q 43.84375 -1.421875 31.78125 -1.421875 
Q 19.734375 -1.421875 13.25 4.234375 
Q 6.78125 9.90625 6.78125 20.515625 
Q 6.78125 27.484375 10.78125 32.3125 
Q 14.796875 37.15625 21.921875 38.8125 
z
M 18.3125 54.390625 
Q 18.3125 48.734375 21.84375 45.5625 
Q 25.390625 42.390625 31.78125 42.390625 
Q 38.140625 42.390625 41.71875 45.5625 
Q 45.3125 48.734375 45.3125 54.390625 
Q 45.3125 60.0625 41.71875 63.234375 
Q 38.140625 66.40625 31.78125 66.40625 
Q 25.390625 66.40625 21.84375 63.234375 
Q 18.3125 60.0625 18.3125 54.390625 
z
" id="DejaVuSans-56"/>
      </defs>
      <g transform="translate(356.452 98.800803)scale(0.13 -0.13)">
       <use xlink:href="#DejaVuSans-56"/>
       <use x="63.623047" xlink:href="#DejaVuSans-48"/>
      </g>
     </g>
    </g>
    <g id="ytick_15">
     <g id="line2d_19">
      <g>
       <use style="stroke:#000000;stroke-width:0.8;" x="349.452" xlink:href="#mfa5a3676b5" y="54.327273"/>
      </g>
     </g>
     <g id="text_22">
      <!-- 100 -->
      <g transform="translate(356.452 59.266257)scale(0.13 -0.13)">
       <use xlink:href="#DejaVuSans-49"/>
       <use x="63.623047" xlink:href="#DejaVuSans-48"/>
       <use x="127.246094" xlink:href="#DejaVuSans-48"/>
      </g>
     </g>
    </g>
   </g>
   <g id="patch_8">
    <path d="M 338.58 252 
L 338.58 232.232727 
L 338.58 54.327273 
L 338.58 34.56 
L 349.452 34.56 
L 349.452 54.327273 
L 349.452 232.232727 
L 349.452 252 
z
" style="fill:none;stroke:#000000;stroke-linejoin:miter;stroke-width:0.8;"/>
   </g>
  </g>
 </g>
 <defs>
  <clipPath id="p01d1c4fedc">
   <rect height="217.44" width="267.84" x="54" y="34.56"/>
  </clipPath>
  <clipPath id="p3e50549c54">
   <rect height="217.44" width="10.872" x="338.58" y="34.56"/>
  </clipPath>
 </defs>
</svg>
